G04 #@! TF.FileFunction,Soldermask,Bot*
%FSLAX46Y46*%
G04 Gerber Fmt 4.6, Leading zero omitted, Abs format (unit mm)*
G04 Created by KiCad (PCBNEW (2015-08-16 BZR 6097)-product) date Monday 17. August 2015 13.28.47*
%MOMM*%
G01*
G04 APERTURE LIST*
%ADD10C,0.100000*%
%ADD11R,2.032000X1.727200*%
%ADD12O,2.032000X1.727200*%
%ADD13R,1.727200X2.032000*%
%ADD14O,1.727200X2.032000*%
%ADD15R,1.727200X1.727200*%
%ADD16O,1.727200X1.727200*%
%ADD17C,0.400000*%
%ADD18C,1.000000*%
%ADD19C,1.500000*%
%ADD20C,2.200000*%
G04 APERTURE END LIST*
D10*
D11*
X76200000Y-134620000D03*
D12*
X76200000Y-132080000D03*
X76200000Y-129540000D03*
X76200000Y-127000000D03*
X76200000Y-124460000D03*
X76200000Y-121920000D03*
X76200000Y-119380000D03*
X76200000Y-116840000D03*
X76200000Y-114300000D03*
X76200000Y-111760000D03*
X76200000Y-109220000D03*
X76200000Y-106680000D03*
X76200000Y-104140000D03*
X76200000Y-101600000D03*
X76200000Y-99060000D03*
X76200000Y-96520000D03*
X76200000Y-93980000D03*
X76200000Y-91440000D03*
X76200000Y-88900000D03*
D13*
X88900000Y-75565000D03*
D14*
X91440000Y-75565000D03*
X93980000Y-75565000D03*
X96520000Y-75565000D03*
X99060000Y-75565000D03*
X101600000Y-75565000D03*
D15*
X137160000Y-133985000D03*
D16*
X137160000Y-136525000D03*
X134620000Y-133985000D03*
X134620000Y-136525000D03*
X132080000Y-133985000D03*
X132080000Y-136525000D03*
X129540000Y-133985000D03*
X129540000Y-136525000D03*
X127000000Y-133985000D03*
X127000000Y-136525000D03*
X124460000Y-133985000D03*
X124460000Y-136525000D03*
X121920000Y-133985000D03*
X121920000Y-136525000D03*
X119380000Y-133985000D03*
X119380000Y-136525000D03*
X116840000Y-133985000D03*
X116840000Y-136525000D03*
X114300000Y-133985000D03*
X114300000Y-136525000D03*
X111760000Y-133985000D03*
X111760000Y-136525000D03*
X109220000Y-133985000D03*
X109220000Y-136525000D03*
X106680000Y-133985000D03*
X106680000Y-136525000D03*
X104140000Y-133985000D03*
X104140000Y-136525000D03*
X101600000Y-133985000D03*
X101600000Y-136525000D03*
X99060000Y-133985000D03*
X99060000Y-136525000D03*
X96520000Y-133985000D03*
X96520000Y-136525000D03*
X93980000Y-133985000D03*
X93980000Y-136525000D03*
X91440000Y-133985000D03*
X91440000Y-136525000D03*
X88900000Y-133985000D03*
X88900000Y-136525000D03*
X86360000Y-133985000D03*
X86360000Y-136525000D03*
D11*
X76200000Y-81280000D03*
D12*
X76200000Y-83820000D03*
X76200000Y-86360000D03*
D15*
X137160000Y-78740000D03*
D16*
X137160000Y-81280000D03*
X134620000Y-78740000D03*
X134620000Y-81280000D03*
X132080000Y-78740000D03*
X132080000Y-81280000D03*
X129540000Y-78740000D03*
X129540000Y-81280000D03*
X127000000Y-78740000D03*
X127000000Y-81280000D03*
X124460000Y-78740000D03*
X124460000Y-81280000D03*
X121920000Y-78740000D03*
X121920000Y-81280000D03*
X119380000Y-78740000D03*
X119380000Y-81280000D03*
D15*
X101600000Y-78105000D03*
D16*
X101600000Y-80645000D03*
X99060000Y-78105000D03*
X99060000Y-80645000D03*
X96520000Y-78105000D03*
X96520000Y-80645000D03*
X93980000Y-78105000D03*
X93980000Y-80645000D03*
X91440000Y-78105000D03*
X91440000Y-80645000D03*
X88900000Y-78105000D03*
X88900000Y-80645000D03*
D17*
X126928000Y-39787000D03*
D18*
X78200000Y-164980000D03*
X76600000Y-164980000D03*
X75000000Y-164980000D03*
X73400000Y-164980000D03*
X71800000Y-164980000D03*
X70200000Y-164980000D03*
X68600000Y-164980000D03*
X67000000Y-164980000D03*
X65400000Y-164980000D03*
X79800000Y-164980000D03*
X81400000Y-164980000D03*
X83000000Y-164980000D03*
X84600000Y-164980000D03*
X86200000Y-164980000D03*
X87800000Y-164980000D03*
X89400000Y-164980000D03*
X91000000Y-164980000D03*
X91800000Y-163830000D03*
X90200000Y-163830000D03*
X88600000Y-163830000D03*
X87000000Y-163830000D03*
X85400000Y-163830000D03*
X83800000Y-163830000D03*
X82200000Y-163830000D03*
X80600000Y-163830000D03*
X66200000Y-163830000D03*
X67800000Y-163830000D03*
X69400000Y-163830000D03*
X71000000Y-163830000D03*
X72600000Y-163830000D03*
X74200000Y-163830000D03*
X75800000Y-163830000D03*
X77400000Y-163830000D03*
X79000000Y-163830000D03*
X78600000Y-161480000D03*
X77000000Y-161480000D03*
X75400000Y-161480000D03*
X73800000Y-161480000D03*
X72200000Y-161480000D03*
X70600000Y-161480000D03*
X69000000Y-161480000D03*
X67400000Y-161480000D03*
X65800000Y-161480000D03*
X80200000Y-161480000D03*
X81800000Y-161480000D03*
X83400000Y-161480000D03*
X85000000Y-161480000D03*
X86600000Y-161480000D03*
X88200000Y-161480000D03*
X89800000Y-161480000D03*
X91400000Y-161480000D03*
X90600000Y-162630000D03*
X89000000Y-162630000D03*
X87400000Y-162630000D03*
X85800000Y-162630000D03*
X84200000Y-162630000D03*
X82600000Y-162630000D03*
X81000000Y-162630000D03*
X79400000Y-162630000D03*
X65000000Y-162630000D03*
X66600000Y-162630000D03*
X68200000Y-162630000D03*
X69800000Y-162630000D03*
X71400000Y-162630000D03*
X73000000Y-162630000D03*
X74600000Y-162630000D03*
X76200000Y-162630000D03*
X77800000Y-162630000D03*
D19*
X62230000Y-163830000D03*
D20*
X57460000Y-166450000D03*
X99360000Y-166450000D03*
D19*
X94580000Y-163830000D03*
D15*
X144145000Y-93980000D03*
D16*
X141605000Y-93980000D03*
X144145000Y-91440000D03*
X141605000Y-91440000D03*
X144145000Y-88900000D03*
X141605000Y-88900000D03*
X144145000Y-86360000D03*
X141605000Y-86360000D03*
D15*
X141605000Y-100330000D03*
D16*
X144145000Y-100330000D03*
X141605000Y-102870000D03*
X144145000Y-102870000D03*
X141605000Y-105410000D03*
X144145000Y-105410000D03*
X141605000Y-107950000D03*
X144145000Y-107950000D03*
X141605000Y-110490000D03*
X144145000Y-110490000D03*
X141605000Y-113030000D03*
X144145000Y-113030000D03*
X141605000Y-115570000D03*
X144145000Y-115570000D03*
X141605000Y-118110000D03*
X144145000Y-118110000D03*
X141605000Y-120650000D03*
X144145000Y-120650000D03*
X141605000Y-123190000D03*
X144145000Y-123190000D03*
X141605000Y-125730000D03*
X144145000Y-125730000D03*
D17*
X101456000Y-43837000D03*
D13*
X120650000Y-160020000D03*
D14*
X123190000Y-160020000D03*
X125730000Y-160020000D03*
X128270000Y-160020000D03*
X130810000Y-160020000D03*
X133350000Y-160020000D03*
X135890000Y-160020000D03*
M02*
