G04 #@! TF.FileFunction,Soldermask,Top*
%FSLAX46Y46*%
G04 Gerber Fmt 4.6, Leading zero omitted, Abs format (unit mm)*
G04 Created by KiCad (PCBNEW (2015-08-16 BZR 6097)-product) date Monday 17. August 2015 13.28.47*
%MOMM*%
G01*
G04 APERTURE LIST*
%ADD10C,0.100000*%
%ADD11R,0.762000X1.778000*%
%ADD12R,1.778000X0.762000*%
%ADD13R,1.300000X1.100000*%
%ADD14R,2.032000X1.727200*%
%ADD15O,2.032000X1.727200*%
%ADD16R,1.727200X2.032000*%
%ADD17O,1.727200X2.032000*%
%ADD18R,2.500000X1.000000*%
%ADD19R,1.000000X2.500000*%
%ADD20R,1.727200X1.727200*%
%ADD21O,1.727200X1.727200*%
%ADD22R,2.500000X0.900000*%
%ADD23R,0.900000X2.500000*%
%ADD24R,0.600000X0.700000*%
%ADD25R,0.900000X0.700000*%
%ADD26R,1.100000X1.300000*%
%ADD27C,0.400000*%
%ADD28R,1.198880X1.198880*%
%ADD29C,1.000000*%
%ADD30C,1.500000*%
%ADD31C,2.200000*%
%ADD32R,0.299720X1.597660*%
%ADD33R,0.800100X0.800100*%
G04 APERTURE END LIST*
D10*
D11*
X95567500Y-92583000D03*
X96837500Y-92583000D03*
X98107500Y-92583000D03*
X99377500Y-92583000D03*
X100647500Y-92583000D03*
X101917500Y-92583000D03*
X103187500Y-92583000D03*
X104457500Y-92583000D03*
X105727500Y-92583000D03*
X106997500Y-92583000D03*
X108267500Y-92583000D03*
X109537500Y-92583000D03*
X110807500Y-92583000D03*
X112077500Y-92583000D03*
X113347500Y-92583000D03*
X114617500Y-92583000D03*
X115887500Y-92583000D03*
X117157500Y-92583000D03*
X118427500Y-92583000D03*
X119697500Y-92583000D03*
X120967500Y-92583000D03*
D12*
X122669300Y-94284800D03*
X122669300Y-95554800D03*
X122669300Y-96824800D03*
X122669300Y-98094800D03*
X122669300Y-99364800D03*
X122669300Y-100634800D03*
X122669300Y-101904800D03*
X122669300Y-103174800D03*
X122669300Y-104444800D03*
X122669300Y-105714800D03*
X122669300Y-106984800D03*
X122669300Y-108254800D03*
X122669300Y-109524800D03*
X122669300Y-110794800D03*
X122669300Y-112064800D03*
X122669300Y-113334800D03*
X122669300Y-114604800D03*
X122669300Y-115874800D03*
X122669300Y-117144800D03*
X122669300Y-118414800D03*
X122669300Y-119684800D03*
D11*
X120967500Y-121386600D03*
X119697500Y-121386600D03*
X118427500Y-121386600D03*
X117157500Y-121386600D03*
X115887500Y-121386600D03*
X114617500Y-121386600D03*
X113347500Y-121386600D03*
X112077500Y-121386600D03*
X110807500Y-121386600D03*
X109537500Y-121386600D03*
X108267500Y-121386600D03*
X106997500Y-121386600D03*
X105727500Y-121386600D03*
X104457500Y-121386600D03*
X103187500Y-121386600D03*
X101917500Y-121386600D03*
X100647500Y-121386600D03*
X99377500Y-121386600D03*
X98107500Y-121386600D03*
X96837500Y-121386600D03*
X95567500Y-121386600D03*
D12*
X93865700Y-119684800D03*
X93865700Y-118414800D03*
X93865700Y-117144800D03*
X93865700Y-115874800D03*
X93865700Y-114604800D03*
X93865700Y-113334800D03*
X93865700Y-112064800D03*
X93865700Y-110794800D03*
X93865700Y-109524800D03*
X93865700Y-108254800D03*
X93865700Y-106984800D03*
X93865700Y-105714800D03*
X93865700Y-104444800D03*
X93865700Y-103174800D03*
X93865700Y-101904800D03*
X93865700Y-100634800D03*
X93865700Y-99364800D03*
X93865700Y-98094800D03*
X93865700Y-96824800D03*
X93865700Y-95554800D03*
X93865700Y-94284800D03*
D13*
X163068000Y-140208000D03*
X163068000Y-137668000D03*
X163068000Y-135128000D03*
X163068000Y-132588000D03*
X163068000Y-130048000D03*
X163068000Y-127508000D03*
X163068000Y-124968000D03*
X163068000Y-122428000D03*
X172568000Y-122428000D03*
X172568000Y-140208000D03*
D14*
X76200000Y-134620000D03*
D15*
X76200000Y-132080000D03*
X76200000Y-129540000D03*
X76200000Y-127000000D03*
X76200000Y-124460000D03*
X76200000Y-121920000D03*
X76200000Y-119380000D03*
X76200000Y-116840000D03*
X76200000Y-114300000D03*
X76200000Y-111760000D03*
X76200000Y-109220000D03*
X76200000Y-106680000D03*
X76200000Y-104140000D03*
X76200000Y-101600000D03*
X76200000Y-99060000D03*
X76200000Y-96520000D03*
X76200000Y-93980000D03*
X76200000Y-91440000D03*
X76200000Y-88900000D03*
D16*
X88900000Y-75565000D03*
D17*
X91440000Y-75565000D03*
X93980000Y-75565000D03*
X96520000Y-75565000D03*
X99060000Y-75565000D03*
X101600000Y-75565000D03*
D18*
X100330000Y-88495000D03*
X100330000Y-85495000D03*
D19*
X128040000Y-95250000D03*
X131040000Y-95250000D03*
X88495000Y-121285000D03*
X85495000Y-121285000D03*
D18*
X81026000Y-86130000D03*
X81026000Y-89130000D03*
D19*
X126770000Y-73660000D03*
X129770000Y-73660000D03*
X134850000Y-73660000D03*
X131850000Y-73660000D03*
D18*
X121920000Y-129135000D03*
X121920000Y-126135000D03*
D19*
X76605000Y-73660000D03*
X79605000Y-73660000D03*
D18*
X93980000Y-85495000D03*
X93980000Y-88495000D03*
D19*
X108815000Y-73660000D03*
X105815000Y-73660000D03*
D18*
X124460000Y-163600000D03*
X124460000Y-166600000D03*
X120650000Y-163600000D03*
X120650000Y-166600000D03*
D19*
X114276000Y-73660000D03*
X111276000Y-73660000D03*
X153900000Y-73660000D03*
X150900000Y-73660000D03*
D18*
X104140000Y-88495000D03*
X104140000Y-85495000D03*
D19*
X128040000Y-99060000D03*
X131040000Y-99060000D03*
X128040000Y-102870000D03*
X131040000Y-102870000D03*
D18*
X96520000Y-126135000D03*
X96520000Y-129135000D03*
X106680000Y-126135000D03*
X106680000Y-129135000D03*
X107950000Y-88495000D03*
X107950000Y-85495000D03*
X136906000Y-166600000D03*
X136906000Y-163600000D03*
D19*
X167870000Y-81280000D03*
X164870000Y-81280000D03*
D18*
X156210000Y-147550000D03*
X156210000Y-144550000D03*
X140716000Y-166600000D03*
X140716000Y-163600000D03*
D19*
X167870000Y-85090000D03*
X164870000Y-85090000D03*
D18*
X160020000Y-147550000D03*
X160020000Y-144550000D03*
X144526000Y-166600000D03*
X144526000Y-163600000D03*
D19*
X167870000Y-88900000D03*
X164870000Y-88900000D03*
D18*
X163830000Y-147550000D03*
X163830000Y-144550000D03*
X172466000Y-155170000D03*
X172466000Y-152170000D03*
D19*
X167870000Y-92710000D03*
X164870000Y-92710000D03*
D18*
X167640000Y-147550000D03*
X167640000Y-144550000D03*
X168656000Y-155170000D03*
X168656000Y-152170000D03*
D19*
X169950000Y-81280000D03*
X172950000Y-81280000D03*
D18*
X171450000Y-147550000D03*
X171450000Y-144550000D03*
X164846000Y-155170000D03*
X164846000Y-152170000D03*
D19*
X169950000Y-85090000D03*
X172950000Y-85090000D03*
X169950000Y-88900000D03*
X172950000Y-88900000D03*
X169950000Y-92710000D03*
X172950000Y-92710000D03*
D20*
X137160000Y-133985000D03*
D21*
X137160000Y-136525000D03*
X134620000Y-133985000D03*
X134620000Y-136525000D03*
X132080000Y-133985000D03*
X132080000Y-136525000D03*
X129540000Y-133985000D03*
X129540000Y-136525000D03*
X127000000Y-133985000D03*
X127000000Y-136525000D03*
X124460000Y-133985000D03*
X124460000Y-136525000D03*
X121920000Y-133985000D03*
X121920000Y-136525000D03*
X119380000Y-133985000D03*
X119380000Y-136525000D03*
X116840000Y-133985000D03*
X116840000Y-136525000D03*
X114300000Y-133985000D03*
X114300000Y-136525000D03*
X111760000Y-133985000D03*
X111760000Y-136525000D03*
X109220000Y-133985000D03*
X109220000Y-136525000D03*
X106680000Y-133985000D03*
X106680000Y-136525000D03*
X104140000Y-133985000D03*
X104140000Y-136525000D03*
X101600000Y-133985000D03*
X101600000Y-136525000D03*
X99060000Y-133985000D03*
X99060000Y-136525000D03*
X96520000Y-133985000D03*
X96520000Y-136525000D03*
X93980000Y-133985000D03*
X93980000Y-136525000D03*
X91440000Y-133985000D03*
X91440000Y-136525000D03*
X88900000Y-133985000D03*
X88900000Y-136525000D03*
X86360000Y-133985000D03*
X86360000Y-136525000D03*
D22*
X90170000Y-85545000D03*
X90170000Y-88445000D03*
D23*
X157300000Y-121920000D03*
X160200000Y-121920000D03*
X157300000Y-118110000D03*
X160200000Y-118110000D03*
X157300000Y-114300000D03*
X160200000Y-114300000D03*
X157300000Y-110490000D03*
X160200000Y-110490000D03*
X157300000Y-106680000D03*
X160200000Y-106680000D03*
X157300000Y-102870000D03*
X160200000Y-102870000D03*
X157300000Y-99060000D03*
X160200000Y-99060000D03*
X157300000Y-95250000D03*
X160200000Y-95250000D03*
X157300000Y-140970000D03*
X160200000Y-140970000D03*
X157300000Y-137160000D03*
X160200000Y-137160000D03*
X157300000Y-133350000D03*
X160200000Y-133350000D03*
X157300000Y-129540000D03*
X160200000Y-129540000D03*
X157300000Y-125730000D03*
X160200000Y-125730000D03*
D22*
X141986000Y-152220000D03*
X141986000Y-155120000D03*
X145796000Y-152220000D03*
X145796000Y-155120000D03*
X149606000Y-152220000D03*
X149606000Y-155120000D03*
X153416000Y-152220000D03*
X153416000Y-155120000D03*
X157226000Y-152220000D03*
X157226000Y-155120000D03*
X161036000Y-152220000D03*
X161036000Y-155120000D03*
D23*
X67130000Y-76200000D03*
X70030000Y-76200000D03*
X55700000Y-76200000D03*
X58600000Y-76200000D03*
X67130000Y-80010000D03*
X70030000Y-80010000D03*
X55700000Y-80010000D03*
X58600000Y-80010000D03*
X67130000Y-83820000D03*
X70030000Y-83820000D03*
X55700000Y-83820000D03*
X58600000Y-83820000D03*
X67130000Y-87630000D03*
X70030000Y-87630000D03*
X55700000Y-87630000D03*
X58600000Y-87630000D03*
X67130000Y-91440000D03*
X70030000Y-91440000D03*
X55700000Y-91440000D03*
X58600000Y-91440000D03*
X67130000Y-95250000D03*
X70030000Y-95250000D03*
D22*
X86995000Y-149680000D03*
X86995000Y-152580000D03*
X90805000Y-149680000D03*
X90805000Y-152580000D03*
X94615000Y-149680000D03*
X94615000Y-152580000D03*
X94615000Y-146865000D03*
X94615000Y-143965000D03*
X90805000Y-146865000D03*
X90805000Y-143965000D03*
X132080000Y-149680000D03*
X132080000Y-152580000D03*
X128270000Y-149680000D03*
X128270000Y-152580000D03*
X116840000Y-149680000D03*
X116840000Y-152580000D03*
X124460000Y-149680000D03*
X124460000Y-152580000D03*
X120650000Y-149680000D03*
X120650000Y-152580000D03*
D24*
X84186000Y-88830000D03*
D25*
X84836000Y-86430000D03*
D24*
X85486000Y-88830000D03*
D13*
X163068000Y-116840000D03*
X163068000Y-114300000D03*
X163068000Y-111760000D03*
X163068000Y-109220000D03*
X163068000Y-106680000D03*
X163068000Y-104140000D03*
X163068000Y-101600000D03*
X163068000Y-99060000D03*
X172568000Y-99060000D03*
X172568000Y-116840000D03*
D26*
X149225000Y-157480000D03*
X151765000Y-157480000D03*
X154305000Y-157480000D03*
X156845000Y-157480000D03*
X159385000Y-157480000D03*
X161925000Y-157480000D03*
X164465000Y-157480000D03*
X167005000Y-157480000D03*
X167005000Y-166980000D03*
X149225000Y-166980000D03*
D19*
X88495000Y-117475000D03*
X85495000Y-117475000D03*
D18*
X114300000Y-126135000D03*
X114300000Y-129135000D03*
X100330000Y-126135000D03*
X100330000Y-129135000D03*
D14*
X76200000Y-81280000D03*
D15*
X76200000Y-83820000D03*
X76200000Y-86360000D03*
D20*
X137160000Y-78740000D03*
D21*
X137160000Y-81280000D03*
X134620000Y-78740000D03*
X134620000Y-81280000D03*
X132080000Y-78740000D03*
X132080000Y-81280000D03*
X129540000Y-78740000D03*
X129540000Y-81280000D03*
X127000000Y-78740000D03*
X127000000Y-81280000D03*
X124460000Y-78740000D03*
X124460000Y-81280000D03*
X121920000Y-78740000D03*
X121920000Y-81280000D03*
X119380000Y-78740000D03*
X119380000Y-81280000D03*
D20*
X101600000Y-78105000D03*
D21*
X101600000Y-80645000D03*
X99060000Y-78105000D03*
X99060000Y-80645000D03*
X96520000Y-78105000D03*
X96520000Y-80645000D03*
X93980000Y-78105000D03*
X93980000Y-80645000D03*
X91440000Y-78105000D03*
X91440000Y-80645000D03*
X88900000Y-78105000D03*
X88900000Y-80645000D03*
D27*
X126928000Y-39787000D03*
D22*
X98425000Y-149680000D03*
X98425000Y-152580000D03*
D18*
X86995000Y-146915000D03*
X86995000Y-143915000D03*
X116840000Y-147550000D03*
X116840000Y-144550000D03*
D28*
X51020980Y-76200000D03*
X53119020Y-76200000D03*
X51020980Y-80010000D03*
X53119020Y-80010000D03*
X51020980Y-83820000D03*
X53119020Y-83820000D03*
X51020980Y-87630000D03*
X53119020Y-87630000D03*
X51020980Y-91440000D03*
X53119020Y-91440000D03*
X51020980Y-95250000D03*
X53119020Y-95250000D03*
X51020980Y-99060000D03*
X53119020Y-99060000D03*
X51020980Y-102870000D03*
X53119020Y-102870000D03*
X51020980Y-106680000D03*
X53119020Y-106680000D03*
X51020980Y-110490000D03*
X53119020Y-110490000D03*
X51020980Y-114300000D03*
X53119020Y-114300000D03*
X51020980Y-118110000D03*
X53119020Y-118110000D03*
X51020980Y-121920000D03*
X53119020Y-121920000D03*
X51020980Y-125730000D03*
X53119020Y-125730000D03*
X51020980Y-129540000D03*
X53119020Y-129540000D03*
X51020980Y-133350000D03*
X53119020Y-133350000D03*
X51020980Y-137160000D03*
X53119020Y-137160000D03*
X51020980Y-140970000D03*
X53119020Y-140970000D03*
D29*
X78200000Y-164980000D03*
X76600000Y-164980000D03*
X75000000Y-164980000D03*
X73400000Y-164980000D03*
X71800000Y-164980000D03*
X70200000Y-164980000D03*
X68600000Y-164980000D03*
X67000000Y-164980000D03*
X65400000Y-164980000D03*
X79800000Y-164980000D03*
X81400000Y-164980000D03*
X83000000Y-164980000D03*
X84600000Y-164980000D03*
X86200000Y-164980000D03*
X87800000Y-164980000D03*
X89400000Y-164980000D03*
X91000000Y-164980000D03*
X91800000Y-163830000D03*
X90200000Y-163830000D03*
X88600000Y-163830000D03*
X87000000Y-163830000D03*
X85400000Y-163830000D03*
X83800000Y-163830000D03*
X82200000Y-163830000D03*
X80600000Y-163830000D03*
X66200000Y-163830000D03*
X67800000Y-163830000D03*
X69400000Y-163830000D03*
X71000000Y-163830000D03*
X72600000Y-163830000D03*
X74200000Y-163830000D03*
X75800000Y-163830000D03*
X77400000Y-163830000D03*
X79000000Y-163830000D03*
X78600000Y-161480000D03*
X77000000Y-161480000D03*
X75400000Y-161480000D03*
X73800000Y-161480000D03*
X72200000Y-161480000D03*
X70600000Y-161480000D03*
X69000000Y-161480000D03*
X67400000Y-161480000D03*
X65800000Y-161480000D03*
X80200000Y-161480000D03*
X81800000Y-161480000D03*
X83400000Y-161480000D03*
X85000000Y-161480000D03*
X86600000Y-161480000D03*
X88200000Y-161480000D03*
X89800000Y-161480000D03*
X91400000Y-161480000D03*
X90600000Y-162630000D03*
X89000000Y-162630000D03*
X87400000Y-162630000D03*
X85800000Y-162630000D03*
X84200000Y-162630000D03*
X82600000Y-162630000D03*
X81000000Y-162630000D03*
X79400000Y-162630000D03*
X65000000Y-162630000D03*
X66600000Y-162630000D03*
X68200000Y-162630000D03*
X69800000Y-162630000D03*
X71400000Y-162630000D03*
X73000000Y-162630000D03*
X74600000Y-162630000D03*
X76200000Y-162630000D03*
X77800000Y-162630000D03*
D30*
X62230000Y-163830000D03*
D31*
X57460000Y-166450000D03*
X99360000Y-166450000D03*
D30*
X94580000Y-163830000D03*
D32*
X83593940Y-150754080D03*
X82943700Y-150754080D03*
X82293460Y-150754080D03*
X81643220Y-150754080D03*
X80992980Y-150754080D03*
X80345280Y-150754080D03*
X79695040Y-150754080D03*
X79047340Y-150754080D03*
X78397100Y-150754080D03*
X77746860Y-150754080D03*
X83593940Y-145155920D03*
X82943700Y-145155920D03*
X82293460Y-145155920D03*
X81643220Y-145155920D03*
X80992980Y-145155920D03*
X80345280Y-145155920D03*
X79695040Y-145155920D03*
X79047340Y-145155920D03*
X78397100Y-145155920D03*
X77746860Y-145155920D03*
X112803940Y-151389080D03*
X112153700Y-151389080D03*
X111503460Y-151389080D03*
X110853220Y-151389080D03*
X110202980Y-151389080D03*
X109555280Y-151389080D03*
X108905040Y-151389080D03*
X108257340Y-151389080D03*
X107607100Y-151389080D03*
X106956860Y-151389080D03*
X112803940Y-145790920D03*
X112153700Y-145790920D03*
X111503460Y-145790920D03*
X110853220Y-145790920D03*
X110202980Y-145790920D03*
X109555280Y-145790920D03*
X108905040Y-145790920D03*
X108257340Y-145790920D03*
X107607100Y-145790920D03*
X106956860Y-145790920D03*
D20*
X144145000Y-93980000D03*
D21*
X141605000Y-93980000D03*
X144145000Y-91440000D03*
X141605000Y-91440000D03*
X144145000Y-88900000D03*
X141605000Y-88900000D03*
X144145000Y-86360000D03*
X141605000Y-86360000D03*
D20*
X141605000Y-100330000D03*
D21*
X144145000Y-100330000D03*
X141605000Y-102870000D03*
X144145000Y-102870000D03*
X141605000Y-105410000D03*
X144145000Y-105410000D03*
X141605000Y-107950000D03*
X144145000Y-107950000D03*
X141605000Y-110490000D03*
X144145000Y-110490000D03*
X141605000Y-113030000D03*
X144145000Y-113030000D03*
X141605000Y-115570000D03*
X144145000Y-115570000D03*
X141605000Y-118110000D03*
X144145000Y-118110000D03*
X141605000Y-120650000D03*
X144145000Y-120650000D03*
X141605000Y-123190000D03*
X144145000Y-123190000D03*
X141605000Y-125730000D03*
X144145000Y-125730000D03*
D33*
X64500760Y-77150000D03*
X64500760Y-75250000D03*
X62501780Y-76200000D03*
X64500760Y-80960000D03*
X64500760Y-79060000D03*
X62501780Y-80010000D03*
X64500760Y-84770000D03*
X64500760Y-82870000D03*
X62501780Y-83820000D03*
X64500760Y-88580000D03*
X64500760Y-86680000D03*
X62501780Y-87630000D03*
X64500760Y-92390000D03*
X64500760Y-90490000D03*
X62501780Y-91440000D03*
X64500760Y-96200000D03*
X64500760Y-94300000D03*
X62501780Y-95250000D03*
X64500760Y-100010000D03*
X64500760Y-98110000D03*
X62501780Y-99060000D03*
X64500760Y-103820000D03*
X64500760Y-101920000D03*
X62501780Y-102870000D03*
X64500760Y-107630000D03*
X64500760Y-105730000D03*
X62501780Y-106680000D03*
X64500760Y-111440000D03*
X64500760Y-109540000D03*
X62501780Y-110490000D03*
X64500760Y-115250000D03*
X64500760Y-113350000D03*
X62501780Y-114300000D03*
X64500760Y-119060000D03*
X64500760Y-117160000D03*
X62501780Y-118110000D03*
X64500760Y-122870000D03*
X64500760Y-120970000D03*
X62501780Y-121920000D03*
X64500760Y-126680000D03*
X64500760Y-124780000D03*
X62501780Y-125730000D03*
X64500760Y-130490000D03*
X64500760Y-128590000D03*
X62501780Y-129540000D03*
X64500760Y-134300000D03*
X64500760Y-132400000D03*
X62501780Y-133350000D03*
X64500760Y-138110000D03*
X64500760Y-136210000D03*
X62501780Y-137160000D03*
X64500760Y-141920000D03*
X64500760Y-140020000D03*
X62501780Y-140970000D03*
D23*
X55700000Y-95250000D03*
X58600000Y-95250000D03*
X67130000Y-99060000D03*
X70030000Y-99060000D03*
X55700000Y-99060000D03*
X58600000Y-99060000D03*
X67130000Y-102870000D03*
X70030000Y-102870000D03*
X55700000Y-102870000D03*
X58600000Y-102870000D03*
X67130000Y-106680000D03*
X70030000Y-106680000D03*
X55700000Y-106680000D03*
X58600000Y-106680000D03*
X67130000Y-110490000D03*
X70030000Y-110490000D03*
X55700000Y-110490000D03*
X58600000Y-110490000D03*
X67130000Y-114300000D03*
X70030000Y-114300000D03*
X55700000Y-114300000D03*
X58600000Y-114300000D03*
X67130000Y-118110000D03*
X70030000Y-118110000D03*
X55700000Y-118110000D03*
X58600000Y-118110000D03*
X67130000Y-121920000D03*
X70030000Y-121920000D03*
X55700000Y-121920000D03*
X58600000Y-121920000D03*
X67130000Y-125730000D03*
X70030000Y-125730000D03*
X55700000Y-125730000D03*
X58600000Y-125730000D03*
X67130000Y-129540000D03*
X70030000Y-129540000D03*
X55700000Y-129540000D03*
X58600000Y-129540000D03*
X67130000Y-133350000D03*
X70030000Y-133350000D03*
X55700000Y-133350000D03*
X58600000Y-133350000D03*
X67130000Y-137160000D03*
X70030000Y-137160000D03*
X55700000Y-137160000D03*
X58600000Y-137160000D03*
X67130000Y-140970000D03*
X70030000Y-140970000D03*
X55700000Y-140970000D03*
X58600000Y-140970000D03*
D27*
X101456000Y-43837000D03*
D18*
X132080000Y-163600000D03*
X132080000Y-166600000D03*
X128270000Y-163600000D03*
X128270000Y-166600000D03*
D16*
X120650000Y-160020000D03*
D17*
X123190000Y-160020000D03*
X125730000Y-160020000D03*
X128270000Y-160020000D03*
X130810000Y-160020000D03*
X133350000Y-160020000D03*
X135890000Y-160020000D03*
M02*
