G04 #@! TF.FileFunction,Copper,L2,Bot,Signal*
%FSLAX46Y46*%
G04 Gerber Fmt 4.6, Leading zero omitted, Abs format (unit mm)*
G04 Created by KiCad (PCBNEW (2015-08-16 BZR 6097)-product) date Monday 17. August 2015 13.28.47*
%MOMM*%
G01*
G04 APERTURE LIST*
%ADD10C,0.100000*%
%ADD11C,0.150000*%
%ADD12C,0.250000*%
%ADD13R,2.032000X1.727200*%
%ADD14O,2.032000X1.727200*%
%ADD15R,1.727200X2.032000*%
%ADD16O,1.727200X2.032000*%
%ADD17R,1.727200X1.727200*%
%ADD18O,1.727200X1.727200*%
%ADD19C,0.400000*%
%ADD20R,0.150000X0.150000*%
%ADD21C,1.000000*%
%ADD22C,1.500000*%
%ADD23C,2.200000*%
%ADD24R,0.250000X0.250000*%
%ADD25C,0.600000*%
%ADD26C,0.500000*%
%ADD27C,0.180000*%
%ADD28C,0.200000*%
%ADD29C,0.400000*%
%ADD30C,0.254000*%
G04 APERTURE END LIST*
D10*
D11*
X126928000Y-39787000D02*
X133168000Y-39787000D01*
X133168000Y-39787000D02*
X133168000Y-33837000D01*
X133168000Y-33837000D02*
X126628000Y-33837000D01*
X126628000Y-33837000D02*
X126628000Y-40077000D01*
X126628000Y-40077000D02*
X133468000Y-40077000D01*
X133468000Y-40077000D02*
X133468000Y-33537000D01*
X133468000Y-33537000D02*
X126328000Y-33537000D01*
X126328000Y-33537000D02*
X126328000Y-40377000D01*
X126328000Y-40377000D02*
X133768000Y-40377000D01*
X133768000Y-40377000D02*
X133768000Y-33237000D01*
X133768000Y-33237000D02*
X126028000Y-33237000D01*
X126028000Y-33237000D02*
X126028000Y-40677000D01*
X126028000Y-40677000D02*
X134068000Y-40677000D01*
X134068000Y-40677000D02*
X134068000Y-32937000D01*
X134068000Y-32937000D02*
X125728000Y-32937000D01*
X125728000Y-32937000D02*
X125728000Y-40977000D01*
X125728000Y-40977000D02*
X134368000Y-40977000D01*
X134368000Y-40977000D02*
X134368000Y-32637000D01*
X134368000Y-32637000D02*
X125428000Y-32637000D01*
X125428000Y-32637000D02*
X125428000Y-41277000D01*
X125428000Y-41277000D02*
X134668000Y-41277000D01*
X134668000Y-41277000D02*
X134668000Y-32337000D01*
X134668000Y-32337000D02*
X125128000Y-32337000D01*
X125128000Y-32337000D02*
X125128000Y-41577000D01*
X125128000Y-41577000D02*
X134968000Y-41577000D01*
X134968000Y-41577000D02*
X134968000Y-32037000D01*
X134968000Y-32037000D02*
X124828000Y-32037000D01*
X124828000Y-32037000D02*
X124828000Y-41577000D01*
D12*
X101456000Y-43837000D02*
X101456000Y-30077000D01*
X101456000Y-30077000D02*
X98196000Y-30077000D01*
X98196000Y-30077000D02*
X98196000Y-44337000D01*
X98196000Y-44337000D02*
X101956000Y-44337000D01*
X101956000Y-44337000D02*
X101956000Y-29577000D01*
X101956000Y-29577000D02*
X97696000Y-29577000D01*
X97696000Y-29577000D02*
X97696000Y-44837000D01*
X97696000Y-44837000D02*
X102456000Y-44837000D01*
X102456000Y-44837000D02*
X102456000Y-29077000D01*
X102456000Y-29077000D02*
X97196000Y-29077000D01*
X97196000Y-29077000D02*
X97196000Y-45337000D01*
X97196000Y-45337000D02*
X102956000Y-45337000D01*
X102956000Y-45337000D02*
X102956000Y-28577000D01*
X102956000Y-28577000D02*
X96696000Y-28577000D01*
X96696000Y-28577000D02*
X96696000Y-45837000D01*
X96696000Y-45837000D02*
X103456000Y-45837000D01*
X103456000Y-45837000D02*
X103456000Y-28077000D01*
X103456000Y-28077000D02*
X96196000Y-28077000D01*
X96196000Y-28077000D02*
X96196000Y-46337000D01*
X96196000Y-46337000D02*
X103956000Y-46337000D01*
X103956000Y-46337000D02*
X103956000Y-27577000D01*
X103956000Y-27577000D02*
X95696000Y-27577000D01*
X95696000Y-27577000D02*
X95696000Y-46837000D01*
X95696000Y-46837000D02*
X104456000Y-46837000D01*
X104456000Y-46837000D02*
X104456000Y-27077000D01*
X104456000Y-27077000D02*
X95196000Y-27077000D01*
X95196000Y-27077000D02*
X95196000Y-47337000D01*
X95196000Y-47337000D02*
X104456000Y-47337000D01*
D13*
X76200000Y-134620000D03*
D14*
X76200000Y-132080000D03*
X76200000Y-129540000D03*
X76200000Y-127000000D03*
X76200000Y-124460000D03*
X76200000Y-121920000D03*
X76200000Y-119380000D03*
X76200000Y-116840000D03*
X76200000Y-114300000D03*
X76200000Y-111760000D03*
X76200000Y-109220000D03*
X76200000Y-106680000D03*
X76200000Y-104140000D03*
X76200000Y-101600000D03*
X76200000Y-99060000D03*
X76200000Y-96520000D03*
X76200000Y-93980000D03*
X76200000Y-91440000D03*
X76200000Y-88900000D03*
D15*
X88900000Y-75565000D03*
D16*
X91440000Y-75565000D03*
X93980000Y-75565000D03*
X96520000Y-75565000D03*
X99060000Y-75565000D03*
X101600000Y-75565000D03*
D17*
X137160000Y-133985000D03*
D18*
X137160000Y-136525000D03*
X134620000Y-133985000D03*
X134620000Y-136525000D03*
X132080000Y-133985000D03*
X132080000Y-136525000D03*
X129540000Y-133985000D03*
X129540000Y-136525000D03*
X127000000Y-133985000D03*
X127000000Y-136525000D03*
X124460000Y-133985000D03*
X124460000Y-136525000D03*
X121920000Y-133985000D03*
X121920000Y-136525000D03*
X119380000Y-133985000D03*
X119380000Y-136525000D03*
X116840000Y-133985000D03*
X116840000Y-136525000D03*
X114300000Y-133985000D03*
X114300000Y-136525000D03*
X111760000Y-133985000D03*
X111760000Y-136525000D03*
X109220000Y-133985000D03*
X109220000Y-136525000D03*
X106680000Y-133985000D03*
X106680000Y-136525000D03*
X104140000Y-133985000D03*
X104140000Y-136525000D03*
X101600000Y-133985000D03*
X101600000Y-136525000D03*
X99060000Y-133985000D03*
X99060000Y-136525000D03*
X96520000Y-133985000D03*
X96520000Y-136525000D03*
X93980000Y-133985000D03*
X93980000Y-136525000D03*
X91440000Y-133985000D03*
X91440000Y-136525000D03*
X88900000Y-133985000D03*
X88900000Y-136525000D03*
X86360000Y-133985000D03*
X86360000Y-136525000D03*
D13*
X76200000Y-81280000D03*
D14*
X76200000Y-83820000D03*
X76200000Y-86360000D03*
D17*
X137160000Y-78740000D03*
D18*
X137160000Y-81280000D03*
X134620000Y-78740000D03*
X134620000Y-81280000D03*
X132080000Y-78740000D03*
X132080000Y-81280000D03*
X129540000Y-78740000D03*
X129540000Y-81280000D03*
X127000000Y-78740000D03*
X127000000Y-81280000D03*
X124460000Y-78740000D03*
X124460000Y-81280000D03*
X121920000Y-78740000D03*
X121920000Y-81280000D03*
X119380000Y-78740000D03*
X119380000Y-81280000D03*
D17*
X101600000Y-78105000D03*
D18*
X101600000Y-80645000D03*
X99060000Y-78105000D03*
X99060000Y-80645000D03*
X96520000Y-78105000D03*
X96520000Y-80645000D03*
X93980000Y-78105000D03*
X93980000Y-80645000D03*
X91440000Y-78105000D03*
X91440000Y-80645000D03*
X88900000Y-78105000D03*
X88900000Y-80645000D03*
D19*
X126928000Y-39787000D03*
D20*
X124828000Y-41577000D03*
D21*
X78200000Y-164980000D03*
X76600000Y-164980000D03*
X75000000Y-164980000D03*
X73400000Y-164980000D03*
X71800000Y-164980000D03*
X70200000Y-164980000D03*
X68600000Y-164980000D03*
X67000000Y-164980000D03*
X65400000Y-164980000D03*
X79800000Y-164980000D03*
X81400000Y-164980000D03*
X83000000Y-164980000D03*
X84600000Y-164980000D03*
X86200000Y-164980000D03*
X87800000Y-164980000D03*
X89400000Y-164980000D03*
X91000000Y-164980000D03*
X91800000Y-163830000D03*
X90200000Y-163830000D03*
X88600000Y-163830000D03*
X87000000Y-163830000D03*
X85400000Y-163830000D03*
X83800000Y-163830000D03*
X82200000Y-163830000D03*
X80600000Y-163830000D03*
X66200000Y-163830000D03*
X67800000Y-163830000D03*
X69400000Y-163830000D03*
X71000000Y-163830000D03*
X72600000Y-163830000D03*
X74200000Y-163830000D03*
X75800000Y-163830000D03*
X77400000Y-163830000D03*
X79000000Y-163830000D03*
X78600000Y-161480000D03*
X77000000Y-161480000D03*
X75400000Y-161480000D03*
X73800000Y-161480000D03*
X72200000Y-161480000D03*
X70600000Y-161480000D03*
X69000000Y-161480000D03*
X67400000Y-161480000D03*
X65800000Y-161480000D03*
X80200000Y-161480000D03*
X81800000Y-161480000D03*
X83400000Y-161480000D03*
X85000000Y-161480000D03*
X86600000Y-161480000D03*
X88200000Y-161480000D03*
X89800000Y-161480000D03*
X91400000Y-161480000D03*
X90600000Y-162630000D03*
X89000000Y-162630000D03*
X87400000Y-162630000D03*
X85800000Y-162630000D03*
X84200000Y-162630000D03*
X82600000Y-162630000D03*
X81000000Y-162630000D03*
X79400000Y-162630000D03*
X65000000Y-162630000D03*
X66600000Y-162630000D03*
X68200000Y-162630000D03*
X69800000Y-162630000D03*
X71400000Y-162630000D03*
X73000000Y-162630000D03*
X74600000Y-162630000D03*
X76200000Y-162630000D03*
X77800000Y-162630000D03*
D22*
X62230000Y-163830000D03*
D23*
X57460000Y-166450000D03*
X99360000Y-166450000D03*
D22*
X94580000Y-163830000D03*
D17*
X144145000Y-93980000D03*
D18*
X141605000Y-93980000D03*
X144145000Y-91440000D03*
X141605000Y-91440000D03*
X144145000Y-88900000D03*
X141605000Y-88900000D03*
X144145000Y-86360000D03*
X141605000Y-86360000D03*
D17*
X141605000Y-100330000D03*
D18*
X144145000Y-100330000D03*
X141605000Y-102870000D03*
X144145000Y-102870000D03*
X141605000Y-105410000D03*
X144145000Y-105410000D03*
X141605000Y-107950000D03*
X144145000Y-107950000D03*
X141605000Y-110490000D03*
X144145000Y-110490000D03*
X141605000Y-113030000D03*
X144145000Y-113030000D03*
X141605000Y-115570000D03*
X144145000Y-115570000D03*
X141605000Y-118110000D03*
X144145000Y-118110000D03*
X141605000Y-120650000D03*
X144145000Y-120650000D03*
X141605000Y-123190000D03*
X144145000Y-123190000D03*
X141605000Y-125730000D03*
X144145000Y-125730000D03*
D19*
X101456000Y-43837000D03*
D24*
X104456000Y-47337000D03*
D15*
X120650000Y-160020000D03*
D16*
X123190000Y-160020000D03*
X125730000Y-160020000D03*
X128270000Y-160020000D03*
X130810000Y-160020000D03*
X133350000Y-160020000D03*
X135890000Y-160020000D03*
D21*
X163830000Y-166878000D03*
X168656000Y-156337000D03*
X172466000Y-156210000D03*
X144526000Y-167640000D03*
X140716000Y-167640000D03*
X136906000Y-167640000D03*
X119507000Y-144526000D03*
X93980000Y-84479040D03*
X100385108Y-84479040D03*
X104141937Y-84352040D03*
X80818034Y-160451379D03*
X106680000Y-130227961D03*
X63111842Y-139688742D03*
X92218800Y-119060400D03*
X121943200Y-122725900D03*
X124258700Y-94394900D03*
X100828800Y-94200500D03*
X96837500Y-94227500D03*
X107950000Y-84328000D03*
X86606606Y-116699820D03*
X120650000Y-167640000D03*
X124460000Y-167640000D03*
X128270000Y-167640000D03*
X132080000Y-167640000D03*
X63386000Y-135945600D03*
X63349100Y-132098700D03*
X63342800Y-128322000D03*
X63344900Y-124474500D03*
X63358400Y-120608200D03*
X63358400Y-116633200D03*
X63358400Y-112658200D03*
X63431400Y-108756300D03*
X65382500Y-106672000D03*
X63610600Y-100991800D03*
X63306800Y-98059900D03*
X63306800Y-94167400D03*
X63389300Y-90228900D03*
X63352800Y-86382400D03*
X63365300Y-82584900D03*
X63349600Y-78759200D03*
X63358400Y-74895700D03*
X113673400Y-145933600D03*
X84488300Y-146050300D03*
X173922300Y-122303700D03*
X172568000Y-100333300D03*
X86995000Y-142712700D03*
X99825900Y-130384100D03*
X116246400Y-129973700D03*
X156210000Y-146306600D03*
X160453800Y-146275100D03*
X166658000Y-80827900D03*
X164428800Y-146275100D03*
X166658000Y-84802900D03*
X168403800Y-146275100D03*
X166631900Y-88612200D03*
X171450000Y-146305100D03*
X166662900Y-92453200D03*
X96520000Y-130409100D03*
X132266100Y-102594200D03*
X132293500Y-98756800D03*
X122602300Y-130352200D03*
X84242000Y-120982300D03*
X132245300Y-94862200D03*
D25*
X84709000Y-87757000D03*
D21*
X112141000Y-157226006D03*
X112153699Y-147079262D03*
D25*
X135890000Y-143637000D03*
X139827000Y-144145000D03*
X139223621Y-143500020D03*
X112141000Y-142875000D03*
X113157000Y-142240006D03*
X114300000Y-141605000D03*
D19*
X80781801Y-124445799D03*
D25*
X72429300Y-103499500D03*
D19*
X79287400Y-115816600D03*
X79695000Y-149655000D03*
X89154000Y-144653000D03*
X112395000Y-80010004D03*
X79121000Y-143891002D03*
X78664990Y-142920190D03*
X77724000Y-144018000D03*
X78087980Y-124072175D03*
X142367000Y-140589000D03*
X141732000Y-140081000D03*
D25*
X140970000Y-139700000D03*
D19*
X140335000Y-139192000D03*
D21*
X91694000Y-91948000D03*
X96266000Y-96520000D03*
D25*
X120986600Y-124784300D03*
X125373600Y-127571400D03*
D21*
X62103000Y-42545000D03*
X62357000Y-49403000D03*
D25*
X161544002Y-41529000D03*
D21*
X165100000Y-50419000D03*
X149479000Y-73279000D03*
X111252000Y-75946000D03*
X108712000Y-71247000D03*
X105664000Y-51308000D03*
D25*
X130836800Y-73334700D03*
X84840000Y-151779600D03*
X85833800Y-148128500D03*
X113919000Y-152781000D03*
X116840000Y-148463000D03*
X82296000Y-146558000D03*
X81661000Y-143509990D03*
X82931000Y-141732004D03*
X82296000Y-140970000D03*
X90774980Y-158050051D03*
X92710000Y-144119100D03*
D26*
X125730000Y-160020000D02*
X125730000Y-159867600D01*
X138473601Y-147123999D02*
X138473601Y-135298601D01*
X125730000Y-159867600D02*
X138473601Y-147123999D01*
X138473601Y-135298601D02*
X137160000Y-133985000D01*
D27*
X66200000Y-163830000D02*
X66630798Y-163830000D01*
X66630798Y-163830000D02*
X67830798Y-162630000D01*
X67830798Y-162630000D02*
X68200000Y-162630000D01*
D26*
X90049999Y-165930001D02*
X88551723Y-165930001D01*
X88551723Y-165930001D02*
X87150001Y-165930001D01*
D27*
X88600000Y-163830000D02*
X88600000Y-165881724D01*
X88600000Y-165881724D02*
X88551723Y-165930001D01*
D26*
X87056001Y-160529999D02*
X85698262Y-160529999D01*
X85698262Y-160529999D02*
X84350001Y-160529999D01*
D27*
X85800000Y-160631737D02*
X85698262Y-160529999D01*
X85800000Y-162630000D02*
X85800000Y-160631737D01*
X83800000Y-163830000D02*
X83400000Y-163430000D01*
X83400000Y-163430000D02*
X83400000Y-161480000D01*
D26*
X85249999Y-165930001D02*
X83719249Y-165930001D01*
X83719249Y-165930001D02*
X82350001Y-165930001D01*
D27*
X83800000Y-163830000D02*
X83800000Y-165849250D01*
X83800000Y-165849250D02*
X83719249Y-165930001D01*
D26*
X80110928Y-160451379D02*
X80818034Y-160451379D01*
X76428621Y-160451379D02*
X80110928Y-160451379D01*
X75400000Y-161480000D02*
X76428621Y-160451379D01*
X83899999Y-160980001D02*
X83400000Y-161480000D01*
X84350001Y-160529999D02*
X83899999Y-160980001D01*
X88200000Y-161480000D02*
X88006002Y-161480000D01*
X88006002Y-161480000D02*
X87056001Y-160529999D01*
X88699999Y-160980001D02*
X88200000Y-161480000D01*
X91656002Y-162630000D02*
X92350001Y-161936001D01*
X91856001Y-160529999D02*
X89343999Y-160529999D01*
X90600000Y-162630000D02*
X91656002Y-162630000D01*
X92350001Y-161936001D02*
X92350001Y-161023999D01*
X89343999Y-160529999D02*
X88893997Y-160980001D01*
X92350001Y-161023999D02*
X91856001Y-160529999D01*
X88893997Y-160980001D02*
X88699999Y-160980001D01*
X86200000Y-164980000D02*
X85249999Y-165930001D01*
X82350001Y-165930001D02*
X81899999Y-165479999D01*
X81899999Y-165479999D02*
X81400000Y-164980000D01*
X91000000Y-164980000D02*
X90049999Y-165930001D01*
X87150001Y-165930001D02*
X86699999Y-165479999D01*
X86699999Y-165479999D02*
X86200000Y-164980000D01*
X90600000Y-162630000D02*
X92006002Y-162630000D01*
X92750001Y-164286001D02*
X92056002Y-164980000D01*
X92006002Y-162630000D02*
X92750001Y-163373999D01*
X92750001Y-163373999D02*
X92750001Y-164286001D01*
X92056002Y-164980000D02*
X91707106Y-164980000D01*
X91707106Y-164980000D02*
X91000000Y-164980000D01*
D27*
X88600000Y-163830000D02*
X89030798Y-163830000D01*
X89030798Y-163830000D02*
X90230798Y-162630000D01*
X90230798Y-162630000D02*
X90600000Y-162630000D01*
X88600000Y-163830000D02*
X88200000Y-163430000D01*
X88200000Y-163430000D02*
X88200000Y-161480000D01*
X85800000Y-162630000D02*
X86200000Y-163030000D01*
X86200000Y-163030000D02*
X86200000Y-164980000D01*
X83800000Y-163830000D02*
X84169202Y-163830000D01*
X84169202Y-163830000D02*
X85369202Y-162630000D01*
X85369202Y-162630000D02*
X85800000Y-162630000D01*
D12*
X121539000Y-75819000D02*
X123596401Y-77876401D01*
X108262580Y-82617010D02*
X115060590Y-75819000D01*
X123596401Y-77876401D02*
X124460000Y-78740000D01*
X84709000Y-87757000D02*
X89848990Y-82617010D01*
X115060590Y-75819000D02*
X121539000Y-75819000D01*
X89848990Y-82617010D02*
X108262580Y-82617010D01*
D26*
X91440000Y-137746314D02*
X91440000Y-136525000D01*
X91440000Y-138016002D02*
X91440000Y-137746314D01*
X88634001Y-138799001D02*
X90657001Y-138799001D01*
X90657001Y-138799001D02*
X91440000Y-138016002D01*
X86360000Y-136525000D02*
X88634001Y-138799001D01*
X112153699Y-157213307D02*
X112141000Y-157226006D01*
X112153699Y-147079262D02*
X112153699Y-157213307D01*
X117376848Y-146914300D02*
X112174421Y-146914300D01*
X117376848Y-146914300D02*
X117376848Y-143608152D01*
X117376848Y-143608152D02*
X124460000Y-136525000D01*
X112174421Y-146914300D02*
X112174421Y-147058540D01*
X112174421Y-147058540D02*
X112153699Y-147079262D01*
X112174421Y-146914300D02*
X105595400Y-146914300D01*
X95155900Y-137889100D02*
X96520000Y-136525000D01*
X92804100Y-137889100D02*
X95155900Y-137889100D01*
X91440000Y-136525000D02*
X92804100Y-137889100D01*
X96520000Y-136525000D02*
X96520000Y-137838900D01*
X105595400Y-146914300D02*
X96520000Y-137838900D01*
D12*
X142793601Y-92154989D02*
X142793601Y-87711399D01*
X143281401Y-87223599D02*
X144145000Y-86360000D01*
X135693990Y-97952064D02*
X140858971Y-92787083D01*
X140858971Y-92787083D02*
X142161507Y-92787083D01*
X135890000Y-143637000D02*
X135890000Y-128652410D01*
X135890000Y-128652410D02*
X135693990Y-128456400D01*
X142793601Y-87711399D02*
X143281401Y-87223599D01*
X135693990Y-128456400D02*
X135693990Y-97952064D01*
X142161507Y-92787083D02*
X142793601Y-92154989D01*
X139872999Y-143107376D02*
X139872999Y-143845001D01*
X139573000Y-142807377D02*
X139872999Y-143107376D01*
X139573000Y-130795739D02*
X139573000Y-142807377D01*
X136652000Y-127874739D02*
X139573000Y-130795739D01*
X136652000Y-100711000D02*
X136652000Y-103997994D01*
X136652000Y-103997994D02*
X136634995Y-104014999D01*
X136652000Y-104663002D02*
X136652000Y-127874739D01*
X142956399Y-94406601D02*
X136652000Y-100711000D01*
X144145000Y-91440000D02*
X142956399Y-92628601D01*
X136634995Y-104645997D02*
X136652000Y-104663002D01*
X136634995Y-104014999D02*
X136634995Y-104645997D01*
X139872999Y-143845001D02*
X139827000Y-144145000D01*
X142956399Y-92628601D02*
X142956399Y-94406601D01*
X139053020Y-143329419D02*
X139223621Y-143500020D01*
X139053020Y-131179020D02*
X139053020Y-143329419D01*
X136144000Y-128270000D02*
X139053020Y-131179020D01*
X136144000Y-99441000D02*
X136144000Y-128270000D01*
X141605000Y-93980000D02*
X136144000Y-99441000D01*
X111716736Y-142875000D02*
X112141000Y-142875000D01*
X106259400Y-142875000D02*
X111716736Y-142875000D01*
X100248900Y-136864500D02*
X106259400Y-142875000D01*
X100248900Y-135173900D02*
X100248900Y-136864500D01*
X99060000Y-133985000D02*
X100248900Y-135173900D01*
X112732736Y-142240006D02*
X113157000Y-142240006D01*
X105328900Y-135173900D02*
X105328900Y-136965100D01*
X104140000Y-133985000D02*
X105328900Y-135173900D01*
X110603806Y-142240006D02*
X112732736Y-142240006D01*
X105328900Y-136965100D02*
X110603806Y-142240006D01*
X114000001Y-141305001D02*
X114300000Y-141605000D01*
X110470173Y-137775173D02*
X114000001Y-141305001D01*
X111760000Y-133985000D02*
X110470173Y-135274827D01*
X110470173Y-135274827D02*
X110470173Y-137775173D01*
X72642590Y-165354000D02*
X72644000Y-165354000D01*
X58858991Y-165667401D02*
X61535600Y-168344010D01*
X61535600Y-168344010D02*
X69652580Y-168344010D01*
X67621990Y-95644110D02*
X67621990Y-150943600D01*
X73177200Y-90088900D02*
X67621990Y-95644110D01*
X74858700Y-90088900D02*
X73177200Y-90088900D01*
X76200000Y-88900000D02*
X76047600Y-88900000D01*
X67621990Y-150943600D02*
X58858990Y-159706600D01*
X58858990Y-159706600D02*
X58858991Y-165667401D01*
X76047600Y-88900000D02*
X74858700Y-90088900D01*
X69652580Y-168344010D02*
X72642590Y-165354000D01*
D27*
X72600000Y-163830000D02*
X72600000Y-165310000D01*
X72600000Y-165310000D02*
X72644000Y-165354000D01*
D12*
X81800000Y-161007751D02*
X81800000Y-161480000D01*
X82856761Y-159950990D02*
X81800000Y-161007751D01*
X83925424Y-159504980D02*
X83479414Y-159950990D01*
X92280577Y-159504979D02*
X83925424Y-159504980D01*
X92726588Y-159950990D02*
X92280577Y-159504979D01*
X130759700Y-143560300D02*
X114369010Y-159950990D01*
X134702000Y-127405500D02*
X130759700Y-131347800D01*
X130759700Y-131347800D02*
X130759700Y-143560300D01*
X134702000Y-95803000D02*
X134702000Y-127405500D01*
X141605000Y-88900000D02*
X134702000Y-95803000D01*
X83479414Y-159950990D02*
X82856761Y-159950990D01*
X114369010Y-159950990D02*
X92726588Y-159950990D01*
X142842300Y-86809500D02*
X142021800Y-87630000D01*
X144145000Y-88900000D02*
X145378800Y-87666200D01*
X145378800Y-87666200D02*
X145378800Y-85896900D01*
X145378800Y-85896900D02*
X144603700Y-85121800D01*
X144603700Y-85121800D02*
X143645100Y-85121800D01*
X134239000Y-94505600D02*
X134239000Y-125222000D01*
X128283134Y-131177866D02*
X128270000Y-131177866D01*
X143645100Y-85121800D02*
X142842300Y-85924600D01*
X142842300Y-85924600D02*
X142842300Y-86809500D01*
X142021800Y-87630000D02*
X141114600Y-87630000D01*
X141114600Y-87630000D02*
X134239000Y-94505600D01*
X134239000Y-125222000D02*
X128283134Y-131177866D01*
X92912988Y-159500980D02*
X92466976Y-159054970D01*
X128270000Y-131177866D02*
X128270000Y-145161000D01*
X76084020Y-159500980D02*
X74676000Y-160909000D01*
X113930020Y-159500980D02*
X92912988Y-159500980D01*
X128270000Y-145161000D02*
X113930020Y-159500980D01*
X92466976Y-159054970D02*
X83739023Y-159054971D01*
X83739023Y-159054971D02*
X83293014Y-159500980D01*
X83293014Y-159500980D02*
X76084020Y-159500980D01*
D27*
X74600000Y-162630000D02*
X74600000Y-160985000D01*
X74600000Y-160985000D02*
X74676000Y-160909000D01*
D12*
X133350000Y-142240000D02*
X133223000Y-142240000D01*
X115062000Y-160401000D02*
X92540188Y-160401000D01*
X133223000Y-142240000D02*
X115062000Y-160401000D01*
X92540188Y-160401000D02*
X92094177Y-159954989D01*
X92094177Y-159954989D02*
X84111825Y-159954989D01*
X84111825Y-159954989D02*
X83665814Y-160401000D01*
X83665814Y-160401000D02*
X83058000Y-160401000D01*
X83058000Y-160401000D02*
X82550000Y-160909000D01*
D27*
X82600000Y-162630000D02*
X82600000Y-160959000D01*
X82600000Y-160959000D02*
X82550000Y-160909000D01*
X135227300Y-99995400D02*
X135227300Y-130155600D01*
X135227300Y-130155600D02*
X133350000Y-132032900D01*
X133350000Y-132032900D02*
X133350000Y-142240000D01*
D28*
X135227300Y-99995400D02*
X135227300Y-97817700D01*
X135227300Y-97817700D02*
X141605000Y-91440000D01*
D12*
X80581802Y-138737840D02*
X80640041Y-138679601D01*
X80640041Y-138679601D02*
X80640041Y-124870401D01*
X73800000Y-160772894D02*
X78359000Y-156213894D01*
X80581802Y-146256610D02*
X80581802Y-138737840D01*
X78359000Y-156213894D02*
X78359000Y-148479412D01*
X78359000Y-148479412D02*
X80581802Y-146256610D01*
X80781801Y-124728641D02*
X80781801Y-124445799D01*
X80640041Y-124870401D02*
X80781801Y-124728641D01*
X73800000Y-161480000D02*
X73800000Y-160772894D01*
X76200000Y-109220000D02*
X76047600Y-109220000D01*
X76047600Y-109220000D02*
X73209990Y-112057610D01*
X73209990Y-112057610D02*
X73209990Y-152849008D01*
X73209990Y-152849008D02*
X64500001Y-161558997D01*
X64500001Y-162130001D02*
X65000000Y-162630000D01*
X64500001Y-161558997D02*
X64500001Y-162130001D01*
X64902400Y-162532400D02*
X65000000Y-162630000D01*
X63522040Y-161399190D02*
X67390030Y-157531200D01*
X66221002Y-162630000D02*
X65396001Y-163455001D01*
X67390030Y-157399970D02*
X72200000Y-152590000D01*
X64603999Y-163455001D02*
X64205021Y-163056023D01*
X63522040Y-162258218D02*
X63522040Y-161399190D01*
X65396001Y-163455001D02*
X64603999Y-163455001D01*
X67390030Y-157531200D02*
X67390030Y-157399970D01*
X72200000Y-152590000D02*
X72200000Y-110527600D01*
X64205021Y-162941199D02*
X63522040Y-162258218D01*
X66600000Y-162630000D02*
X66221002Y-162630000D01*
X64205021Y-163056023D02*
X64205021Y-162941199D01*
X72200000Y-110527600D02*
X76047600Y-106680000D01*
X76047600Y-106680000D02*
X76200000Y-106680000D01*
D28*
X66200000Y-162630000D02*
X66600000Y-162630000D01*
D12*
X72129301Y-103799499D02*
X72429300Y-103499500D01*
X63511020Y-158995800D02*
X63511020Y-158867390D01*
X67818000Y-165354000D02*
X66871010Y-166300990D01*
X62172010Y-162296988D02*
X62172010Y-160334810D01*
X63511020Y-158867390D02*
X70231000Y-152147410D01*
X70231000Y-152147410D02*
X70231000Y-105697800D01*
X66871010Y-166300990D02*
X63178400Y-166300990D01*
X61154999Y-163313999D02*
X62172010Y-162296988D01*
X63178400Y-166300990D02*
X61154999Y-164277589D01*
X61154999Y-164277589D02*
X61154999Y-163313999D01*
X70231000Y-105697800D02*
X72129301Y-103799499D01*
X62172010Y-160334810D02*
X63511020Y-158995800D01*
D27*
X67800000Y-163830000D02*
X67800000Y-165336000D01*
X67800000Y-165336000D02*
X67818000Y-165354000D01*
D12*
X76200000Y-99060000D02*
X76200000Y-100248900D01*
X75679900Y-100248900D02*
X72429300Y-103499500D01*
X76200000Y-100248900D02*
X75679900Y-100248900D01*
X67967040Y-166855960D02*
X69342000Y-165481000D01*
X60775010Y-160839990D02*
X60775010Y-163057578D01*
X76047600Y-96520000D02*
X69226019Y-103341581D01*
X62500400Y-166855960D02*
X67967040Y-166855960D01*
X76200000Y-96520000D02*
X76047600Y-96520000D01*
X69226019Y-103341581D02*
X69226019Y-126864801D01*
X60775010Y-163057578D02*
X60704989Y-163127599D01*
X69141500Y-152473500D02*
X60775010Y-160839990D01*
X69141500Y-126949320D02*
X69141500Y-152473500D01*
X69226019Y-126864801D02*
X69141500Y-126949320D01*
X60704989Y-163127599D02*
X60704989Y-165060549D01*
X60704989Y-165060549D02*
X62500400Y-166855960D01*
D27*
X69400000Y-163830000D02*
X69400000Y-165423000D01*
X69400000Y-165423000D02*
X69342000Y-165481000D01*
D12*
X74676000Y-153010390D02*
X74676000Y-136197012D01*
X74676000Y-136197012D02*
X74408980Y-135929992D01*
X74408980Y-135929992D02*
X74408980Y-115938620D01*
X74408980Y-115938620D02*
X76047600Y-114300000D01*
X76047600Y-114300000D02*
X76200000Y-114300000D01*
X69000000Y-161480000D02*
X69000000Y-160772894D01*
X69000000Y-160772894D02*
X74676000Y-155096894D01*
X74676000Y-155096894D02*
X74676000Y-153035000D01*
X76200000Y-121920000D02*
X76352400Y-121920000D01*
X76352400Y-121920000D02*
X77541001Y-123108601D01*
X77541001Y-123108601D02*
X77541001Y-143367943D01*
X77541001Y-143367943D02*
X76690999Y-144217945D01*
X76690999Y-144217945D02*
X76690999Y-155771001D01*
X76690999Y-155771001D02*
X71400000Y-161062000D01*
D27*
X71400000Y-162630000D02*
X71400000Y-161062000D01*
D12*
X75946000Y-136830602D02*
X75946000Y-139000700D01*
X76200000Y-120086652D02*
X74858990Y-121427662D01*
X76200000Y-119380000D02*
X76200000Y-120086652D01*
X74858990Y-121427662D02*
X74858990Y-133496390D01*
X74858990Y-133496390D02*
X74858999Y-133496399D01*
X74858999Y-133496399D02*
X74858999Y-135743601D01*
X74858999Y-135743601D02*
X75946000Y-136830602D01*
X69800000Y-160959000D02*
X70104001Y-160654999D01*
X70104001Y-160654999D02*
X70734001Y-160654999D01*
X70734001Y-160654999D02*
X75946000Y-155443000D01*
X75946000Y-155443000D02*
X75946000Y-154813000D01*
D27*
X75946000Y-139000700D02*
X75946000Y-154813000D01*
X69800000Y-160959000D02*
X69850000Y-160909000D01*
X69800000Y-162630000D02*
X69800000Y-160959000D01*
D12*
X79487399Y-116016599D02*
X79287400Y-115816600D01*
X77908990Y-148293012D02*
X79940990Y-146261012D01*
X80190031Y-138493201D02*
X80190031Y-124601554D01*
X79940990Y-138742242D02*
X80190031Y-138493201D01*
X80190031Y-124601554D02*
X80137000Y-124548523D01*
X80137000Y-116666200D02*
X79487399Y-116016599D01*
X79940990Y-146261012D02*
X79940990Y-138742242D01*
X77908990Y-155771010D02*
X77908990Y-148293012D01*
X72200000Y-161480000D02*
X77908990Y-155771010D01*
X80137000Y-124548523D02*
X80137000Y-116666200D01*
X76200000Y-91440000D02*
X76047600Y-91440000D01*
X76047600Y-91440000D02*
X74696210Y-92791390D01*
X74696210Y-92791390D02*
X71673610Y-92791390D01*
X71673610Y-92791390D02*
X68072000Y-96393000D01*
X68072000Y-96393000D02*
X68072000Y-151257000D01*
X59309000Y-165481000D02*
X61722000Y-167894000D01*
X68072000Y-151257000D02*
X59309000Y-160020000D01*
X59309000Y-160020000D02*
X59309000Y-165481000D01*
X61722000Y-167894000D02*
X68886000Y-167894000D01*
X68886000Y-167894000D02*
X71800000Y-164980000D01*
X63940401Y-156533009D02*
X63938991Y-156533009D01*
X68522010Y-101505590D02*
X68522009Y-151951401D01*
X76200000Y-93980000D02*
X76047600Y-93980000D01*
X70200000Y-165687106D02*
X70200000Y-164980000D01*
X68522009Y-151951401D02*
X63940401Y-156533009D01*
X76047600Y-93980000D02*
X68522010Y-101505590D01*
X63938991Y-156533009D02*
X59944000Y-160528000D01*
X68443116Y-167443990D02*
X70200000Y-165687106D01*
X59944000Y-164971590D02*
X62416400Y-167443990D01*
X59944000Y-160528000D02*
X59944000Y-164971590D01*
X62416400Y-167443990D02*
X68443116Y-167443990D01*
X65982010Y-157156990D02*
X65982010Y-157539400D01*
X66174999Y-165805001D02*
X66500001Y-165479999D01*
X66500001Y-165479999D02*
X67000000Y-164980000D01*
X62622020Y-162631018D02*
X63305001Y-163313999D01*
X65003999Y-165805001D02*
X66174999Y-165805001D01*
X62622020Y-160899390D02*
X62622020Y-162631018D01*
X63305001Y-164106003D02*
X65003999Y-165805001D01*
X70988300Y-152150700D02*
X65982010Y-157156990D01*
X65982010Y-157539400D02*
X62622020Y-160899390D01*
X63305001Y-163313999D02*
X63305001Y-164106003D01*
X70988300Y-150744300D02*
X70988300Y-152150700D01*
D27*
X76200000Y-101600000D02*
X76200000Y-102753900D01*
X76200000Y-102753900D02*
X75767300Y-102753900D01*
X75767300Y-102753900D02*
X70988300Y-107532900D01*
X70988300Y-107532900D02*
X70988300Y-150744300D01*
D12*
X63755011Y-163127599D02*
X63755011Y-163335011D01*
X63072030Y-161212790D02*
X63072030Y-162444618D01*
X63755011Y-163335011D02*
X64900001Y-164480001D01*
X66940020Y-157344800D02*
X63072030Y-161212790D01*
X66940020Y-156960980D02*
X66940020Y-157344800D01*
X71529100Y-152371900D02*
X66940020Y-156960980D01*
X64900001Y-164480001D02*
X65400000Y-164980000D01*
X71529100Y-150523100D02*
X71529100Y-152371900D01*
X63072030Y-162444618D02*
X63755011Y-163127599D01*
D27*
X76200000Y-104140000D02*
X76200000Y-105293900D01*
X76200000Y-105293900D02*
X75767300Y-105293900D01*
X75767300Y-105293900D02*
X71529100Y-109532100D01*
X71529100Y-109532100D02*
X71529100Y-150523100D01*
D12*
X76200000Y-111760000D02*
X76047600Y-111760000D01*
X76047600Y-111760000D02*
X74295000Y-113512600D01*
X74295000Y-113512600D02*
X74295000Y-113538000D01*
X74295000Y-113538000D02*
X73958979Y-113874021D01*
X73958979Y-113874021D02*
X73958979Y-136116401D01*
X73958979Y-136116401D02*
X74041000Y-136198422D01*
X74041000Y-136198422D02*
X74041000Y-153797000D01*
X74041000Y-153797000D02*
X67899999Y-159938001D01*
X67899999Y-159938001D02*
X67899999Y-160980001D01*
X67899999Y-160980001D02*
X67400000Y-161480000D01*
D28*
X83251623Y-149605802D02*
X88204425Y-144653000D01*
D12*
X79695000Y-149655000D02*
X79977842Y-149655000D01*
X79977842Y-149655000D02*
X80027040Y-149605802D01*
X80027040Y-149605802D02*
X83251623Y-149605802D01*
D28*
X88871158Y-144653000D02*
X89154000Y-144653000D01*
X88204425Y-144653000D02*
X88871158Y-144653000D01*
X93365051Y-83512003D02*
X108893001Y-83512003D01*
X79320999Y-119582799D02*
X78540001Y-118801801D01*
X112195001Y-80210003D02*
X112395000Y-80010004D01*
X108893001Y-83512003D02*
X112195001Y-80210003D01*
X78540001Y-118801801D02*
X78540001Y-98337053D01*
X79121000Y-143891002D02*
X79320999Y-143691003D01*
X78540001Y-98337053D02*
X93365051Y-83512003D01*
X79320999Y-143691003D02*
X79320999Y-119582799D01*
D12*
X78740000Y-142845180D02*
X78664990Y-142920190D01*
X78740000Y-122809000D02*
X78740000Y-142845180D01*
X78105000Y-122174000D02*
X78740000Y-122809000D01*
X78105000Y-98171000D02*
X78105000Y-122174000D01*
X93208980Y-83067020D02*
X78105000Y-98171000D01*
X108448980Y-83067020D02*
X93208980Y-83067020D01*
X123235601Y-79928601D02*
X123235601Y-78296471D01*
X137160000Y-78740000D02*
X137160000Y-79853600D01*
X123235601Y-78296471D02*
X121208140Y-76269010D01*
X115246990Y-76269010D02*
X108448980Y-83067020D01*
X121208140Y-76269010D02*
X115246990Y-76269010D01*
X137160000Y-79853600D02*
X137084999Y-79928601D01*
X137084999Y-79928601D02*
X123235601Y-79928601D01*
D28*
X77923999Y-143818001D02*
X77724000Y-144018000D01*
X78087980Y-143654020D02*
X77923999Y-143818001D01*
X78087980Y-124072175D02*
X78087980Y-143654020D01*
D12*
X138828020Y-108386880D02*
X138828020Y-126890020D01*
X138828020Y-108386880D02*
X139264900Y-107950000D01*
X139264900Y-107950000D02*
X141605000Y-107950000D01*
X142367000Y-140306158D02*
X142367000Y-140589000D01*
X138828020Y-126890020D02*
X142367000Y-130429000D01*
X142367000Y-130429000D02*
X142367000Y-140306158D01*
X141732000Y-140081000D02*
X141732000Y-130556000D01*
X138303000Y-127127000D02*
X138303000Y-107228640D01*
X143281401Y-106273599D02*
X144145000Y-105410000D01*
X141732000Y-130556000D02*
X138303000Y-127127000D01*
X138303000Y-107228640D02*
X138851640Y-106680000D01*
X138851640Y-106680000D02*
X142875000Y-106680000D01*
X142875000Y-106680000D02*
X143281401Y-106273599D01*
X137795000Y-106045000D02*
X138430000Y-105410000D01*
X138430000Y-105410000D02*
X141605000Y-105410000D01*
X137795000Y-127381000D02*
X137795000Y-106045000D01*
X140970000Y-139700000D02*
X140970000Y-130556000D01*
X137795000Y-127381000D02*
X140970000Y-130556000D01*
X140335000Y-139192000D02*
X140335000Y-130557410D01*
X140335000Y-130557410D02*
X137160000Y-127382410D01*
X137160000Y-127382410D02*
X137160000Y-104521000D01*
X137160000Y-104521000D02*
X137541000Y-104140000D01*
X137541000Y-104140000D02*
X142875000Y-104140000D01*
X142875000Y-104140000D02*
X143281401Y-103733599D01*
X143281401Y-103733599D02*
X144145000Y-102870000D01*
D26*
X96266000Y-96520000D02*
X91694000Y-91948000D01*
D12*
X122586500Y-124784300D02*
X125373600Y-127571400D01*
X120986600Y-124784300D02*
X122586500Y-124784300D01*
D26*
X62357000Y-49403000D02*
X62357000Y-42799000D01*
X62357000Y-42799000D02*
X62103000Y-42545000D01*
X161544002Y-41953264D02*
X161544002Y-41529000D01*
X161544002Y-46863002D02*
X161544002Y-41953264D01*
X165100000Y-50419000D02*
X161544002Y-46863002D01*
X91440000Y-80645000D02*
X92837000Y-82042000D01*
X148979001Y-72779001D02*
X149479000Y-73279000D01*
X92837000Y-82042000D02*
X108024404Y-82042000D01*
X108024404Y-82042000D02*
X119454404Y-70612000D01*
X119454404Y-70612000D02*
X146812000Y-70612000D01*
X146812000Y-70612000D02*
X148979001Y-72779001D01*
X114300000Y-51181000D02*
X122936000Y-42545000D01*
X122936000Y-42545000D02*
X123825000Y-42545000D01*
X114300000Y-71247000D02*
X114300000Y-51181000D01*
X111252000Y-74295000D02*
X114300000Y-71247000D01*
X111252000Y-75946000D02*
X111252000Y-74295000D01*
D28*
X124135000Y-42545000D02*
X123825000Y-42545000D01*
X124828000Y-41577000D02*
X124828000Y-41852000D01*
X124828000Y-41852000D02*
X124135000Y-42545000D01*
D29*
X93980000Y-78105000D02*
X95243601Y-79368601D01*
X95243601Y-79368601D02*
X107829399Y-79368601D01*
X107829399Y-79368601D02*
X111252000Y-75946000D01*
X91440000Y-75565000D02*
X91440000Y-75412600D01*
X91440000Y-75412600D02*
X95605600Y-71247000D01*
X95605600Y-71247000D02*
X108712000Y-71247000D01*
D12*
X104456000Y-47337000D02*
X105156000Y-48037000D01*
X105156000Y-48037000D02*
X105156000Y-50800000D01*
X105156000Y-50800000D02*
X105164001Y-50808001D01*
X105164001Y-50808001D02*
X105664000Y-51308000D01*
X132080000Y-78740000D02*
X132080000Y-77551100D01*
X132955200Y-75453100D02*
X130836800Y-73334700D01*
X132955200Y-76675900D02*
X132955200Y-75453100D01*
X132080000Y-77551100D02*
X132955200Y-76675900D01*
X84840000Y-149122300D02*
X85833800Y-148128500D01*
X84840000Y-151779600D02*
X84840000Y-149122300D01*
X116840000Y-148463000D02*
X116840000Y-149860000D01*
X116840000Y-149860000D02*
X113919000Y-152781000D01*
X81996001Y-146258001D02*
X82296000Y-146558000D01*
X81035999Y-143082999D02*
X81035999Y-145297999D01*
X81107001Y-132631179D02*
X81107001Y-143011997D01*
X81035999Y-145297999D02*
X81996001Y-146258001D01*
X82304200Y-131433980D02*
X81107001Y-132631179D01*
X119368980Y-131433980D02*
X82304200Y-131433980D01*
X121920000Y-133985000D02*
X119368980Y-131433980D01*
X81107001Y-143011997D02*
X81035999Y-143082999D01*
X81661000Y-143085726D02*
X81661000Y-143509990D01*
X81661000Y-133602590D02*
X81661000Y-143085726D01*
X117278990Y-131883990D02*
X83379599Y-131883991D01*
X119380000Y-133985000D02*
X117278990Y-131883990D01*
X83379599Y-131883991D02*
X81661000Y-133602590D01*
X82931000Y-141307740D02*
X82931000Y-141732004D01*
X113099010Y-132784010D02*
X83877990Y-132784010D01*
X114300000Y-133985000D02*
X113099010Y-132784010D01*
X83877990Y-132784010D02*
X82931000Y-133731000D01*
X82931000Y-133731000D02*
X82931000Y-141307740D01*
X83566000Y-132334000D02*
X82296000Y-133604000D01*
X82296000Y-133604000D02*
X82296000Y-140970000D01*
X115189000Y-132334000D02*
X83566000Y-132334000D01*
X115976401Y-133121401D02*
X115189000Y-132334000D01*
X116840000Y-133985000D02*
X115976401Y-133121401D01*
X91074979Y-157750052D02*
X90774980Y-158050051D01*
X92710000Y-156115031D02*
X91074979Y-157750052D01*
X92710000Y-144119100D02*
X92710000Y-156115031D01*
D26*
X141605000Y-100330000D02*
X141605000Y-98966400D01*
X133477000Y-157353000D02*
X130810000Y-160020000D01*
X141605000Y-98966400D02*
X141892400Y-98679000D01*
X141892400Y-98679000D02*
X145923000Y-98679000D01*
X145923000Y-98679000D02*
X147701000Y-100457000D01*
X147701000Y-100457000D02*
X147701000Y-143129000D01*
X147701000Y-143129000D02*
X133477000Y-157353000D01*
X141605000Y-102870000D02*
X140383686Y-102870000D01*
X140383686Y-102870000D02*
X139367686Y-101854000D01*
X139367686Y-101854000D02*
X139367686Y-99392314D01*
X139367686Y-99392314D02*
X141097000Y-97663000D01*
X141097000Y-97663000D02*
X146304000Y-97663000D01*
X146304000Y-97663000D02*
X148844000Y-100203000D01*
X148844000Y-100203000D02*
X148844000Y-143510000D01*
X148844000Y-143510000D02*
X135890000Y-156464000D01*
X135890000Y-156464000D02*
X135890000Y-160020000D01*
D30*
G36*
X148343897Y-73395477D02*
X148343803Y-73503775D01*
X148516233Y-73921086D01*
X148835235Y-74240645D01*
X149252244Y-74413803D01*
X149703775Y-74414197D01*
X150121086Y-74241767D01*
X150440645Y-73922765D01*
X150613803Y-73505756D01*
X150614197Y-73054225D01*
X150441767Y-72636914D01*
X150122765Y-72317355D01*
X149705756Y-72144197D01*
X149595680Y-72144101D01*
X148952579Y-71501000D01*
X174575000Y-71501000D01*
X174575000Y-168225000D01*
X70846392Y-168225000D01*
X72277793Y-166793599D01*
X97624699Y-166793599D01*
X97888281Y-167431515D01*
X98375918Y-167920004D01*
X99013373Y-168184699D01*
X99703599Y-168185301D01*
X100341515Y-167921719D01*
X100830004Y-167434082D01*
X101094699Y-166796627D01*
X101095301Y-166106401D01*
X100874625Y-165572325D01*
X169445587Y-165572325D01*
X169807916Y-166449229D01*
X170478242Y-167120726D01*
X171354513Y-167484585D01*
X172303325Y-167485413D01*
X173180229Y-167123084D01*
X173851726Y-166452758D01*
X174215585Y-165576487D01*
X174216413Y-164627675D01*
X173854084Y-163750771D01*
X173183758Y-163079274D01*
X172307487Y-162715415D01*
X171358675Y-162714587D01*
X170481771Y-163076916D01*
X169810274Y-163747242D01*
X169446415Y-164623513D01*
X169445587Y-165572325D01*
X100874625Y-165572325D01*
X100831719Y-165468485D01*
X100344082Y-164979996D01*
X99706627Y-164715301D01*
X99016401Y-164714699D01*
X98378485Y-164978281D01*
X97889996Y-165465918D01*
X97625301Y-166103373D01*
X97624699Y-166793599D01*
X72277793Y-166793599D01*
X73021252Y-166050140D01*
X73254972Y-166128112D01*
X73705375Y-166096217D01*
X73973352Y-165985217D01*
X74010499Y-165770107D01*
X74126726Y-165886334D01*
X74213949Y-165799111D01*
X74356235Y-165941645D01*
X74773244Y-166114803D01*
X75224775Y-166115197D01*
X75642086Y-165942767D01*
X75799996Y-165785133D01*
X75956235Y-165941645D01*
X76373244Y-166114803D01*
X76824775Y-166115197D01*
X77242086Y-165942767D01*
X77399996Y-165785133D01*
X77556235Y-165941645D01*
X77973244Y-166114803D01*
X78424775Y-166115197D01*
X78842086Y-165942767D01*
X78999996Y-165785133D01*
X79156235Y-165941645D01*
X79573244Y-166114803D01*
X80024775Y-166115197D01*
X80442086Y-165942767D01*
X80586022Y-165799082D01*
X80673274Y-165886334D01*
X80789501Y-165770107D01*
X80826648Y-165985217D01*
X81254972Y-166128112D01*
X81705375Y-166096217D01*
X81973352Y-165985217D01*
X82010499Y-165770107D01*
X82126726Y-165886334D01*
X82213949Y-165799111D01*
X82356235Y-165941645D01*
X82773244Y-166114803D01*
X83224775Y-166115197D01*
X83642086Y-165942767D01*
X83799996Y-165785133D01*
X83956235Y-165941645D01*
X84373244Y-166114803D01*
X84824775Y-166115197D01*
X85242086Y-165942767D01*
X85386022Y-165799082D01*
X85473274Y-165886334D01*
X85589501Y-165770107D01*
X85626648Y-165985217D01*
X86054972Y-166128112D01*
X86505375Y-166096217D01*
X86773352Y-165985217D01*
X86810499Y-165770107D01*
X86926726Y-165886334D01*
X87013949Y-165799111D01*
X87156235Y-165941645D01*
X87573244Y-166114803D01*
X88024775Y-166115197D01*
X88442086Y-165942767D01*
X88599996Y-165785133D01*
X88756235Y-165941645D01*
X89173244Y-166114803D01*
X89624775Y-166115197D01*
X90042086Y-165942767D01*
X90186022Y-165799082D01*
X90273274Y-165886334D01*
X90389501Y-165770107D01*
X90426648Y-165985217D01*
X90854972Y-166128112D01*
X91305375Y-166096217D01*
X91573352Y-165985217D01*
X91610499Y-165770104D01*
X91000000Y-165159605D01*
X90985858Y-165173748D01*
X90806253Y-164994143D01*
X90820395Y-164980000D01*
X90806253Y-164965858D01*
X90985858Y-164786253D01*
X91000000Y-164800395D01*
X91014143Y-164786253D01*
X91193748Y-164965858D01*
X91179605Y-164980000D01*
X91790104Y-165590499D01*
X92005217Y-165553352D01*
X92148112Y-165125028D01*
X92133609Y-164920227D01*
X92442086Y-164792767D01*
X92761645Y-164473765D01*
X92915067Y-164104285D01*
X93194760Y-164104285D01*
X93405169Y-164613515D01*
X93794436Y-165003461D01*
X94303298Y-165214759D01*
X94854285Y-165215240D01*
X95363515Y-165004831D01*
X95753461Y-164615564D01*
X95964759Y-164106702D01*
X95965240Y-163555715D01*
X95754831Y-163046485D01*
X95365564Y-162656539D01*
X94856702Y-162445241D01*
X94305715Y-162444760D01*
X93796485Y-162655169D01*
X93406539Y-163044436D01*
X93195241Y-163553298D01*
X93194760Y-164104285D01*
X92915067Y-164104285D01*
X92934803Y-164056756D01*
X92935197Y-163605225D01*
X92762767Y-163187914D01*
X92443765Y-162868355D01*
X92026756Y-162695197D01*
X91742441Y-162694949D01*
X91733609Y-162570227D01*
X92042086Y-162442767D01*
X92361645Y-162123765D01*
X92534803Y-161706756D01*
X92535197Y-161255225D01*
X92492330Y-161151480D01*
X92540188Y-161161000D01*
X115062000Y-161161000D01*
X115352839Y-161103148D01*
X115599401Y-160938401D01*
X117533802Y-159004000D01*
X119138960Y-159004000D01*
X119138960Y-161036000D01*
X119183238Y-161271317D01*
X119322310Y-161487441D01*
X119534510Y-161632431D01*
X119786400Y-161683440D01*
X121513600Y-161683440D01*
X121748917Y-161639162D01*
X121965041Y-161500090D01*
X122110031Y-161287890D01*
X122129232Y-161193073D01*
X122287964Y-161370732D01*
X122815209Y-161624709D01*
X122830974Y-161627358D01*
X123063000Y-161506217D01*
X123063000Y-160147000D01*
X123043000Y-160147000D01*
X123043000Y-159893000D01*
X123063000Y-159893000D01*
X123063000Y-158533783D01*
X122830974Y-158412642D01*
X122815209Y-158415291D01*
X122287964Y-158669268D01*
X122131093Y-158844845D01*
X122116762Y-158768683D01*
X121977690Y-158552559D01*
X121765490Y-158407569D01*
X121513600Y-158356560D01*
X119786400Y-158356560D01*
X119551083Y-158400838D01*
X119334959Y-158539910D01*
X119189969Y-158752110D01*
X119138960Y-159004000D01*
X117533802Y-159004000D01*
X133584436Y-142953367D01*
X133640839Y-142942148D01*
X133887401Y-142777401D01*
X134052148Y-142530839D01*
X134110000Y-142240000D01*
X134075000Y-142064045D01*
X134075000Y-137944552D01*
X134620000Y-138052959D01*
X135130000Y-137951514D01*
X135130000Y-143074537D01*
X135097808Y-143106673D01*
X134955162Y-143450201D01*
X134954838Y-143822167D01*
X135096883Y-144165943D01*
X135359673Y-144429192D01*
X135703201Y-144571838D01*
X136075167Y-144572162D01*
X136418943Y-144430117D01*
X136682192Y-144167327D01*
X136824838Y-143823799D01*
X136825162Y-143451833D01*
X136683117Y-143108057D01*
X136650000Y-143074882D01*
X136650000Y-137917426D01*
X136800974Y-137979958D01*
X137033000Y-137858817D01*
X137033000Y-136652000D01*
X137013000Y-136652000D01*
X137013000Y-136398000D01*
X137033000Y-136398000D01*
X137033000Y-136378000D01*
X137287000Y-136378000D01*
X137287000Y-136398000D01*
X137307000Y-136398000D01*
X137307000Y-136652000D01*
X137287000Y-136652000D01*
X137287000Y-137858817D01*
X137519026Y-137979958D01*
X137588601Y-137951141D01*
X137588601Y-146757420D01*
X125963015Y-158383005D01*
X125730000Y-158336655D01*
X125156511Y-158450729D01*
X124670330Y-158775585D01*
X124463539Y-159085069D01*
X124092036Y-158669268D01*
X123564791Y-158415291D01*
X123549026Y-158412642D01*
X123317000Y-158533783D01*
X123317000Y-159893000D01*
X123337000Y-159893000D01*
X123337000Y-160147000D01*
X123317000Y-160147000D01*
X123317000Y-161506217D01*
X123549026Y-161627358D01*
X123564791Y-161624709D01*
X124092036Y-161370732D01*
X124463539Y-160954931D01*
X124670330Y-161264415D01*
X125156511Y-161589271D01*
X125730000Y-161703345D01*
X126303489Y-161589271D01*
X126789670Y-161264415D01*
X126996461Y-160954931D01*
X127367964Y-161370732D01*
X127895209Y-161624709D01*
X127910974Y-161627358D01*
X128143000Y-161506217D01*
X128143000Y-160147000D01*
X128123000Y-160147000D01*
X128123000Y-159893000D01*
X128143000Y-159893000D01*
X128143000Y-159873000D01*
X128397000Y-159873000D01*
X128397000Y-159893000D01*
X128417000Y-159893000D01*
X128417000Y-160147000D01*
X128397000Y-160147000D01*
X128397000Y-161506217D01*
X128629026Y-161627358D01*
X128644791Y-161624709D01*
X129172036Y-161370732D01*
X129543539Y-160954931D01*
X129750330Y-161264415D01*
X130236511Y-161589271D01*
X130810000Y-161703345D01*
X131383489Y-161589271D01*
X131869670Y-161264415D01*
X132076461Y-160954931D01*
X132447964Y-161370732D01*
X132975209Y-161624709D01*
X132990974Y-161627358D01*
X133223000Y-161506217D01*
X133223000Y-160147000D01*
X133203000Y-160147000D01*
X133203000Y-159893000D01*
X133223000Y-159893000D01*
X133223000Y-159873000D01*
X133477000Y-159873000D01*
X133477000Y-159893000D01*
X133497000Y-159893000D01*
X133497000Y-160147000D01*
X133477000Y-160147000D01*
X133477000Y-161506217D01*
X133709026Y-161627358D01*
X133724791Y-161624709D01*
X134252036Y-161370732D01*
X134623539Y-160954931D01*
X134830330Y-161264415D01*
X135316511Y-161589271D01*
X135890000Y-161703345D01*
X136463489Y-161589271D01*
X136949670Y-161264415D01*
X137274526Y-160778234D01*
X137388600Y-160204745D01*
X137388600Y-159835255D01*
X137274526Y-159261766D01*
X136949670Y-158775585D01*
X136775000Y-158658874D01*
X136775000Y-156830580D01*
X149469787Y-144135792D01*
X149469790Y-144135790D01*
X149661633Y-143848675D01*
X149729000Y-143510000D01*
X149729000Y-100203000D01*
X149661633Y-99864325D01*
X149469790Y-99577210D01*
X149469787Y-99577208D01*
X146929790Y-97037210D01*
X146662590Y-96858674D01*
X146642675Y-96845367D01*
X146586484Y-96834190D01*
X146304000Y-96777999D01*
X146303995Y-96778000D01*
X141659802Y-96778000D01*
X143016577Y-95421225D01*
X143155091Y-95478600D01*
X143859250Y-95478600D01*
X144018000Y-95319850D01*
X144018000Y-94107000D01*
X144272000Y-94107000D01*
X144272000Y-95319850D01*
X144430750Y-95478600D01*
X145134909Y-95478600D01*
X145368298Y-95381927D01*
X145546927Y-95203299D01*
X145643600Y-94969910D01*
X145643600Y-94265750D01*
X145484850Y-94107000D01*
X144272000Y-94107000D01*
X144018000Y-94107000D01*
X143998000Y-94107000D01*
X143998000Y-93853000D01*
X144018000Y-93853000D01*
X144018000Y-93833000D01*
X144272000Y-93833000D01*
X144272000Y-93853000D01*
X145484850Y-93853000D01*
X145643600Y-93694250D01*
X145643600Y-92990090D01*
X145546927Y-92756701D01*
X145368298Y-92578073D01*
X145212977Y-92513737D01*
X145234029Y-92499670D01*
X145558885Y-92013489D01*
X145672959Y-91440000D01*
X145558885Y-90866511D01*
X145234029Y-90380330D01*
X144919248Y-90170000D01*
X145234029Y-89959670D01*
X145558885Y-89473489D01*
X145672959Y-88900000D01*
X145597775Y-88522027D01*
X145916201Y-88203601D01*
X146080948Y-87957039D01*
X146138800Y-87666200D01*
X146138800Y-85896900D01*
X146080948Y-85606061D01*
X145916201Y-85359499D01*
X145141101Y-84584399D01*
X144894539Y-84419652D01*
X144603700Y-84361800D01*
X143645100Y-84361800D01*
X143354261Y-84419652D01*
X143107699Y-84584399D01*
X142512837Y-85179261D01*
X142207848Y-84975474D01*
X141634359Y-84861400D01*
X141575641Y-84861400D01*
X141002152Y-84975474D01*
X140515971Y-85300330D01*
X140191115Y-85786511D01*
X140077041Y-86360000D01*
X140191115Y-86933489D01*
X140409489Y-87260309D01*
X133701599Y-93968199D01*
X133536852Y-94214761D01*
X133479000Y-94505600D01*
X133479000Y-124907198D01*
X127772180Y-130614018D01*
X127732599Y-130640465D01*
X127567852Y-130887027D01*
X127510000Y-131177866D01*
X127510000Y-132558486D01*
X127000000Y-132457041D01*
X126426511Y-132571115D01*
X125940330Y-132895971D01*
X125730000Y-133210752D01*
X125519670Y-132895971D01*
X125033489Y-132571115D01*
X124460000Y-132457041D01*
X123886511Y-132571115D01*
X123400330Y-132895971D01*
X123190000Y-133210752D01*
X122979670Y-132895971D01*
X122493489Y-132571115D01*
X121920000Y-132457041D01*
X121542027Y-132532225D01*
X119906381Y-130896579D01*
X119659819Y-130731832D01*
X119368980Y-130673980D01*
X82304200Y-130673980D01*
X82013361Y-130731832D01*
X81766799Y-130896579D01*
X81400041Y-131263337D01*
X81400041Y-125145058D01*
X81483949Y-125019480D01*
X81493897Y-124969467D01*
X120051438Y-124969467D01*
X120193483Y-125313243D01*
X120456273Y-125576492D01*
X120799801Y-125719138D01*
X121171767Y-125719462D01*
X121515543Y-125577417D01*
X121548718Y-125544300D01*
X122271698Y-125544300D01*
X124438478Y-127711080D01*
X124438438Y-127756567D01*
X124580483Y-128100343D01*
X124843273Y-128363592D01*
X125186801Y-128506238D01*
X125558767Y-128506562D01*
X125902543Y-128364517D01*
X126165792Y-128101727D01*
X126308438Y-127758199D01*
X126308762Y-127386233D01*
X126166717Y-127042457D01*
X125903927Y-126779208D01*
X125560399Y-126636562D01*
X125513523Y-126636521D01*
X123123901Y-124246899D01*
X122877339Y-124082152D01*
X122586500Y-124024300D01*
X121549063Y-124024300D01*
X121516927Y-123992108D01*
X121173399Y-123849462D01*
X120801433Y-123849138D01*
X120457657Y-123991183D01*
X120194408Y-124253973D01*
X120051762Y-124597501D01*
X120051438Y-124969467D01*
X81493897Y-124969467D01*
X81517269Y-124851969D01*
X81616656Y-124612620D01*
X81616946Y-124280436D01*
X81490093Y-123973427D01*
X81255408Y-123738333D01*
X80948622Y-123610944D01*
X80897000Y-123610899D01*
X80897000Y-116666200D01*
X80839148Y-116375361D01*
X80674401Y-116128799D01*
X80070232Y-115524630D01*
X79995692Y-115344228D01*
X79761007Y-115109134D01*
X79454221Y-114981745D01*
X79275001Y-114981589D01*
X79275001Y-98641499D01*
X85743725Y-92172775D01*
X90558803Y-92172775D01*
X90731233Y-92590086D01*
X91050235Y-92909645D01*
X91467244Y-93082803D01*
X91577319Y-93082899D01*
X95130897Y-96636477D01*
X95130803Y-96744775D01*
X95303233Y-97162086D01*
X95622235Y-97481645D01*
X96039244Y-97654803D01*
X96490775Y-97655197D01*
X96908086Y-97482767D01*
X97227645Y-97163765D01*
X97400803Y-96746756D01*
X97401197Y-96295225D01*
X97228767Y-95877914D01*
X96909765Y-95558355D01*
X96492756Y-95385197D01*
X96382680Y-95385101D01*
X92829103Y-91831523D01*
X92829197Y-91723225D01*
X92656767Y-91305914D01*
X92337765Y-90986355D01*
X91920756Y-90813197D01*
X91469225Y-90812803D01*
X91051914Y-90985233D01*
X90732355Y-91304235D01*
X90559197Y-91721244D01*
X90558803Y-92172775D01*
X85743725Y-92172775D01*
X93669498Y-84247003D01*
X108893001Y-84247003D01*
X109174273Y-84191054D01*
X109412724Y-84031726D01*
X112626720Y-80817731D01*
X112867372Y-80718296D01*
X113102466Y-80483611D01*
X113229855Y-80176825D01*
X113230145Y-79844641D01*
X113103292Y-79537632D01*
X113078253Y-79512549D01*
X114209829Y-78380973D01*
X117925032Y-78380973D01*
X118045531Y-78613000D01*
X119253000Y-78613000D01*
X119253000Y-77406183D01*
X119020974Y-77285042D01*
X118605053Y-77457312D01*
X118173179Y-77851510D01*
X117925032Y-78380973D01*
X114209829Y-78380973D01*
X115561792Y-77029010D01*
X120893338Y-77029010D01*
X121252955Y-77388627D01*
X120860330Y-77650971D01*
X120644336Y-77974228D01*
X120586821Y-77851510D01*
X120154947Y-77457312D01*
X119739026Y-77285042D01*
X119507000Y-77406183D01*
X119507000Y-78613000D01*
X119527000Y-78613000D01*
X119527000Y-78867000D01*
X119507000Y-78867000D01*
X119507000Y-78887000D01*
X119253000Y-78887000D01*
X119253000Y-78867000D01*
X118045531Y-78867000D01*
X117925032Y-79099027D01*
X118173179Y-79628490D01*
X118591161Y-80010008D01*
X118320330Y-80190971D01*
X117995474Y-80677152D01*
X117881400Y-81250641D01*
X117881400Y-81309359D01*
X117995474Y-81882848D01*
X118320330Y-82369029D01*
X118806511Y-82693885D01*
X119380000Y-82807959D01*
X119953489Y-82693885D01*
X120439670Y-82369029D01*
X120650000Y-82054248D01*
X120860330Y-82369029D01*
X121346511Y-82693885D01*
X121920000Y-82807959D01*
X122493489Y-82693885D01*
X122979670Y-82369029D01*
X123190000Y-82054248D01*
X123400330Y-82369029D01*
X123886511Y-82693885D01*
X124460000Y-82807959D01*
X125033489Y-82693885D01*
X125519670Y-82369029D01*
X125730000Y-82054248D01*
X125940330Y-82369029D01*
X126426511Y-82693885D01*
X127000000Y-82807959D01*
X127573489Y-82693885D01*
X128059670Y-82369029D01*
X128270000Y-82054248D01*
X128480330Y-82369029D01*
X128966511Y-82693885D01*
X129540000Y-82807959D01*
X130113489Y-82693885D01*
X130599670Y-82369029D01*
X130810000Y-82054248D01*
X131020330Y-82369029D01*
X131506511Y-82693885D01*
X132080000Y-82807959D01*
X132653489Y-82693885D01*
X133139670Y-82369029D01*
X133350000Y-82054248D01*
X133560330Y-82369029D01*
X134046511Y-82693885D01*
X134620000Y-82807959D01*
X135193489Y-82693885D01*
X135679670Y-82369029D01*
X135890000Y-82054248D01*
X136100330Y-82369029D01*
X136586511Y-82693885D01*
X137160000Y-82807959D01*
X137733489Y-82693885D01*
X138219670Y-82369029D01*
X138544526Y-81882848D01*
X138658600Y-81309359D01*
X138658600Y-81250641D01*
X138544526Y-80677152D01*
X138233426Y-80211558D01*
X138258917Y-80206762D01*
X138475041Y-80067690D01*
X138620031Y-79855490D01*
X138671040Y-79603600D01*
X138671040Y-77876400D01*
X138626762Y-77641083D01*
X138487690Y-77424959D01*
X138275490Y-77279969D01*
X138023600Y-77228960D01*
X136296400Y-77228960D01*
X136061083Y-77273238D01*
X135844959Y-77412310D01*
X135699969Y-77624510D01*
X135691136Y-77668131D01*
X135679670Y-77650971D01*
X135193489Y-77326115D01*
X134620000Y-77212041D01*
X134046511Y-77326115D01*
X133560330Y-77650971D01*
X133350000Y-77965752D01*
X133139670Y-77650971D01*
X133088873Y-77617029D01*
X133492601Y-77213301D01*
X133657348Y-76966739D01*
X133715200Y-76675900D01*
X133715200Y-75453100D01*
X133657348Y-75162261D01*
X133492601Y-74915699D01*
X131771922Y-73195020D01*
X131771962Y-73149533D01*
X131629917Y-72805757D01*
X131367127Y-72542508D01*
X131023599Y-72399862D01*
X130651633Y-72399538D01*
X130307857Y-72541583D01*
X130044608Y-72804373D01*
X129901962Y-73147901D01*
X129901638Y-73519867D01*
X130043683Y-73863643D01*
X130306473Y-74126892D01*
X130650001Y-74269538D01*
X130696877Y-74269579D01*
X132195200Y-75767902D01*
X132195200Y-76361098D01*
X131542599Y-77013699D01*
X131377852Y-77260261D01*
X131343024Y-77435354D01*
X131020330Y-77650971D01*
X130810000Y-77965752D01*
X130599670Y-77650971D01*
X130113489Y-77326115D01*
X129540000Y-77212041D01*
X128966511Y-77326115D01*
X128480330Y-77650971D01*
X128270000Y-77965752D01*
X128059670Y-77650971D01*
X127573489Y-77326115D01*
X127000000Y-77212041D01*
X126426511Y-77326115D01*
X125940330Y-77650971D01*
X125730000Y-77965752D01*
X125519670Y-77650971D01*
X125033489Y-77326115D01*
X124460000Y-77212041D01*
X124082027Y-77287225D01*
X122076401Y-75281599D01*
X121829839Y-75116852D01*
X121539000Y-75059000D01*
X116258983Y-75059000D01*
X119816983Y-71501000D01*
X146449420Y-71501000D01*
X148343897Y-73395477D01*
X148343897Y-73395477D01*
G37*
X148343897Y-73395477D02*
X148343803Y-73503775D01*
X148516233Y-73921086D01*
X148835235Y-74240645D01*
X149252244Y-74413803D01*
X149703775Y-74414197D01*
X150121086Y-74241767D01*
X150440645Y-73922765D01*
X150613803Y-73505756D01*
X150614197Y-73054225D01*
X150441767Y-72636914D01*
X150122765Y-72317355D01*
X149705756Y-72144197D01*
X149595680Y-72144101D01*
X148952579Y-71501000D01*
X174575000Y-71501000D01*
X174575000Y-168225000D01*
X70846392Y-168225000D01*
X72277793Y-166793599D01*
X97624699Y-166793599D01*
X97888281Y-167431515D01*
X98375918Y-167920004D01*
X99013373Y-168184699D01*
X99703599Y-168185301D01*
X100341515Y-167921719D01*
X100830004Y-167434082D01*
X101094699Y-166796627D01*
X101095301Y-166106401D01*
X100874625Y-165572325D01*
X169445587Y-165572325D01*
X169807916Y-166449229D01*
X170478242Y-167120726D01*
X171354513Y-167484585D01*
X172303325Y-167485413D01*
X173180229Y-167123084D01*
X173851726Y-166452758D01*
X174215585Y-165576487D01*
X174216413Y-164627675D01*
X173854084Y-163750771D01*
X173183758Y-163079274D01*
X172307487Y-162715415D01*
X171358675Y-162714587D01*
X170481771Y-163076916D01*
X169810274Y-163747242D01*
X169446415Y-164623513D01*
X169445587Y-165572325D01*
X100874625Y-165572325D01*
X100831719Y-165468485D01*
X100344082Y-164979996D01*
X99706627Y-164715301D01*
X99016401Y-164714699D01*
X98378485Y-164978281D01*
X97889996Y-165465918D01*
X97625301Y-166103373D01*
X97624699Y-166793599D01*
X72277793Y-166793599D01*
X73021252Y-166050140D01*
X73254972Y-166128112D01*
X73705375Y-166096217D01*
X73973352Y-165985217D01*
X74010499Y-165770107D01*
X74126726Y-165886334D01*
X74213949Y-165799111D01*
X74356235Y-165941645D01*
X74773244Y-166114803D01*
X75224775Y-166115197D01*
X75642086Y-165942767D01*
X75799996Y-165785133D01*
X75956235Y-165941645D01*
X76373244Y-166114803D01*
X76824775Y-166115197D01*
X77242086Y-165942767D01*
X77399996Y-165785133D01*
X77556235Y-165941645D01*
X77973244Y-166114803D01*
X78424775Y-166115197D01*
X78842086Y-165942767D01*
X78999996Y-165785133D01*
X79156235Y-165941645D01*
X79573244Y-166114803D01*
X80024775Y-166115197D01*
X80442086Y-165942767D01*
X80586022Y-165799082D01*
X80673274Y-165886334D01*
X80789501Y-165770107D01*
X80826648Y-165985217D01*
X81254972Y-166128112D01*
X81705375Y-166096217D01*
X81973352Y-165985217D01*
X82010499Y-165770107D01*
X82126726Y-165886334D01*
X82213949Y-165799111D01*
X82356235Y-165941645D01*
X82773244Y-166114803D01*
X83224775Y-166115197D01*
X83642086Y-165942767D01*
X83799996Y-165785133D01*
X83956235Y-165941645D01*
X84373244Y-166114803D01*
X84824775Y-166115197D01*
X85242086Y-165942767D01*
X85386022Y-165799082D01*
X85473274Y-165886334D01*
X85589501Y-165770107D01*
X85626648Y-165985217D01*
X86054972Y-166128112D01*
X86505375Y-166096217D01*
X86773352Y-165985217D01*
X86810499Y-165770107D01*
X86926726Y-165886334D01*
X87013949Y-165799111D01*
X87156235Y-165941645D01*
X87573244Y-166114803D01*
X88024775Y-166115197D01*
X88442086Y-165942767D01*
X88599996Y-165785133D01*
X88756235Y-165941645D01*
X89173244Y-166114803D01*
X89624775Y-166115197D01*
X90042086Y-165942767D01*
X90186022Y-165799082D01*
X90273274Y-165886334D01*
X90389501Y-165770107D01*
X90426648Y-165985217D01*
X90854972Y-166128112D01*
X91305375Y-166096217D01*
X91573352Y-165985217D01*
X91610499Y-165770104D01*
X91000000Y-165159605D01*
X90985858Y-165173748D01*
X90806253Y-164994143D01*
X90820395Y-164980000D01*
X90806253Y-164965858D01*
X90985858Y-164786253D01*
X91000000Y-164800395D01*
X91014143Y-164786253D01*
X91193748Y-164965858D01*
X91179605Y-164980000D01*
X91790104Y-165590499D01*
X92005217Y-165553352D01*
X92148112Y-165125028D01*
X92133609Y-164920227D01*
X92442086Y-164792767D01*
X92761645Y-164473765D01*
X92915067Y-164104285D01*
X93194760Y-164104285D01*
X93405169Y-164613515D01*
X93794436Y-165003461D01*
X94303298Y-165214759D01*
X94854285Y-165215240D01*
X95363515Y-165004831D01*
X95753461Y-164615564D01*
X95964759Y-164106702D01*
X95965240Y-163555715D01*
X95754831Y-163046485D01*
X95365564Y-162656539D01*
X94856702Y-162445241D01*
X94305715Y-162444760D01*
X93796485Y-162655169D01*
X93406539Y-163044436D01*
X93195241Y-163553298D01*
X93194760Y-164104285D01*
X92915067Y-164104285D01*
X92934803Y-164056756D01*
X92935197Y-163605225D01*
X92762767Y-163187914D01*
X92443765Y-162868355D01*
X92026756Y-162695197D01*
X91742441Y-162694949D01*
X91733609Y-162570227D01*
X92042086Y-162442767D01*
X92361645Y-162123765D01*
X92534803Y-161706756D01*
X92535197Y-161255225D01*
X92492330Y-161151480D01*
X92540188Y-161161000D01*
X115062000Y-161161000D01*
X115352839Y-161103148D01*
X115599401Y-160938401D01*
X117533802Y-159004000D01*
X119138960Y-159004000D01*
X119138960Y-161036000D01*
X119183238Y-161271317D01*
X119322310Y-161487441D01*
X119534510Y-161632431D01*
X119786400Y-161683440D01*
X121513600Y-161683440D01*
X121748917Y-161639162D01*
X121965041Y-161500090D01*
X122110031Y-161287890D01*
X122129232Y-161193073D01*
X122287964Y-161370732D01*
X122815209Y-161624709D01*
X122830974Y-161627358D01*
X123063000Y-161506217D01*
X123063000Y-160147000D01*
X123043000Y-160147000D01*
X123043000Y-159893000D01*
X123063000Y-159893000D01*
X123063000Y-158533783D01*
X122830974Y-158412642D01*
X122815209Y-158415291D01*
X122287964Y-158669268D01*
X122131093Y-158844845D01*
X122116762Y-158768683D01*
X121977690Y-158552559D01*
X121765490Y-158407569D01*
X121513600Y-158356560D01*
X119786400Y-158356560D01*
X119551083Y-158400838D01*
X119334959Y-158539910D01*
X119189969Y-158752110D01*
X119138960Y-159004000D01*
X117533802Y-159004000D01*
X133584436Y-142953367D01*
X133640839Y-142942148D01*
X133887401Y-142777401D01*
X134052148Y-142530839D01*
X134110000Y-142240000D01*
X134075000Y-142064045D01*
X134075000Y-137944552D01*
X134620000Y-138052959D01*
X135130000Y-137951514D01*
X135130000Y-143074537D01*
X135097808Y-143106673D01*
X134955162Y-143450201D01*
X134954838Y-143822167D01*
X135096883Y-144165943D01*
X135359673Y-144429192D01*
X135703201Y-144571838D01*
X136075167Y-144572162D01*
X136418943Y-144430117D01*
X136682192Y-144167327D01*
X136824838Y-143823799D01*
X136825162Y-143451833D01*
X136683117Y-143108057D01*
X136650000Y-143074882D01*
X136650000Y-137917426D01*
X136800974Y-137979958D01*
X137033000Y-137858817D01*
X137033000Y-136652000D01*
X137013000Y-136652000D01*
X137013000Y-136398000D01*
X137033000Y-136398000D01*
X137033000Y-136378000D01*
X137287000Y-136378000D01*
X137287000Y-136398000D01*
X137307000Y-136398000D01*
X137307000Y-136652000D01*
X137287000Y-136652000D01*
X137287000Y-137858817D01*
X137519026Y-137979958D01*
X137588601Y-137951141D01*
X137588601Y-146757420D01*
X125963015Y-158383005D01*
X125730000Y-158336655D01*
X125156511Y-158450729D01*
X124670330Y-158775585D01*
X124463539Y-159085069D01*
X124092036Y-158669268D01*
X123564791Y-158415291D01*
X123549026Y-158412642D01*
X123317000Y-158533783D01*
X123317000Y-159893000D01*
X123337000Y-159893000D01*
X123337000Y-160147000D01*
X123317000Y-160147000D01*
X123317000Y-161506217D01*
X123549026Y-161627358D01*
X123564791Y-161624709D01*
X124092036Y-161370732D01*
X124463539Y-160954931D01*
X124670330Y-161264415D01*
X125156511Y-161589271D01*
X125730000Y-161703345D01*
X126303489Y-161589271D01*
X126789670Y-161264415D01*
X126996461Y-160954931D01*
X127367964Y-161370732D01*
X127895209Y-161624709D01*
X127910974Y-161627358D01*
X128143000Y-161506217D01*
X128143000Y-160147000D01*
X128123000Y-160147000D01*
X128123000Y-159893000D01*
X128143000Y-159893000D01*
X128143000Y-159873000D01*
X128397000Y-159873000D01*
X128397000Y-159893000D01*
X128417000Y-159893000D01*
X128417000Y-160147000D01*
X128397000Y-160147000D01*
X128397000Y-161506217D01*
X128629026Y-161627358D01*
X128644791Y-161624709D01*
X129172036Y-161370732D01*
X129543539Y-160954931D01*
X129750330Y-161264415D01*
X130236511Y-161589271D01*
X130810000Y-161703345D01*
X131383489Y-161589271D01*
X131869670Y-161264415D01*
X132076461Y-160954931D01*
X132447964Y-161370732D01*
X132975209Y-161624709D01*
X132990974Y-161627358D01*
X133223000Y-161506217D01*
X133223000Y-160147000D01*
X133203000Y-160147000D01*
X133203000Y-159893000D01*
X133223000Y-159893000D01*
X133223000Y-159873000D01*
X133477000Y-159873000D01*
X133477000Y-159893000D01*
X133497000Y-159893000D01*
X133497000Y-160147000D01*
X133477000Y-160147000D01*
X133477000Y-161506217D01*
X133709026Y-161627358D01*
X133724791Y-161624709D01*
X134252036Y-161370732D01*
X134623539Y-160954931D01*
X134830330Y-161264415D01*
X135316511Y-161589271D01*
X135890000Y-161703345D01*
X136463489Y-161589271D01*
X136949670Y-161264415D01*
X137274526Y-160778234D01*
X137388600Y-160204745D01*
X137388600Y-159835255D01*
X137274526Y-159261766D01*
X136949670Y-158775585D01*
X136775000Y-158658874D01*
X136775000Y-156830580D01*
X149469787Y-144135792D01*
X149469790Y-144135790D01*
X149661633Y-143848675D01*
X149729000Y-143510000D01*
X149729000Y-100203000D01*
X149661633Y-99864325D01*
X149469790Y-99577210D01*
X149469787Y-99577208D01*
X146929790Y-97037210D01*
X146662590Y-96858674D01*
X146642675Y-96845367D01*
X146586484Y-96834190D01*
X146304000Y-96777999D01*
X146303995Y-96778000D01*
X141659802Y-96778000D01*
X143016577Y-95421225D01*
X143155091Y-95478600D01*
X143859250Y-95478600D01*
X144018000Y-95319850D01*
X144018000Y-94107000D01*
X144272000Y-94107000D01*
X144272000Y-95319850D01*
X144430750Y-95478600D01*
X145134909Y-95478600D01*
X145368298Y-95381927D01*
X145546927Y-95203299D01*
X145643600Y-94969910D01*
X145643600Y-94265750D01*
X145484850Y-94107000D01*
X144272000Y-94107000D01*
X144018000Y-94107000D01*
X143998000Y-94107000D01*
X143998000Y-93853000D01*
X144018000Y-93853000D01*
X144018000Y-93833000D01*
X144272000Y-93833000D01*
X144272000Y-93853000D01*
X145484850Y-93853000D01*
X145643600Y-93694250D01*
X145643600Y-92990090D01*
X145546927Y-92756701D01*
X145368298Y-92578073D01*
X145212977Y-92513737D01*
X145234029Y-92499670D01*
X145558885Y-92013489D01*
X145672959Y-91440000D01*
X145558885Y-90866511D01*
X145234029Y-90380330D01*
X144919248Y-90170000D01*
X145234029Y-89959670D01*
X145558885Y-89473489D01*
X145672959Y-88900000D01*
X145597775Y-88522027D01*
X145916201Y-88203601D01*
X146080948Y-87957039D01*
X146138800Y-87666200D01*
X146138800Y-85896900D01*
X146080948Y-85606061D01*
X145916201Y-85359499D01*
X145141101Y-84584399D01*
X144894539Y-84419652D01*
X144603700Y-84361800D01*
X143645100Y-84361800D01*
X143354261Y-84419652D01*
X143107699Y-84584399D01*
X142512837Y-85179261D01*
X142207848Y-84975474D01*
X141634359Y-84861400D01*
X141575641Y-84861400D01*
X141002152Y-84975474D01*
X140515971Y-85300330D01*
X140191115Y-85786511D01*
X140077041Y-86360000D01*
X140191115Y-86933489D01*
X140409489Y-87260309D01*
X133701599Y-93968199D01*
X133536852Y-94214761D01*
X133479000Y-94505600D01*
X133479000Y-124907198D01*
X127772180Y-130614018D01*
X127732599Y-130640465D01*
X127567852Y-130887027D01*
X127510000Y-131177866D01*
X127510000Y-132558486D01*
X127000000Y-132457041D01*
X126426511Y-132571115D01*
X125940330Y-132895971D01*
X125730000Y-133210752D01*
X125519670Y-132895971D01*
X125033489Y-132571115D01*
X124460000Y-132457041D01*
X123886511Y-132571115D01*
X123400330Y-132895971D01*
X123190000Y-133210752D01*
X122979670Y-132895971D01*
X122493489Y-132571115D01*
X121920000Y-132457041D01*
X121542027Y-132532225D01*
X119906381Y-130896579D01*
X119659819Y-130731832D01*
X119368980Y-130673980D01*
X82304200Y-130673980D01*
X82013361Y-130731832D01*
X81766799Y-130896579D01*
X81400041Y-131263337D01*
X81400041Y-125145058D01*
X81483949Y-125019480D01*
X81493897Y-124969467D01*
X120051438Y-124969467D01*
X120193483Y-125313243D01*
X120456273Y-125576492D01*
X120799801Y-125719138D01*
X121171767Y-125719462D01*
X121515543Y-125577417D01*
X121548718Y-125544300D01*
X122271698Y-125544300D01*
X124438478Y-127711080D01*
X124438438Y-127756567D01*
X124580483Y-128100343D01*
X124843273Y-128363592D01*
X125186801Y-128506238D01*
X125558767Y-128506562D01*
X125902543Y-128364517D01*
X126165792Y-128101727D01*
X126308438Y-127758199D01*
X126308762Y-127386233D01*
X126166717Y-127042457D01*
X125903927Y-126779208D01*
X125560399Y-126636562D01*
X125513523Y-126636521D01*
X123123901Y-124246899D01*
X122877339Y-124082152D01*
X122586500Y-124024300D01*
X121549063Y-124024300D01*
X121516927Y-123992108D01*
X121173399Y-123849462D01*
X120801433Y-123849138D01*
X120457657Y-123991183D01*
X120194408Y-124253973D01*
X120051762Y-124597501D01*
X120051438Y-124969467D01*
X81493897Y-124969467D01*
X81517269Y-124851969D01*
X81616656Y-124612620D01*
X81616946Y-124280436D01*
X81490093Y-123973427D01*
X81255408Y-123738333D01*
X80948622Y-123610944D01*
X80897000Y-123610899D01*
X80897000Y-116666200D01*
X80839148Y-116375361D01*
X80674401Y-116128799D01*
X80070232Y-115524630D01*
X79995692Y-115344228D01*
X79761007Y-115109134D01*
X79454221Y-114981745D01*
X79275001Y-114981589D01*
X79275001Y-98641499D01*
X85743725Y-92172775D01*
X90558803Y-92172775D01*
X90731233Y-92590086D01*
X91050235Y-92909645D01*
X91467244Y-93082803D01*
X91577319Y-93082899D01*
X95130897Y-96636477D01*
X95130803Y-96744775D01*
X95303233Y-97162086D01*
X95622235Y-97481645D01*
X96039244Y-97654803D01*
X96490775Y-97655197D01*
X96908086Y-97482767D01*
X97227645Y-97163765D01*
X97400803Y-96746756D01*
X97401197Y-96295225D01*
X97228767Y-95877914D01*
X96909765Y-95558355D01*
X96492756Y-95385197D01*
X96382680Y-95385101D01*
X92829103Y-91831523D01*
X92829197Y-91723225D01*
X92656767Y-91305914D01*
X92337765Y-90986355D01*
X91920756Y-90813197D01*
X91469225Y-90812803D01*
X91051914Y-90985233D01*
X90732355Y-91304235D01*
X90559197Y-91721244D01*
X90558803Y-92172775D01*
X85743725Y-92172775D01*
X93669498Y-84247003D01*
X108893001Y-84247003D01*
X109174273Y-84191054D01*
X109412724Y-84031726D01*
X112626720Y-80817731D01*
X112867372Y-80718296D01*
X113102466Y-80483611D01*
X113229855Y-80176825D01*
X113230145Y-79844641D01*
X113103292Y-79537632D01*
X113078253Y-79512549D01*
X114209829Y-78380973D01*
X117925032Y-78380973D01*
X118045531Y-78613000D01*
X119253000Y-78613000D01*
X119253000Y-77406183D01*
X119020974Y-77285042D01*
X118605053Y-77457312D01*
X118173179Y-77851510D01*
X117925032Y-78380973D01*
X114209829Y-78380973D01*
X115561792Y-77029010D01*
X120893338Y-77029010D01*
X121252955Y-77388627D01*
X120860330Y-77650971D01*
X120644336Y-77974228D01*
X120586821Y-77851510D01*
X120154947Y-77457312D01*
X119739026Y-77285042D01*
X119507000Y-77406183D01*
X119507000Y-78613000D01*
X119527000Y-78613000D01*
X119527000Y-78867000D01*
X119507000Y-78867000D01*
X119507000Y-78887000D01*
X119253000Y-78887000D01*
X119253000Y-78867000D01*
X118045531Y-78867000D01*
X117925032Y-79099027D01*
X118173179Y-79628490D01*
X118591161Y-80010008D01*
X118320330Y-80190971D01*
X117995474Y-80677152D01*
X117881400Y-81250641D01*
X117881400Y-81309359D01*
X117995474Y-81882848D01*
X118320330Y-82369029D01*
X118806511Y-82693885D01*
X119380000Y-82807959D01*
X119953489Y-82693885D01*
X120439670Y-82369029D01*
X120650000Y-82054248D01*
X120860330Y-82369029D01*
X121346511Y-82693885D01*
X121920000Y-82807959D01*
X122493489Y-82693885D01*
X122979670Y-82369029D01*
X123190000Y-82054248D01*
X123400330Y-82369029D01*
X123886511Y-82693885D01*
X124460000Y-82807959D01*
X125033489Y-82693885D01*
X125519670Y-82369029D01*
X125730000Y-82054248D01*
X125940330Y-82369029D01*
X126426511Y-82693885D01*
X127000000Y-82807959D01*
X127573489Y-82693885D01*
X128059670Y-82369029D01*
X128270000Y-82054248D01*
X128480330Y-82369029D01*
X128966511Y-82693885D01*
X129540000Y-82807959D01*
X130113489Y-82693885D01*
X130599670Y-82369029D01*
X130810000Y-82054248D01*
X131020330Y-82369029D01*
X131506511Y-82693885D01*
X132080000Y-82807959D01*
X132653489Y-82693885D01*
X133139670Y-82369029D01*
X133350000Y-82054248D01*
X133560330Y-82369029D01*
X134046511Y-82693885D01*
X134620000Y-82807959D01*
X135193489Y-82693885D01*
X135679670Y-82369029D01*
X135890000Y-82054248D01*
X136100330Y-82369029D01*
X136586511Y-82693885D01*
X137160000Y-82807959D01*
X137733489Y-82693885D01*
X138219670Y-82369029D01*
X138544526Y-81882848D01*
X138658600Y-81309359D01*
X138658600Y-81250641D01*
X138544526Y-80677152D01*
X138233426Y-80211558D01*
X138258917Y-80206762D01*
X138475041Y-80067690D01*
X138620031Y-79855490D01*
X138671040Y-79603600D01*
X138671040Y-77876400D01*
X138626762Y-77641083D01*
X138487690Y-77424959D01*
X138275490Y-77279969D01*
X138023600Y-77228960D01*
X136296400Y-77228960D01*
X136061083Y-77273238D01*
X135844959Y-77412310D01*
X135699969Y-77624510D01*
X135691136Y-77668131D01*
X135679670Y-77650971D01*
X135193489Y-77326115D01*
X134620000Y-77212041D01*
X134046511Y-77326115D01*
X133560330Y-77650971D01*
X133350000Y-77965752D01*
X133139670Y-77650971D01*
X133088873Y-77617029D01*
X133492601Y-77213301D01*
X133657348Y-76966739D01*
X133715200Y-76675900D01*
X133715200Y-75453100D01*
X133657348Y-75162261D01*
X133492601Y-74915699D01*
X131771922Y-73195020D01*
X131771962Y-73149533D01*
X131629917Y-72805757D01*
X131367127Y-72542508D01*
X131023599Y-72399862D01*
X130651633Y-72399538D01*
X130307857Y-72541583D01*
X130044608Y-72804373D01*
X129901962Y-73147901D01*
X129901638Y-73519867D01*
X130043683Y-73863643D01*
X130306473Y-74126892D01*
X130650001Y-74269538D01*
X130696877Y-74269579D01*
X132195200Y-75767902D01*
X132195200Y-76361098D01*
X131542599Y-77013699D01*
X131377852Y-77260261D01*
X131343024Y-77435354D01*
X131020330Y-77650971D01*
X130810000Y-77965752D01*
X130599670Y-77650971D01*
X130113489Y-77326115D01*
X129540000Y-77212041D01*
X128966511Y-77326115D01*
X128480330Y-77650971D01*
X128270000Y-77965752D01*
X128059670Y-77650971D01*
X127573489Y-77326115D01*
X127000000Y-77212041D01*
X126426511Y-77326115D01*
X125940330Y-77650971D01*
X125730000Y-77965752D01*
X125519670Y-77650971D01*
X125033489Y-77326115D01*
X124460000Y-77212041D01*
X124082027Y-77287225D01*
X122076401Y-75281599D01*
X121829839Y-75116852D01*
X121539000Y-75059000D01*
X116258983Y-75059000D01*
X119816983Y-71501000D01*
X146449420Y-71501000D01*
X148343897Y-73395477D01*
G36*
X91731996Y-73939736D02*
X91440000Y-73881655D01*
X90866511Y-73995729D01*
X90380330Y-74320585D01*
X90365500Y-74342780D01*
X90301927Y-74189302D01*
X90123299Y-74010673D01*
X89889910Y-73914000D01*
X89185750Y-73914000D01*
X89027000Y-74072750D01*
X89027000Y-75438000D01*
X89047000Y-75438000D01*
X89047000Y-75692000D01*
X89027000Y-75692000D01*
X89027000Y-75712000D01*
X88773000Y-75712000D01*
X88773000Y-75692000D01*
X87560150Y-75692000D01*
X87401400Y-75850750D01*
X87401400Y-76707309D01*
X87498073Y-76940698D01*
X87676701Y-77119327D01*
X87750770Y-77150007D01*
X87515474Y-77502152D01*
X87401400Y-78075641D01*
X87401400Y-78134359D01*
X87515474Y-78707848D01*
X87840330Y-79194029D01*
X88111161Y-79374992D01*
X87693179Y-79756510D01*
X87445032Y-80285973D01*
X87565531Y-80518000D01*
X88773000Y-80518000D01*
X88773000Y-80498000D01*
X89027000Y-80498000D01*
X89027000Y-80518000D01*
X89047000Y-80518000D01*
X89047000Y-80772000D01*
X89027000Y-80772000D01*
X89027000Y-81978817D01*
X89259026Y-82099958D01*
X89317188Y-82075868D01*
X89311589Y-82079609D01*
X84569320Y-86821878D01*
X84523833Y-86821838D01*
X84180057Y-86963883D01*
X83916808Y-87226673D01*
X83774162Y-87570201D01*
X83773838Y-87942167D01*
X83915883Y-88285943D01*
X84178673Y-88549192D01*
X84522201Y-88691838D01*
X84894167Y-88692162D01*
X85237943Y-88550117D01*
X85501192Y-88287327D01*
X85643838Y-87943799D01*
X85643879Y-87896923D01*
X90163792Y-83377010D01*
X91824188Y-83377010D01*
X77567599Y-97633599D01*
X77402852Y-97880161D01*
X77386629Y-97961719D01*
X77129634Y-97790000D01*
X77444415Y-97579670D01*
X77769271Y-97093489D01*
X77883345Y-96520000D01*
X77769271Y-95946511D01*
X77444415Y-95460330D01*
X77129634Y-95250000D01*
X77444415Y-95039670D01*
X77769271Y-94553489D01*
X77883345Y-93980000D01*
X77769271Y-93406511D01*
X77444415Y-92920330D01*
X77129634Y-92710000D01*
X77444415Y-92499670D01*
X77769271Y-92013489D01*
X77883345Y-91440000D01*
X77769271Y-90866511D01*
X77444415Y-90380330D01*
X77129634Y-90170000D01*
X77444415Y-89959670D01*
X77769271Y-89473489D01*
X77883345Y-88900000D01*
X77769271Y-88326511D01*
X77444415Y-87840330D01*
X77134931Y-87633539D01*
X77550732Y-87262036D01*
X77804709Y-86734791D01*
X77807358Y-86719026D01*
X77686217Y-86487000D01*
X76327000Y-86487000D01*
X76327000Y-86507000D01*
X76073000Y-86507000D01*
X76073000Y-86487000D01*
X74713783Y-86487000D01*
X74592642Y-86719026D01*
X74595291Y-86734791D01*
X74849268Y-87262036D01*
X75265069Y-87633539D01*
X74955585Y-87840330D01*
X74630729Y-88326511D01*
X74516655Y-88900000D01*
X74592334Y-89280464D01*
X74543898Y-89328900D01*
X73177200Y-89328900D01*
X72886360Y-89386752D01*
X72639799Y-89551499D01*
X67084589Y-95106709D01*
X66919842Y-95353271D01*
X66861990Y-95644110D01*
X66861990Y-150628798D01*
X58321589Y-159169199D01*
X58156842Y-159415761D01*
X58098990Y-159706600D01*
X58098991Y-164836701D01*
X57806627Y-164715301D01*
X57116401Y-164714699D01*
X56478485Y-164978281D01*
X55989996Y-165465918D01*
X55725301Y-166103373D01*
X55724699Y-166793599D01*
X55988281Y-167431515D01*
X56475918Y-167920004D01*
X57113373Y-168184699D01*
X57803599Y-168185301D01*
X58441515Y-167921719D01*
X58930004Y-167434082D01*
X59112169Y-166995381D01*
X60341788Y-168225000D01*
X48945000Y-168225000D01*
X48945000Y-164937325D01*
X50065587Y-164937325D01*
X50427916Y-165814229D01*
X51098242Y-166485726D01*
X51974513Y-166849585D01*
X52923325Y-166850413D01*
X53800229Y-166488084D01*
X54471726Y-165817758D01*
X54835585Y-164941487D01*
X54836413Y-163992675D01*
X54474084Y-163115771D01*
X53803758Y-162444274D01*
X52927487Y-162080415D01*
X51978675Y-162079587D01*
X51101771Y-162441916D01*
X50430274Y-163112242D01*
X50066415Y-163988513D01*
X50065587Y-164937325D01*
X48945000Y-164937325D01*
X48945000Y-83820000D01*
X74516655Y-83820000D01*
X74630729Y-84393489D01*
X74955585Y-84879670D01*
X75265069Y-85086461D01*
X74849268Y-85457964D01*
X74595291Y-85985209D01*
X74592642Y-86000974D01*
X74713783Y-86233000D01*
X76073000Y-86233000D01*
X76073000Y-86213000D01*
X76327000Y-86213000D01*
X76327000Y-86233000D01*
X77686217Y-86233000D01*
X77807358Y-86000974D01*
X77804709Y-85985209D01*
X77550732Y-85457964D01*
X77134931Y-85086461D01*
X77444415Y-84879670D01*
X77769271Y-84393489D01*
X77883345Y-83820000D01*
X77769271Y-83246511D01*
X77444415Y-82760330D01*
X77430087Y-82750757D01*
X77451317Y-82746762D01*
X77667441Y-82607690D01*
X77812431Y-82395490D01*
X77863440Y-82143600D01*
X77863440Y-81004027D01*
X87445032Y-81004027D01*
X87693179Y-81533490D01*
X88125053Y-81927688D01*
X88540974Y-82099958D01*
X88773000Y-81978817D01*
X88773000Y-80772000D01*
X87565531Y-80772000D01*
X87445032Y-81004027D01*
X77863440Y-81004027D01*
X77863440Y-80416400D01*
X77819162Y-80181083D01*
X77680090Y-79964959D01*
X77467890Y-79819969D01*
X77216000Y-79768960D01*
X75184000Y-79768960D01*
X74948683Y-79813238D01*
X74732559Y-79952310D01*
X74587569Y-80164510D01*
X74536560Y-80416400D01*
X74536560Y-82143600D01*
X74580838Y-82378917D01*
X74719910Y-82595041D01*
X74932110Y-82740031D01*
X74973439Y-82748400D01*
X74955585Y-82760330D01*
X74630729Y-83246511D01*
X74516655Y-83820000D01*
X48945000Y-83820000D01*
X48945000Y-74422691D01*
X87401400Y-74422691D01*
X87401400Y-75279250D01*
X87560150Y-75438000D01*
X88773000Y-75438000D01*
X88773000Y-74072750D01*
X88614250Y-73914000D01*
X87910090Y-73914000D01*
X87676701Y-74010673D01*
X87498073Y-74189302D01*
X87401400Y-74422691D01*
X48945000Y-74422691D01*
X48945000Y-71501000D01*
X94170732Y-71501000D01*
X91731996Y-73939736D01*
X91731996Y-73939736D01*
G37*
X91731996Y-73939736D02*
X91440000Y-73881655D01*
X90866511Y-73995729D01*
X90380330Y-74320585D01*
X90365500Y-74342780D01*
X90301927Y-74189302D01*
X90123299Y-74010673D01*
X89889910Y-73914000D01*
X89185750Y-73914000D01*
X89027000Y-74072750D01*
X89027000Y-75438000D01*
X89047000Y-75438000D01*
X89047000Y-75692000D01*
X89027000Y-75692000D01*
X89027000Y-75712000D01*
X88773000Y-75712000D01*
X88773000Y-75692000D01*
X87560150Y-75692000D01*
X87401400Y-75850750D01*
X87401400Y-76707309D01*
X87498073Y-76940698D01*
X87676701Y-77119327D01*
X87750770Y-77150007D01*
X87515474Y-77502152D01*
X87401400Y-78075641D01*
X87401400Y-78134359D01*
X87515474Y-78707848D01*
X87840330Y-79194029D01*
X88111161Y-79374992D01*
X87693179Y-79756510D01*
X87445032Y-80285973D01*
X87565531Y-80518000D01*
X88773000Y-80518000D01*
X88773000Y-80498000D01*
X89027000Y-80498000D01*
X89027000Y-80518000D01*
X89047000Y-80518000D01*
X89047000Y-80772000D01*
X89027000Y-80772000D01*
X89027000Y-81978817D01*
X89259026Y-82099958D01*
X89317188Y-82075868D01*
X89311589Y-82079609D01*
X84569320Y-86821878D01*
X84523833Y-86821838D01*
X84180057Y-86963883D01*
X83916808Y-87226673D01*
X83774162Y-87570201D01*
X83773838Y-87942167D01*
X83915883Y-88285943D01*
X84178673Y-88549192D01*
X84522201Y-88691838D01*
X84894167Y-88692162D01*
X85237943Y-88550117D01*
X85501192Y-88287327D01*
X85643838Y-87943799D01*
X85643879Y-87896923D01*
X90163792Y-83377010D01*
X91824188Y-83377010D01*
X77567599Y-97633599D01*
X77402852Y-97880161D01*
X77386629Y-97961719D01*
X77129634Y-97790000D01*
X77444415Y-97579670D01*
X77769271Y-97093489D01*
X77883345Y-96520000D01*
X77769271Y-95946511D01*
X77444415Y-95460330D01*
X77129634Y-95250000D01*
X77444415Y-95039670D01*
X77769271Y-94553489D01*
X77883345Y-93980000D01*
X77769271Y-93406511D01*
X77444415Y-92920330D01*
X77129634Y-92710000D01*
X77444415Y-92499670D01*
X77769271Y-92013489D01*
X77883345Y-91440000D01*
X77769271Y-90866511D01*
X77444415Y-90380330D01*
X77129634Y-90170000D01*
X77444415Y-89959670D01*
X77769271Y-89473489D01*
X77883345Y-88900000D01*
X77769271Y-88326511D01*
X77444415Y-87840330D01*
X77134931Y-87633539D01*
X77550732Y-87262036D01*
X77804709Y-86734791D01*
X77807358Y-86719026D01*
X77686217Y-86487000D01*
X76327000Y-86487000D01*
X76327000Y-86507000D01*
X76073000Y-86507000D01*
X76073000Y-86487000D01*
X74713783Y-86487000D01*
X74592642Y-86719026D01*
X74595291Y-86734791D01*
X74849268Y-87262036D01*
X75265069Y-87633539D01*
X74955585Y-87840330D01*
X74630729Y-88326511D01*
X74516655Y-88900000D01*
X74592334Y-89280464D01*
X74543898Y-89328900D01*
X73177200Y-89328900D01*
X72886360Y-89386752D01*
X72639799Y-89551499D01*
X67084589Y-95106709D01*
X66919842Y-95353271D01*
X66861990Y-95644110D01*
X66861990Y-150628798D01*
X58321589Y-159169199D01*
X58156842Y-159415761D01*
X58098990Y-159706600D01*
X58098991Y-164836701D01*
X57806627Y-164715301D01*
X57116401Y-164714699D01*
X56478485Y-164978281D01*
X55989996Y-165465918D01*
X55725301Y-166103373D01*
X55724699Y-166793599D01*
X55988281Y-167431515D01*
X56475918Y-167920004D01*
X57113373Y-168184699D01*
X57803599Y-168185301D01*
X58441515Y-167921719D01*
X58930004Y-167434082D01*
X59112169Y-166995381D01*
X60341788Y-168225000D01*
X48945000Y-168225000D01*
X48945000Y-164937325D01*
X50065587Y-164937325D01*
X50427916Y-165814229D01*
X51098242Y-166485726D01*
X51974513Y-166849585D01*
X52923325Y-166850413D01*
X53800229Y-166488084D01*
X54471726Y-165817758D01*
X54835585Y-164941487D01*
X54836413Y-163992675D01*
X54474084Y-163115771D01*
X53803758Y-162444274D01*
X52927487Y-162080415D01*
X51978675Y-162079587D01*
X51101771Y-162441916D01*
X50430274Y-163112242D01*
X50066415Y-163988513D01*
X50065587Y-164937325D01*
X48945000Y-164937325D01*
X48945000Y-83820000D01*
X74516655Y-83820000D01*
X74630729Y-84393489D01*
X74955585Y-84879670D01*
X75265069Y-85086461D01*
X74849268Y-85457964D01*
X74595291Y-85985209D01*
X74592642Y-86000974D01*
X74713783Y-86233000D01*
X76073000Y-86233000D01*
X76073000Y-86213000D01*
X76327000Y-86213000D01*
X76327000Y-86233000D01*
X77686217Y-86233000D01*
X77807358Y-86000974D01*
X77804709Y-85985209D01*
X77550732Y-85457964D01*
X77134931Y-85086461D01*
X77444415Y-84879670D01*
X77769271Y-84393489D01*
X77883345Y-83820000D01*
X77769271Y-83246511D01*
X77444415Y-82760330D01*
X77430087Y-82750757D01*
X77451317Y-82746762D01*
X77667441Y-82607690D01*
X77812431Y-82395490D01*
X77863440Y-82143600D01*
X77863440Y-81004027D01*
X87445032Y-81004027D01*
X87693179Y-81533490D01*
X88125053Y-81927688D01*
X88540974Y-82099958D01*
X88773000Y-81978817D01*
X88773000Y-80772000D01*
X87565531Y-80772000D01*
X87445032Y-81004027D01*
X77863440Y-81004027D01*
X77863440Y-80416400D01*
X77819162Y-80181083D01*
X77680090Y-79964959D01*
X77467890Y-79819969D01*
X77216000Y-79768960D01*
X75184000Y-79768960D01*
X74948683Y-79813238D01*
X74732559Y-79952310D01*
X74587569Y-80164510D01*
X74536560Y-80416400D01*
X74536560Y-82143600D01*
X74580838Y-82378917D01*
X74719910Y-82595041D01*
X74932110Y-82740031D01*
X74973439Y-82748400D01*
X74955585Y-82760330D01*
X74630729Y-83246511D01*
X74516655Y-83820000D01*
X48945000Y-83820000D01*
X48945000Y-74422691D01*
X87401400Y-74422691D01*
X87401400Y-75279250D01*
X87560150Y-75438000D01*
X88773000Y-75438000D01*
X88773000Y-74072750D01*
X88614250Y-73914000D01*
X87910090Y-73914000D01*
X87676701Y-74010673D01*
X87498073Y-74189302D01*
X87401400Y-74422691D01*
X48945000Y-74422691D01*
X48945000Y-71501000D01*
X94170732Y-71501000D01*
X91731996Y-73939736D01*
G36*
X86393748Y-164965858D02*
X86379605Y-164980000D01*
X86393748Y-164994143D01*
X86214143Y-165173748D01*
X86200000Y-165159605D01*
X86185858Y-165173748D01*
X86006253Y-164994143D01*
X86020395Y-164980000D01*
X86006253Y-164965858D01*
X86185858Y-164786253D01*
X86200000Y-164800395D01*
X86214143Y-164786253D01*
X86393748Y-164965858D01*
X86393748Y-164965858D01*
G37*
X86393748Y-164965858D02*
X86379605Y-164980000D01*
X86393748Y-164994143D01*
X86214143Y-165173748D01*
X86200000Y-165159605D01*
X86185858Y-165173748D01*
X86006253Y-164994143D01*
X86020395Y-164980000D01*
X86006253Y-164965858D01*
X86185858Y-164786253D01*
X86200000Y-164800395D01*
X86214143Y-164786253D01*
X86393748Y-164965858D01*
G36*
X81593748Y-164965858D02*
X81579605Y-164980000D01*
X81593748Y-164994143D01*
X81414143Y-165173748D01*
X81400000Y-165159605D01*
X81385858Y-165173748D01*
X81206253Y-164994143D01*
X81220395Y-164980000D01*
X81206253Y-164965858D01*
X81385858Y-164786253D01*
X81400000Y-164800395D01*
X81414143Y-164786253D01*
X81593748Y-164965858D01*
X81593748Y-164965858D01*
G37*
X81593748Y-164965858D02*
X81579605Y-164980000D01*
X81593748Y-164994143D01*
X81414143Y-165173748D01*
X81400000Y-165159605D01*
X81385858Y-165173748D01*
X81206253Y-164994143D01*
X81220395Y-164980000D01*
X81206253Y-164965858D01*
X81385858Y-164786253D01*
X81400000Y-164800395D01*
X81414143Y-164786253D01*
X81593748Y-164965858D01*
G36*
X73593748Y-164965858D02*
X73579605Y-164980000D01*
X73593748Y-164994143D01*
X73414143Y-165173748D01*
X73400000Y-165159605D01*
X73385858Y-165173748D01*
X73363747Y-165151637D01*
X73346148Y-165063161D01*
X73325000Y-165031511D01*
X73325000Y-164847110D01*
X73385858Y-164786253D01*
X73400000Y-164800395D01*
X73414143Y-164786253D01*
X73593748Y-164965858D01*
X73593748Y-164965858D01*
G37*
X73593748Y-164965858D02*
X73579605Y-164980000D01*
X73593748Y-164994143D01*
X73414143Y-165173748D01*
X73400000Y-165159605D01*
X73385858Y-165173748D01*
X73363747Y-165151637D01*
X73346148Y-165063161D01*
X73325000Y-165031511D01*
X73325000Y-164847110D01*
X73385858Y-164786253D01*
X73400000Y-164800395D01*
X73414143Y-164786253D01*
X73593748Y-164965858D01*
G36*
X68675000Y-164847110D02*
X68675000Y-165073198D01*
X68580154Y-165168044D01*
X68531291Y-165119181D01*
X68525000Y-165087553D01*
X68525000Y-164847110D01*
X68585858Y-164786253D01*
X68600000Y-164800395D01*
X68614143Y-164786253D01*
X68675000Y-164847110D01*
X68675000Y-164847110D01*
G37*
X68675000Y-164847110D02*
X68675000Y-165073198D01*
X68580154Y-165168044D01*
X68531291Y-165119181D01*
X68525000Y-165087553D01*
X68525000Y-164847110D01*
X68585858Y-164786253D01*
X68600000Y-164800395D01*
X68614143Y-164786253D01*
X68675000Y-164847110D01*
G36*
X75920999Y-163743109D02*
X75993748Y-163815858D01*
X75979605Y-163830000D01*
X75993748Y-163844143D01*
X75814143Y-164023748D01*
X75800000Y-164009605D01*
X75785858Y-164023748D01*
X75606253Y-163844143D01*
X75620395Y-163830000D01*
X75606253Y-163815858D01*
X75750005Y-163672105D01*
X75920999Y-163743109D01*
X75920999Y-163743109D01*
G37*
X75920999Y-163743109D02*
X75993748Y-163815858D01*
X75979605Y-163830000D01*
X75993748Y-163844143D01*
X75814143Y-164023748D01*
X75800000Y-164009605D01*
X75785858Y-164023748D01*
X75606253Y-163844143D01*
X75620395Y-163830000D01*
X75606253Y-163815858D01*
X75750005Y-163672105D01*
X75920999Y-163743109D01*
G36*
X66320999Y-163743109D02*
X66393748Y-163815858D01*
X66379605Y-163830000D01*
X66393748Y-163844143D01*
X66214143Y-164023748D01*
X66200000Y-164009605D01*
X66185858Y-164023748D01*
X66043957Y-163881847D01*
X66223274Y-163702530D01*
X66320999Y-163743109D01*
X66320999Y-163743109D01*
G37*
X66320999Y-163743109D02*
X66393748Y-163815858D01*
X66379605Y-163830000D01*
X66393748Y-163844143D01*
X66214143Y-164023748D01*
X66200000Y-164009605D01*
X66185858Y-164023748D01*
X66043957Y-163881847D01*
X66223274Y-163702530D01*
X66320999Y-163743109D01*
G36*
X71120999Y-163743109D02*
X71193748Y-163815858D01*
X71179605Y-163830000D01*
X71193748Y-163844143D01*
X71014143Y-164023748D01*
X71000000Y-164009605D01*
X70985858Y-164023748D01*
X70806253Y-163844143D01*
X70820395Y-163830000D01*
X70806253Y-163815858D01*
X70950005Y-163672105D01*
X71120999Y-163743109D01*
X71120999Y-163743109D01*
G37*
X71120999Y-163743109D02*
X71193748Y-163815858D01*
X71179605Y-163830000D01*
X71193748Y-163844143D01*
X71014143Y-164023748D01*
X71000000Y-164009605D01*
X70985858Y-164023748D01*
X70806253Y-163844143D01*
X70820395Y-163830000D01*
X70806253Y-163815858D01*
X70950005Y-163672105D01*
X71120999Y-163743109D01*
G36*
X83920999Y-163743109D02*
X83993748Y-163815858D01*
X83979605Y-163830000D01*
X83993748Y-163844143D01*
X83814143Y-164023748D01*
X83800000Y-164009605D01*
X83785858Y-164023748D01*
X83606253Y-163844143D01*
X83620395Y-163830000D01*
X83606253Y-163815858D01*
X83750005Y-163672105D01*
X83920999Y-163743109D01*
X83920999Y-163743109D01*
G37*
X83920999Y-163743109D02*
X83993748Y-163815858D01*
X83979605Y-163830000D01*
X83993748Y-163844143D01*
X83814143Y-164023748D01*
X83800000Y-164009605D01*
X83785858Y-164023748D01*
X83606253Y-163844143D01*
X83620395Y-163830000D01*
X83606253Y-163815858D01*
X83750005Y-163672105D01*
X83920999Y-163743109D01*
G36*
X88720999Y-163743109D02*
X88793748Y-163815858D01*
X88779605Y-163830000D01*
X88793748Y-163844143D01*
X88614143Y-164023748D01*
X88600000Y-164009605D01*
X88585858Y-164023748D01*
X88406253Y-163844143D01*
X88420395Y-163830000D01*
X88406253Y-163815858D01*
X88550005Y-163672105D01*
X88720999Y-163743109D01*
X88720999Y-163743109D01*
G37*
X88720999Y-163743109D02*
X88793748Y-163815858D01*
X88779605Y-163830000D01*
X88793748Y-163844143D01*
X88614143Y-164023748D01*
X88600000Y-164009605D01*
X88585858Y-164023748D01*
X88406253Y-163844143D01*
X88420395Y-163830000D01*
X88406253Y-163815858D01*
X88550005Y-163672105D01*
X88720999Y-163743109D01*
G36*
X81193748Y-162615858D02*
X81179605Y-162630000D01*
X81193748Y-162644143D01*
X81049995Y-162787895D01*
X80879001Y-162716891D01*
X80806253Y-162644143D01*
X80820395Y-162630000D01*
X80806253Y-162615858D01*
X80985858Y-162436253D01*
X81000000Y-162450395D01*
X81014143Y-162436253D01*
X81193748Y-162615858D01*
X81193748Y-162615858D01*
G37*
X81193748Y-162615858D02*
X81179605Y-162630000D01*
X81193748Y-162644143D01*
X81049995Y-162787895D01*
X80879001Y-162716891D01*
X80806253Y-162644143D01*
X80820395Y-162630000D01*
X80806253Y-162615858D01*
X80985858Y-162436253D01*
X81000000Y-162450395D01*
X81014143Y-162436253D01*
X81193748Y-162615858D01*
G36*
X68393748Y-162615858D02*
X68379605Y-162630000D01*
X68393748Y-162644143D01*
X68249995Y-162787895D01*
X68079001Y-162716891D01*
X68006253Y-162644143D01*
X68020395Y-162630000D01*
X68006253Y-162615858D01*
X68185858Y-162436253D01*
X68200000Y-162450395D01*
X68214143Y-162436253D01*
X68393748Y-162615858D01*
X68393748Y-162615858D01*
G37*
X68393748Y-162615858D02*
X68379605Y-162630000D01*
X68393748Y-162644143D01*
X68249995Y-162787895D01*
X68079001Y-162716891D01*
X68006253Y-162644143D01*
X68020395Y-162630000D01*
X68006253Y-162615858D01*
X68185858Y-162436253D01*
X68200000Y-162450395D01*
X68214143Y-162436253D01*
X68393748Y-162615858D01*
G36*
X85993748Y-162615858D02*
X85979605Y-162630000D01*
X85993748Y-162644143D01*
X85849995Y-162787895D01*
X85679001Y-162716891D01*
X85606253Y-162644143D01*
X85620395Y-162630000D01*
X85606253Y-162615858D01*
X85785858Y-162436253D01*
X85800000Y-162450395D01*
X85814143Y-162436253D01*
X85993748Y-162615858D01*
X85993748Y-162615858D01*
G37*
X85993748Y-162615858D02*
X85979605Y-162630000D01*
X85993748Y-162644143D01*
X85849995Y-162787895D01*
X85679001Y-162716891D01*
X85606253Y-162644143D01*
X85620395Y-162630000D01*
X85606253Y-162615858D01*
X85785858Y-162436253D01*
X85800000Y-162450395D01*
X85814143Y-162436253D01*
X85993748Y-162615858D01*
G36*
X73193748Y-162615858D02*
X73179605Y-162630000D01*
X73193748Y-162644143D01*
X73049995Y-162787895D01*
X72879001Y-162716891D01*
X72806253Y-162644143D01*
X72820395Y-162630000D01*
X72806253Y-162615858D01*
X72985858Y-162436253D01*
X73000000Y-162450395D01*
X73014143Y-162436253D01*
X73193748Y-162615858D01*
X73193748Y-162615858D01*
G37*
X73193748Y-162615858D02*
X73179605Y-162630000D01*
X73193748Y-162644143D01*
X73049995Y-162787895D01*
X72879001Y-162716891D01*
X72806253Y-162644143D01*
X72820395Y-162630000D01*
X72806253Y-162615858D01*
X72985858Y-162436253D01*
X73000000Y-162450395D01*
X73014143Y-162436253D01*
X73193748Y-162615858D01*
G36*
X90793748Y-162615858D02*
X90779605Y-162630000D01*
X90793748Y-162644143D01*
X90649995Y-162787895D01*
X90479001Y-162716891D01*
X90406253Y-162644143D01*
X90420395Y-162630000D01*
X90406253Y-162615858D01*
X90585858Y-162436253D01*
X90600000Y-162450395D01*
X90614143Y-162436253D01*
X90793748Y-162615858D01*
X90793748Y-162615858D01*
G37*
X90793748Y-162615858D02*
X90779605Y-162630000D01*
X90793748Y-162644143D01*
X90649995Y-162787895D01*
X90479001Y-162716891D01*
X90406253Y-162644143D01*
X90420395Y-162630000D01*
X90406253Y-162615858D01*
X90585858Y-162436253D01*
X90600000Y-162450395D01*
X90614143Y-162436253D01*
X90793748Y-162615858D01*
G36*
X65993748Y-161465858D02*
X65979605Y-161480000D01*
X65993748Y-161494143D01*
X65814143Y-161673748D01*
X65800000Y-161659605D01*
X65785858Y-161673748D01*
X65622955Y-161510845D01*
X65830845Y-161302955D01*
X65993748Y-161465858D01*
X65993748Y-161465858D01*
G37*
X65993748Y-161465858D02*
X65979605Y-161480000D01*
X65993748Y-161494143D01*
X65814143Y-161673748D01*
X65800000Y-161659605D01*
X65785858Y-161673748D01*
X65622955Y-161510845D01*
X65830845Y-161302955D01*
X65993748Y-161465858D01*
G36*
X88393748Y-161465858D02*
X88379605Y-161480000D01*
X88393748Y-161494143D01*
X88214143Y-161673748D01*
X88200000Y-161659605D01*
X88185858Y-161673748D01*
X88006253Y-161494143D01*
X88020395Y-161480000D01*
X88006253Y-161465858D01*
X88185858Y-161286253D01*
X88200000Y-161300395D01*
X88214143Y-161286253D01*
X88393748Y-161465858D01*
X88393748Y-161465858D01*
G37*
X88393748Y-161465858D02*
X88379605Y-161480000D01*
X88393748Y-161494143D01*
X88214143Y-161673748D01*
X88200000Y-161659605D01*
X88185858Y-161673748D01*
X88006253Y-161494143D01*
X88020395Y-161480000D01*
X88006253Y-161465858D01*
X88185858Y-161286253D01*
X88200000Y-161300395D01*
X88214143Y-161286253D01*
X88393748Y-161465858D01*
G36*
X83593748Y-161465858D02*
X83579605Y-161480000D01*
X83593748Y-161494143D01*
X83414143Y-161673748D01*
X83400000Y-161659605D01*
X83385858Y-161673748D01*
X83325000Y-161612890D01*
X83325000Y-161347110D01*
X83385858Y-161286253D01*
X83400000Y-161300395D01*
X83414143Y-161286253D01*
X83593748Y-161465858D01*
X83593748Y-161465858D01*
G37*
X83593748Y-161465858D02*
X83579605Y-161480000D01*
X83593748Y-161494143D01*
X83414143Y-161673748D01*
X83400000Y-161659605D01*
X83385858Y-161673748D01*
X83325000Y-161612890D01*
X83325000Y-161347110D01*
X83385858Y-161286253D01*
X83400000Y-161300395D01*
X83414143Y-161286253D01*
X83593748Y-161465858D01*
G36*
X75593748Y-161465858D02*
X75579605Y-161480000D01*
X75593748Y-161494143D01*
X75414143Y-161673748D01*
X75400000Y-161659605D01*
X75385858Y-161673748D01*
X75325000Y-161612890D01*
X75325000Y-161347110D01*
X75385858Y-161286253D01*
X75400000Y-161300395D01*
X75414143Y-161286253D01*
X75593748Y-161465858D01*
X75593748Y-161465858D01*
G37*
X75593748Y-161465858D02*
X75579605Y-161480000D01*
X75593748Y-161494143D01*
X75414143Y-161673748D01*
X75400000Y-161659605D01*
X75385858Y-161673748D01*
X75325000Y-161612890D01*
X75325000Y-161347110D01*
X75385858Y-161286253D01*
X75400000Y-161300395D01*
X75414143Y-161286253D01*
X75593748Y-161465858D01*
G36*
X70675000Y-161612890D02*
X70614143Y-161673748D01*
X70600000Y-161659605D01*
X70585858Y-161673748D01*
X70525000Y-161612890D01*
X70525000Y-161414999D01*
X70675000Y-161414999D01*
X70675000Y-161612890D01*
X70675000Y-161612890D01*
G37*
X70675000Y-161612890D02*
X70614143Y-161673748D01*
X70600000Y-161659605D01*
X70585858Y-161673748D01*
X70525000Y-161612890D01*
X70525000Y-161414999D01*
X70675000Y-161414999D01*
X70675000Y-161612890D01*
G36*
X81262599Y-160470350D02*
X81259250Y-160475361D01*
X81157914Y-160517233D01*
X81000004Y-160674867D01*
X80843765Y-160518355D01*
X80426756Y-160345197D01*
X79975225Y-160344803D01*
X79557914Y-160517233D01*
X79400004Y-160674867D01*
X79243765Y-160518355D01*
X78826756Y-160345197D01*
X78375225Y-160344803D01*
X77957914Y-160517233D01*
X77800004Y-160674867D01*
X77643765Y-160518355D01*
X77226756Y-160345197D01*
X76775225Y-160344803D01*
X76357914Y-160517233D01*
X76213978Y-160660918D01*
X76126726Y-160573666D01*
X76010499Y-160689893D01*
X76004521Y-160655281D01*
X76398822Y-160260980D01*
X81471969Y-160260980D01*
X81262599Y-160470350D01*
X81262599Y-160470350D01*
G37*
X81262599Y-160470350D02*
X81259250Y-160475361D01*
X81157914Y-160517233D01*
X81000004Y-160674867D01*
X80843765Y-160518355D01*
X80426756Y-160345197D01*
X79975225Y-160344803D01*
X79557914Y-160517233D01*
X79400004Y-160674867D01*
X79243765Y-160518355D01*
X78826756Y-160345197D01*
X78375225Y-160344803D01*
X77957914Y-160517233D01*
X77800004Y-160674867D01*
X77643765Y-160518355D01*
X77226756Y-160345197D01*
X76775225Y-160344803D01*
X76357914Y-160517233D01*
X76213978Y-160660918D01*
X76126726Y-160573666D01*
X76010499Y-160689893D01*
X76004521Y-160655281D01*
X76398822Y-160260980D01*
X81471969Y-160260980D01*
X81262599Y-160470350D01*
G36*
X146816000Y-100823579D02*
X146816000Y-142762421D01*
X132851210Y-156727210D01*
X132851208Y-156727213D01*
X131170131Y-158408289D01*
X130810000Y-158336655D01*
X130236511Y-158450729D01*
X129750330Y-158775585D01*
X129543539Y-159085069D01*
X129172036Y-158669268D01*
X128644791Y-158415291D01*
X128629026Y-158412642D01*
X128397002Y-158533782D01*
X128397002Y-158452178D01*
X139099388Y-147749791D01*
X139099391Y-147749789D01*
X139291234Y-147462674D01*
X139358601Y-147123999D01*
X139358601Y-144962907D01*
X139640201Y-145079838D01*
X140012167Y-145080162D01*
X140355943Y-144938117D01*
X140619192Y-144675327D01*
X140761838Y-144331799D01*
X140762162Y-143959833D01*
X140632999Y-143647234D01*
X140632999Y-143107376D01*
X140575147Y-142816537D01*
X140410400Y-142569975D01*
X140333000Y-142492575D01*
X140333000Y-140385333D01*
X140439673Y-140492192D01*
X140783201Y-140634838D01*
X141105312Y-140635119D01*
X141258393Y-140788466D01*
X141565179Y-140915855D01*
X141598594Y-140915884D01*
X141658708Y-141061372D01*
X141893393Y-141296466D01*
X142200179Y-141423855D01*
X142532363Y-141424145D01*
X142839372Y-141297292D01*
X143074466Y-141062607D01*
X143201855Y-140755821D01*
X143202145Y-140423637D01*
X143127000Y-140241771D01*
X143127000Y-130429000D01*
X143069148Y-130138161D01*
X142904401Y-129891599D01*
X139588020Y-126575218D01*
X139588020Y-108297091D01*
X139662875Y-108116821D01*
X139663165Y-107784637D01*
X139536312Y-107477628D01*
X139301627Y-107242534D01*
X139063000Y-107143447D01*
X139063000Y-107068080D01*
X139154875Y-106846821D01*
X139155165Y-106514637D01*
X139028312Y-106207628D01*
X138990749Y-106170000D01*
X140315738Y-106170000D01*
X140515971Y-106469670D01*
X140830752Y-106680000D01*
X140515971Y-106890330D01*
X140191115Y-107376511D01*
X140077041Y-107950000D01*
X140191115Y-108523489D01*
X140515971Y-109009670D01*
X140830752Y-109220000D01*
X140515971Y-109430330D01*
X140191115Y-109916511D01*
X140077041Y-110490000D01*
X140191115Y-111063489D01*
X140515971Y-111549670D01*
X140839228Y-111765664D01*
X140716510Y-111823179D01*
X140322312Y-112255053D01*
X140150042Y-112670974D01*
X140271183Y-112903000D01*
X141478000Y-112903000D01*
X141478000Y-112883000D01*
X141732000Y-112883000D01*
X141732000Y-112903000D01*
X141752000Y-112903000D01*
X141752000Y-113157000D01*
X141732000Y-113157000D01*
X141732000Y-113177000D01*
X141478000Y-113177000D01*
X141478000Y-113157000D01*
X140271183Y-113157000D01*
X140150042Y-113389026D01*
X140322312Y-113804947D01*
X140716510Y-114236821D01*
X140839228Y-114294336D01*
X140515971Y-114510330D01*
X140191115Y-114996511D01*
X140077041Y-115570000D01*
X140191115Y-116143489D01*
X140515971Y-116629670D01*
X140830752Y-116840000D01*
X140515971Y-117050330D01*
X140191115Y-117536511D01*
X140077041Y-118110000D01*
X140191115Y-118683489D01*
X140515971Y-119169670D01*
X140830752Y-119380000D01*
X140515971Y-119590330D01*
X140191115Y-120076511D01*
X140077041Y-120650000D01*
X140191115Y-121223489D01*
X140515971Y-121709670D01*
X140830752Y-121920000D01*
X140515971Y-122130330D01*
X140191115Y-122616511D01*
X140077041Y-123190000D01*
X140191115Y-123763489D01*
X140515971Y-124249670D01*
X140830752Y-124460000D01*
X140515971Y-124670330D01*
X140191115Y-125156511D01*
X140077041Y-125730000D01*
X140191115Y-126303489D01*
X140515971Y-126789670D01*
X141002152Y-127114526D01*
X141575641Y-127228600D01*
X141634359Y-127228600D01*
X142207848Y-127114526D01*
X142694029Y-126789670D01*
X142874992Y-126518839D01*
X143256510Y-126936821D01*
X143785973Y-127184968D01*
X144018000Y-127064469D01*
X144018000Y-125857000D01*
X144272000Y-125857000D01*
X144272000Y-127064469D01*
X144504027Y-127184968D01*
X145033490Y-126936821D01*
X145427688Y-126504947D01*
X145599958Y-126089026D01*
X145478817Y-125857000D01*
X144272000Y-125857000D01*
X144018000Y-125857000D01*
X143998000Y-125857000D01*
X143998000Y-125603000D01*
X144018000Y-125603000D01*
X144018000Y-125583000D01*
X144272000Y-125583000D01*
X144272000Y-125603000D01*
X145478817Y-125603000D01*
X145599958Y-125370974D01*
X145427688Y-124955053D01*
X145033490Y-124523179D01*
X144910772Y-124465664D01*
X145234029Y-124249670D01*
X145558885Y-123763489D01*
X145672959Y-123190000D01*
X145558885Y-122616511D01*
X145234029Y-122130330D01*
X144919248Y-121920000D01*
X145234029Y-121709670D01*
X145558885Y-121223489D01*
X145672959Y-120650000D01*
X145558885Y-120076511D01*
X145234029Y-119590330D01*
X144919248Y-119380000D01*
X145234029Y-119169670D01*
X145558885Y-118683489D01*
X145672959Y-118110000D01*
X145558885Y-117536511D01*
X145234029Y-117050330D01*
X144919248Y-116840000D01*
X145234029Y-116629670D01*
X145558885Y-116143489D01*
X145672959Y-115570000D01*
X145558885Y-114996511D01*
X145234029Y-114510330D01*
X144919248Y-114300000D01*
X145234029Y-114089670D01*
X145558885Y-113603489D01*
X145672959Y-113030000D01*
X145558885Y-112456511D01*
X145234029Y-111970330D01*
X144919248Y-111760000D01*
X145234029Y-111549670D01*
X145558885Y-111063489D01*
X145672959Y-110490000D01*
X145558885Y-109916511D01*
X145234029Y-109430330D01*
X144919248Y-109220000D01*
X145234029Y-109009670D01*
X145558885Y-108523489D01*
X145672959Y-107950000D01*
X145558885Y-107376511D01*
X145234029Y-106890330D01*
X144919248Y-106680000D01*
X145234029Y-106469670D01*
X145558885Y-105983489D01*
X145672959Y-105410000D01*
X145558885Y-104836511D01*
X145234029Y-104350330D01*
X144919248Y-104140000D01*
X145234029Y-103929670D01*
X145558885Y-103443489D01*
X145672959Y-102870000D01*
X145558885Y-102296511D01*
X145234029Y-101810330D01*
X144910772Y-101594336D01*
X145033490Y-101536821D01*
X145427688Y-101104947D01*
X145599958Y-100689026D01*
X145478817Y-100457000D01*
X144272000Y-100457000D01*
X144272000Y-100477000D01*
X144018000Y-100477000D01*
X144018000Y-100457000D01*
X143998000Y-100457000D01*
X143998000Y-100203000D01*
X144018000Y-100203000D01*
X144018000Y-100183000D01*
X144272000Y-100183000D01*
X144272000Y-100203000D01*
X145478817Y-100203000D01*
X145599958Y-99970974D01*
X145431394Y-99564000D01*
X145556420Y-99564000D01*
X146816000Y-100823579D01*
X146816000Y-100823579D01*
G37*
X146816000Y-100823579D02*
X146816000Y-142762421D01*
X132851210Y-156727210D01*
X132851208Y-156727213D01*
X131170131Y-158408289D01*
X130810000Y-158336655D01*
X130236511Y-158450729D01*
X129750330Y-158775585D01*
X129543539Y-159085069D01*
X129172036Y-158669268D01*
X128644791Y-158415291D01*
X128629026Y-158412642D01*
X128397002Y-158533782D01*
X128397002Y-158452178D01*
X139099388Y-147749791D01*
X139099391Y-147749789D01*
X139291234Y-147462674D01*
X139358601Y-147123999D01*
X139358601Y-144962907D01*
X139640201Y-145079838D01*
X140012167Y-145080162D01*
X140355943Y-144938117D01*
X140619192Y-144675327D01*
X140761838Y-144331799D01*
X140762162Y-143959833D01*
X140632999Y-143647234D01*
X140632999Y-143107376D01*
X140575147Y-142816537D01*
X140410400Y-142569975D01*
X140333000Y-142492575D01*
X140333000Y-140385333D01*
X140439673Y-140492192D01*
X140783201Y-140634838D01*
X141105312Y-140635119D01*
X141258393Y-140788466D01*
X141565179Y-140915855D01*
X141598594Y-140915884D01*
X141658708Y-141061372D01*
X141893393Y-141296466D01*
X142200179Y-141423855D01*
X142532363Y-141424145D01*
X142839372Y-141297292D01*
X143074466Y-141062607D01*
X143201855Y-140755821D01*
X143202145Y-140423637D01*
X143127000Y-140241771D01*
X143127000Y-130429000D01*
X143069148Y-130138161D01*
X142904401Y-129891599D01*
X139588020Y-126575218D01*
X139588020Y-108297091D01*
X139662875Y-108116821D01*
X139663165Y-107784637D01*
X139536312Y-107477628D01*
X139301627Y-107242534D01*
X139063000Y-107143447D01*
X139063000Y-107068080D01*
X139154875Y-106846821D01*
X139155165Y-106514637D01*
X139028312Y-106207628D01*
X138990749Y-106170000D01*
X140315738Y-106170000D01*
X140515971Y-106469670D01*
X140830752Y-106680000D01*
X140515971Y-106890330D01*
X140191115Y-107376511D01*
X140077041Y-107950000D01*
X140191115Y-108523489D01*
X140515971Y-109009670D01*
X140830752Y-109220000D01*
X140515971Y-109430330D01*
X140191115Y-109916511D01*
X140077041Y-110490000D01*
X140191115Y-111063489D01*
X140515971Y-111549670D01*
X140839228Y-111765664D01*
X140716510Y-111823179D01*
X140322312Y-112255053D01*
X140150042Y-112670974D01*
X140271183Y-112903000D01*
X141478000Y-112903000D01*
X141478000Y-112883000D01*
X141732000Y-112883000D01*
X141732000Y-112903000D01*
X141752000Y-112903000D01*
X141752000Y-113157000D01*
X141732000Y-113157000D01*
X141732000Y-113177000D01*
X141478000Y-113177000D01*
X141478000Y-113157000D01*
X140271183Y-113157000D01*
X140150042Y-113389026D01*
X140322312Y-113804947D01*
X140716510Y-114236821D01*
X140839228Y-114294336D01*
X140515971Y-114510330D01*
X140191115Y-114996511D01*
X140077041Y-115570000D01*
X140191115Y-116143489D01*
X140515971Y-116629670D01*
X140830752Y-116840000D01*
X140515971Y-117050330D01*
X140191115Y-117536511D01*
X140077041Y-118110000D01*
X140191115Y-118683489D01*
X140515971Y-119169670D01*
X140830752Y-119380000D01*
X140515971Y-119590330D01*
X140191115Y-120076511D01*
X140077041Y-120650000D01*
X140191115Y-121223489D01*
X140515971Y-121709670D01*
X140830752Y-121920000D01*
X140515971Y-122130330D01*
X140191115Y-122616511D01*
X140077041Y-123190000D01*
X140191115Y-123763489D01*
X140515971Y-124249670D01*
X140830752Y-124460000D01*
X140515971Y-124670330D01*
X140191115Y-125156511D01*
X140077041Y-125730000D01*
X140191115Y-126303489D01*
X140515971Y-126789670D01*
X141002152Y-127114526D01*
X141575641Y-127228600D01*
X141634359Y-127228600D01*
X142207848Y-127114526D01*
X142694029Y-126789670D01*
X142874992Y-126518839D01*
X143256510Y-126936821D01*
X143785973Y-127184968D01*
X144018000Y-127064469D01*
X144018000Y-125857000D01*
X144272000Y-125857000D01*
X144272000Y-127064469D01*
X144504027Y-127184968D01*
X145033490Y-126936821D01*
X145427688Y-126504947D01*
X145599958Y-126089026D01*
X145478817Y-125857000D01*
X144272000Y-125857000D01*
X144018000Y-125857000D01*
X143998000Y-125857000D01*
X143998000Y-125603000D01*
X144018000Y-125603000D01*
X144018000Y-125583000D01*
X144272000Y-125583000D01*
X144272000Y-125603000D01*
X145478817Y-125603000D01*
X145599958Y-125370974D01*
X145427688Y-124955053D01*
X145033490Y-124523179D01*
X144910772Y-124465664D01*
X145234029Y-124249670D01*
X145558885Y-123763489D01*
X145672959Y-123190000D01*
X145558885Y-122616511D01*
X145234029Y-122130330D01*
X144919248Y-121920000D01*
X145234029Y-121709670D01*
X145558885Y-121223489D01*
X145672959Y-120650000D01*
X145558885Y-120076511D01*
X145234029Y-119590330D01*
X144919248Y-119380000D01*
X145234029Y-119169670D01*
X145558885Y-118683489D01*
X145672959Y-118110000D01*
X145558885Y-117536511D01*
X145234029Y-117050330D01*
X144919248Y-116840000D01*
X145234029Y-116629670D01*
X145558885Y-116143489D01*
X145672959Y-115570000D01*
X145558885Y-114996511D01*
X145234029Y-114510330D01*
X144919248Y-114300000D01*
X145234029Y-114089670D01*
X145558885Y-113603489D01*
X145672959Y-113030000D01*
X145558885Y-112456511D01*
X145234029Y-111970330D01*
X144919248Y-111760000D01*
X145234029Y-111549670D01*
X145558885Y-111063489D01*
X145672959Y-110490000D01*
X145558885Y-109916511D01*
X145234029Y-109430330D01*
X144919248Y-109220000D01*
X145234029Y-109009670D01*
X145558885Y-108523489D01*
X145672959Y-107950000D01*
X145558885Y-107376511D01*
X145234029Y-106890330D01*
X144919248Y-106680000D01*
X145234029Y-106469670D01*
X145558885Y-105983489D01*
X145672959Y-105410000D01*
X145558885Y-104836511D01*
X145234029Y-104350330D01*
X144919248Y-104140000D01*
X145234029Y-103929670D01*
X145558885Y-103443489D01*
X145672959Y-102870000D01*
X145558885Y-102296511D01*
X145234029Y-101810330D01*
X144910772Y-101594336D01*
X145033490Y-101536821D01*
X145427688Y-101104947D01*
X145599958Y-100689026D01*
X145478817Y-100457000D01*
X144272000Y-100457000D01*
X144272000Y-100477000D01*
X144018000Y-100477000D01*
X144018000Y-100457000D01*
X143998000Y-100457000D01*
X143998000Y-100203000D01*
X144018000Y-100203000D01*
X144018000Y-100183000D01*
X144272000Y-100183000D01*
X144272000Y-100203000D01*
X145478817Y-100203000D01*
X145599958Y-99970974D01*
X145431394Y-99564000D01*
X145556420Y-99564000D01*
X146816000Y-100823579D01*
G36*
X84861400Y-133955641D02*
X84861400Y-134014359D01*
X84975474Y-134587848D01*
X85300330Y-135074029D01*
X85571172Y-135255000D01*
X85300330Y-135435971D01*
X84975474Y-135922152D01*
X84861400Y-136495641D01*
X84861400Y-136554359D01*
X84975474Y-137127848D01*
X85300330Y-137614029D01*
X85786511Y-137938885D01*
X86360000Y-138052959D01*
X86590525Y-138007105D01*
X88008209Y-139424788D01*
X88008211Y-139424791D01*
X88295326Y-139616634D01*
X88351517Y-139627811D01*
X88634001Y-139684002D01*
X88634006Y-139684001D01*
X90656996Y-139684001D01*
X90657001Y-139684002D01*
X90939485Y-139627811D01*
X90995676Y-139616634D01*
X91282791Y-139424791D01*
X91282792Y-139424790D01*
X92065787Y-138641794D01*
X92065790Y-138641792D01*
X92161689Y-138498268D01*
X92178308Y-138514887D01*
X92178310Y-138514890D01*
X92465425Y-138706733D01*
X92521616Y-138717910D01*
X92804100Y-138774101D01*
X92804105Y-138774100D01*
X95155895Y-138774100D01*
X95155900Y-138774101D01*
X95438384Y-138717910D01*
X95494575Y-138706733D01*
X95781690Y-138514890D01*
X95869248Y-138427332D01*
X95894210Y-138464690D01*
X104969608Y-147540087D01*
X104969610Y-147540090D01*
X105256725Y-147731933D01*
X105312916Y-147743110D01*
X105595400Y-147799301D01*
X105595405Y-147799300D01*
X111268699Y-147799300D01*
X111268699Y-156493053D01*
X111179355Y-156582241D01*
X111006197Y-156999250D01*
X111005803Y-157450781D01*
X111178233Y-157868092D01*
X111497235Y-158187651D01*
X111914244Y-158360809D01*
X112365775Y-158361203D01*
X112783086Y-158188773D01*
X113102645Y-157869771D01*
X113275803Y-157452762D01*
X113276197Y-157001231D01*
X113103767Y-156583920D01*
X113038699Y-156518738D01*
X113038699Y-153098941D01*
X113125883Y-153309943D01*
X113388673Y-153573192D01*
X113732201Y-153715838D01*
X114104167Y-153716162D01*
X114447943Y-153574117D01*
X114711192Y-153311327D01*
X114853838Y-152967799D01*
X114853879Y-152920923D01*
X117377401Y-150397401D01*
X117542148Y-150150839D01*
X117600000Y-149860000D01*
X117600000Y-149025463D01*
X117632192Y-148993327D01*
X117774838Y-148649799D01*
X117775162Y-148277833D01*
X117633117Y-147934057D01*
X117478425Y-147779095D01*
X117715523Y-147731933D01*
X118002638Y-147540090D01*
X118194481Y-147252975D01*
X118261848Y-146914300D01*
X118261848Y-143974732D01*
X124229474Y-138007105D01*
X124460000Y-138052959D01*
X125033489Y-137938885D01*
X125519670Y-137614029D01*
X125730000Y-137299248D01*
X125940330Y-137614029D01*
X126426511Y-137938885D01*
X127000000Y-138052959D01*
X127510000Y-137951514D01*
X127510000Y-144846198D01*
X113615218Y-158740980D01*
X93227789Y-158740980D01*
X93004376Y-158517568D01*
X92906545Y-158452200D01*
X92757815Y-158352822D01*
X92466976Y-158294970D01*
X91685684Y-158294970D01*
X91709818Y-158236850D01*
X91709859Y-158189974D01*
X93247401Y-156652432D01*
X93412148Y-156405870D01*
X93470000Y-156115031D01*
X93470000Y-144681563D01*
X93502192Y-144649427D01*
X93644838Y-144305899D01*
X93645162Y-143933933D01*
X93503117Y-143590157D01*
X93240327Y-143326908D01*
X92896799Y-143184262D01*
X92524833Y-143183938D01*
X92181057Y-143325983D01*
X91917808Y-143588773D01*
X91775162Y-143932301D01*
X91774838Y-144304267D01*
X91916883Y-144648043D01*
X91950000Y-144681218D01*
X91950000Y-155800229D01*
X90635300Y-157114929D01*
X90589813Y-157114889D01*
X90246037Y-157256934D01*
X89982788Y-157519724D01*
X89840142Y-157863252D01*
X89839818Y-158235218D01*
X89864507Y-158294970D01*
X83739023Y-158294971D01*
X83448184Y-158352823D01*
X83201622Y-158517570D01*
X82978212Y-158740980D01*
X76906716Y-158740980D01*
X78896401Y-156751295D01*
X79061148Y-156504733D01*
X79119000Y-156213894D01*
X79119000Y-150259895D01*
X79221393Y-150362466D01*
X79528179Y-150489855D01*
X79860363Y-150490145D01*
X80101999Y-150390303D01*
X80225175Y-150365802D01*
X83251623Y-150365802D01*
X83542462Y-150307950D01*
X83789024Y-150143203D01*
X83860219Y-150036652D01*
X84080000Y-149816871D01*
X84080000Y-151217137D01*
X84047808Y-151249273D01*
X83905162Y-151592801D01*
X83904838Y-151964767D01*
X84046883Y-152308543D01*
X84309673Y-152571792D01*
X84653201Y-152714438D01*
X85025167Y-152714762D01*
X85368943Y-152572717D01*
X85632192Y-152309927D01*
X85774838Y-151966399D01*
X85775162Y-151594433D01*
X85633117Y-151250657D01*
X85600000Y-151217482D01*
X85600000Y-149437102D01*
X85973480Y-149063622D01*
X86018967Y-149063662D01*
X86362743Y-148921617D01*
X86625992Y-148658827D01*
X86768638Y-148315299D01*
X86768962Y-147943333D01*
X86626917Y-147599557D01*
X86462260Y-147434612D01*
X88508872Y-145388000D01*
X88746702Y-145388000D01*
X88987179Y-145487855D01*
X89319363Y-145488145D01*
X89626372Y-145361292D01*
X89861466Y-145126607D01*
X89988855Y-144819821D01*
X89989145Y-144487637D01*
X89862292Y-144180628D01*
X89627607Y-143945534D01*
X89320821Y-143818145D01*
X88988637Y-143817855D01*
X88746267Y-143918000D01*
X88204425Y-143918000D01*
X87931569Y-143972275D01*
X87923153Y-143973949D01*
X87684702Y-144133276D01*
X82972177Y-148845802D01*
X80027040Y-148845802D01*
X79957109Y-148859712D01*
X79861821Y-148820145D01*
X79529637Y-148819855D01*
X79222628Y-148946708D01*
X79119000Y-149050156D01*
X79119000Y-148794214D01*
X81119203Y-146794011D01*
X81254589Y-146591391D01*
X81360878Y-146697680D01*
X81360838Y-146743167D01*
X81502883Y-147086943D01*
X81765673Y-147350192D01*
X82109201Y-147492838D01*
X82481167Y-147493162D01*
X82824943Y-147351117D01*
X83088192Y-147088327D01*
X83230838Y-146744799D01*
X83231162Y-146372833D01*
X83089117Y-146029057D01*
X82826327Y-145765808D01*
X82482799Y-145623162D01*
X82435923Y-145623121D01*
X81795999Y-144983197D01*
X81795999Y-144445108D01*
X81846167Y-144445152D01*
X82189943Y-144303107D01*
X82453192Y-144040317D01*
X82595838Y-143696789D01*
X82596162Y-143324823D01*
X82454117Y-142981047D01*
X82421000Y-142947872D01*
X82421000Y-142532637D01*
X82744201Y-142666842D01*
X83116167Y-142667166D01*
X83459943Y-142525121D01*
X83723192Y-142262331D01*
X83865838Y-141918803D01*
X83866162Y-141546837D01*
X83724117Y-141203061D01*
X83691000Y-141169886D01*
X83691000Y-134045802D01*
X84192792Y-133544010D01*
X84943278Y-133544010D01*
X84861400Y-133955641D01*
X84861400Y-133955641D01*
G37*
X84861400Y-133955641D02*
X84861400Y-134014359D01*
X84975474Y-134587848D01*
X85300330Y-135074029D01*
X85571172Y-135255000D01*
X85300330Y-135435971D01*
X84975474Y-135922152D01*
X84861400Y-136495641D01*
X84861400Y-136554359D01*
X84975474Y-137127848D01*
X85300330Y-137614029D01*
X85786511Y-137938885D01*
X86360000Y-138052959D01*
X86590525Y-138007105D01*
X88008209Y-139424788D01*
X88008211Y-139424791D01*
X88295326Y-139616634D01*
X88351517Y-139627811D01*
X88634001Y-139684002D01*
X88634006Y-139684001D01*
X90656996Y-139684001D01*
X90657001Y-139684002D01*
X90939485Y-139627811D01*
X90995676Y-139616634D01*
X91282791Y-139424791D01*
X91282792Y-139424790D01*
X92065787Y-138641794D01*
X92065790Y-138641792D01*
X92161689Y-138498268D01*
X92178308Y-138514887D01*
X92178310Y-138514890D01*
X92465425Y-138706733D01*
X92521616Y-138717910D01*
X92804100Y-138774101D01*
X92804105Y-138774100D01*
X95155895Y-138774100D01*
X95155900Y-138774101D01*
X95438384Y-138717910D01*
X95494575Y-138706733D01*
X95781690Y-138514890D01*
X95869248Y-138427332D01*
X95894210Y-138464690D01*
X104969608Y-147540087D01*
X104969610Y-147540090D01*
X105256725Y-147731933D01*
X105312916Y-147743110D01*
X105595400Y-147799301D01*
X105595405Y-147799300D01*
X111268699Y-147799300D01*
X111268699Y-156493053D01*
X111179355Y-156582241D01*
X111006197Y-156999250D01*
X111005803Y-157450781D01*
X111178233Y-157868092D01*
X111497235Y-158187651D01*
X111914244Y-158360809D01*
X112365775Y-158361203D01*
X112783086Y-158188773D01*
X113102645Y-157869771D01*
X113275803Y-157452762D01*
X113276197Y-157001231D01*
X113103767Y-156583920D01*
X113038699Y-156518738D01*
X113038699Y-153098941D01*
X113125883Y-153309943D01*
X113388673Y-153573192D01*
X113732201Y-153715838D01*
X114104167Y-153716162D01*
X114447943Y-153574117D01*
X114711192Y-153311327D01*
X114853838Y-152967799D01*
X114853879Y-152920923D01*
X117377401Y-150397401D01*
X117542148Y-150150839D01*
X117600000Y-149860000D01*
X117600000Y-149025463D01*
X117632192Y-148993327D01*
X117774838Y-148649799D01*
X117775162Y-148277833D01*
X117633117Y-147934057D01*
X117478425Y-147779095D01*
X117715523Y-147731933D01*
X118002638Y-147540090D01*
X118194481Y-147252975D01*
X118261848Y-146914300D01*
X118261848Y-143974732D01*
X124229474Y-138007105D01*
X124460000Y-138052959D01*
X125033489Y-137938885D01*
X125519670Y-137614029D01*
X125730000Y-137299248D01*
X125940330Y-137614029D01*
X126426511Y-137938885D01*
X127000000Y-138052959D01*
X127510000Y-137951514D01*
X127510000Y-144846198D01*
X113615218Y-158740980D01*
X93227789Y-158740980D01*
X93004376Y-158517568D01*
X92906545Y-158452200D01*
X92757815Y-158352822D01*
X92466976Y-158294970D01*
X91685684Y-158294970D01*
X91709818Y-158236850D01*
X91709859Y-158189974D01*
X93247401Y-156652432D01*
X93412148Y-156405870D01*
X93470000Y-156115031D01*
X93470000Y-144681563D01*
X93502192Y-144649427D01*
X93644838Y-144305899D01*
X93645162Y-143933933D01*
X93503117Y-143590157D01*
X93240327Y-143326908D01*
X92896799Y-143184262D01*
X92524833Y-143183938D01*
X92181057Y-143325983D01*
X91917808Y-143588773D01*
X91775162Y-143932301D01*
X91774838Y-144304267D01*
X91916883Y-144648043D01*
X91950000Y-144681218D01*
X91950000Y-155800229D01*
X90635300Y-157114929D01*
X90589813Y-157114889D01*
X90246037Y-157256934D01*
X89982788Y-157519724D01*
X89840142Y-157863252D01*
X89839818Y-158235218D01*
X89864507Y-158294970D01*
X83739023Y-158294971D01*
X83448184Y-158352823D01*
X83201622Y-158517570D01*
X82978212Y-158740980D01*
X76906716Y-158740980D01*
X78896401Y-156751295D01*
X79061148Y-156504733D01*
X79119000Y-156213894D01*
X79119000Y-150259895D01*
X79221393Y-150362466D01*
X79528179Y-150489855D01*
X79860363Y-150490145D01*
X80101999Y-150390303D01*
X80225175Y-150365802D01*
X83251623Y-150365802D01*
X83542462Y-150307950D01*
X83789024Y-150143203D01*
X83860219Y-150036652D01*
X84080000Y-149816871D01*
X84080000Y-151217137D01*
X84047808Y-151249273D01*
X83905162Y-151592801D01*
X83904838Y-151964767D01*
X84046883Y-152308543D01*
X84309673Y-152571792D01*
X84653201Y-152714438D01*
X85025167Y-152714762D01*
X85368943Y-152572717D01*
X85632192Y-152309927D01*
X85774838Y-151966399D01*
X85775162Y-151594433D01*
X85633117Y-151250657D01*
X85600000Y-151217482D01*
X85600000Y-149437102D01*
X85973480Y-149063622D01*
X86018967Y-149063662D01*
X86362743Y-148921617D01*
X86625992Y-148658827D01*
X86768638Y-148315299D01*
X86768962Y-147943333D01*
X86626917Y-147599557D01*
X86462260Y-147434612D01*
X88508872Y-145388000D01*
X88746702Y-145388000D01*
X88987179Y-145487855D01*
X89319363Y-145488145D01*
X89626372Y-145361292D01*
X89861466Y-145126607D01*
X89988855Y-144819821D01*
X89989145Y-144487637D01*
X89862292Y-144180628D01*
X89627607Y-143945534D01*
X89320821Y-143818145D01*
X88988637Y-143817855D01*
X88746267Y-143918000D01*
X88204425Y-143918000D01*
X87931569Y-143972275D01*
X87923153Y-143973949D01*
X87684702Y-144133276D01*
X82972177Y-148845802D01*
X80027040Y-148845802D01*
X79957109Y-148859712D01*
X79861821Y-148820145D01*
X79529637Y-148819855D01*
X79222628Y-148946708D01*
X79119000Y-149050156D01*
X79119000Y-148794214D01*
X81119203Y-146794011D01*
X81254589Y-146591391D01*
X81360878Y-146697680D01*
X81360838Y-146743167D01*
X81502883Y-147086943D01*
X81765673Y-147350192D01*
X82109201Y-147492838D01*
X82481167Y-147493162D01*
X82824943Y-147351117D01*
X83088192Y-147088327D01*
X83230838Y-146744799D01*
X83231162Y-146372833D01*
X83089117Y-146029057D01*
X82826327Y-145765808D01*
X82482799Y-145623162D01*
X82435923Y-145623121D01*
X81795999Y-144983197D01*
X81795999Y-144445108D01*
X81846167Y-144445152D01*
X82189943Y-144303107D01*
X82453192Y-144040317D01*
X82595838Y-143696789D01*
X82596162Y-143324823D01*
X82454117Y-142981047D01*
X82421000Y-142947872D01*
X82421000Y-142532637D01*
X82744201Y-142666842D01*
X83116167Y-142667166D01*
X83459943Y-142525121D01*
X83723192Y-142262331D01*
X83865838Y-141918803D01*
X83866162Y-141546837D01*
X83724117Y-141203061D01*
X83691000Y-141169886D01*
X83691000Y-134045802D01*
X84192792Y-133544010D01*
X84943278Y-133544010D01*
X84861400Y-133955641D01*
G36*
X99187000Y-136398000D02*
X99207000Y-136398000D01*
X99207000Y-136652000D01*
X99187000Y-136652000D01*
X99187000Y-137858817D01*
X99419026Y-137979958D01*
X99834947Y-137807688D01*
X99982555Y-137672957D01*
X105721999Y-143412401D01*
X105968561Y-143577148D01*
X106259400Y-143635000D01*
X111578537Y-143635000D01*
X111610673Y-143667192D01*
X111954201Y-143809838D01*
X112326167Y-143810162D01*
X112669943Y-143668117D01*
X112933192Y-143405327D01*
X113028876Y-143174895D01*
X113342167Y-143175168D01*
X113685943Y-143033123D01*
X113949192Y-142770333D01*
X114054947Y-142515649D01*
X114113201Y-142539838D01*
X114485167Y-142540162D01*
X114828943Y-142398117D01*
X115092192Y-142135327D01*
X115234838Y-141791799D01*
X115235162Y-141419833D01*
X115093117Y-141076057D01*
X114830327Y-140812808D01*
X114486799Y-140670162D01*
X114439923Y-140670121D01*
X111793402Y-138023600D01*
X111887002Y-138023600D01*
X111887002Y-137858818D01*
X112119026Y-137979958D01*
X112534947Y-137807688D01*
X112966821Y-137413490D01*
X113030000Y-137278687D01*
X113093179Y-137413490D01*
X113525053Y-137807688D01*
X113940974Y-137979958D01*
X114173000Y-137858817D01*
X114173000Y-136652000D01*
X114427000Y-136652000D01*
X114427000Y-137858817D01*
X114659026Y-137979958D01*
X115074947Y-137807688D01*
X115506821Y-137413490D01*
X115570000Y-137278687D01*
X115633179Y-137413490D01*
X116065053Y-137807688D01*
X116480974Y-137979958D01*
X116713000Y-137858817D01*
X116713000Y-136652000D01*
X116967000Y-136652000D01*
X116967000Y-137858817D01*
X117199026Y-137979958D01*
X117614947Y-137807688D01*
X118046821Y-137413490D01*
X118110000Y-137278687D01*
X118173179Y-137413490D01*
X118605053Y-137807688D01*
X119020974Y-137979958D01*
X119253000Y-137858817D01*
X119253000Y-136652000D01*
X116967000Y-136652000D01*
X116713000Y-136652000D01*
X114427000Y-136652000D01*
X114173000Y-136652000D01*
X111887000Y-136652000D01*
X111887000Y-136672000D01*
X111633000Y-136672000D01*
X111633000Y-136652000D01*
X111613000Y-136652000D01*
X111613000Y-136398000D01*
X111633000Y-136398000D01*
X111633000Y-136378000D01*
X111887000Y-136378000D01*
X111887000Y-136398000D01*
X114173000Y-136398000D01*
X114173000Y-136378000D01*
X114427000Y-136378000D01*
X114427000Y-136398000D01*
X116713000Y-136398000D01*
X116713000Y-136378000D01*
X116967000Y-136378000D01*
X116967000Y-136398000D01*
X119253000Y-136398000D01*
X119253000Y-136378000D01*
X119507000Y-136378000D01*
X119507000Y-136398000D01*
X121793000Y-136398000D01*
X121793000Y-136378000D01*
X122047000Y-136378000D01*
X122047000Y-136398000D01*
X122067000Y-136398000D01*
X122067000Y-136652000D01*
X122047000Y-136652000D01*
X122047000Y-136672000D01*
X121793000Y-136672000D01*
X121793000Y-136652000D01*
X119507000Y-136652000D01*
X119507000Y-137858817D01*
X119739026Y-137979958D01*
X120154947Y-137807688D01*
X120586821Y-137413490D01*
X120650000Y-137278687D01*
X120713179Y-137413490D01*
X121145053Y-137807688D01*
X121560974Y-137979958D01*
X121792998Y-137858818D01*
X121792998Y-137940423D01*
X116751058Y-142982362D01*
X116559215Y-143269477D01*
X116551213Y-143309708D01*
X116491847Y-143608152D01*
X116491848Y-143608157D01*
X116491848Y-146029300D01*
X112584774Y-146029300D01*
X112380455Y-145944459D01*
X111928924Y-145944065D01*
X111722640Y-146029300D01*
X105961979Y-146029300D01*
X97559911Y-137627231D01*
X97579670Y-137614029D01*
X97795664Y-137290772D01*
X97853179Y-137413490D01*
X98285053Y-137807688D01*
X98700974Y-137979958D01*
X98933000Y-137858817D01*
X98933000Y-136652000D01*
X98913000Y-136652000D01*
X98913000Y-136398000D01*
X98933000Y-136398000D01*
X98933000Y-136378000D01*
X99187000Y-136378000D01*
X99187000Y-136398000D01*
X99187000Y-136398000D01*
G37*
X99187000Y-136398000D02*
X99207000Y-136398000D01*
X99207000Y-136652000D01*
X99187000Y-136652000D01*
X99187000Y-137858817D01*
X99419026Y-137979958D01*
X99834947Y-137807688D01*
X99982555Y-137672957D01*
X105721999Y-143412401D01*
X105968561Y-143577148D01*
X106259400Y-143635000D01*
X111578537Y-143635000D01*
X111610673Y-143667192D01*
X111954201Y-143809838D01*
X112326167Y-143810162D01*
X112669943Y-143668117D01*
X112933192Y-143405327D01*
X113028876Y-143174895D01*
X113342167Y-143175168D01*
X113685943Y-143033123D01*
X113949192Y-142770333D01*
X114054947Y-142515649D01*
X114113201Y-142539838D01*
X114485167Y-142540162D01*
X114828943Y-142398117D01*
X115092192Y-142135327D01*
X115234838Y-141791799D01*
X115235162Y-141419833D01*
X115093117Y-141076057D01*
X114830327Y-140812808D01*
X114486799Y-140670162D01*
X114439923Y-140670121D01*
X111793402Y-138023600D01*
X111887002Y-138023600D01*
X111887002Y-137858818D01*
X112119026Y-137979958D01*
X112534947Y-137807688D01*
X112966821Y-137413490D01*
X113030000Y-137278687D01*
X113093179Y-137413490D01*
X113525053Y-137807688D01*
X113940974Y-137979958D01*
X114173000Y-137858817D01*
X114173000Y-136652000D01*
X114427000Y-136652000D01*
X114427000Y-137858817D01*
X114659026Y-137979958D01*
X115074947Y-137807688D01*
X115506821Y-137413490D01*
X115570000Y-137278687D01*
X115633179Y-137413490D01*
X116065053Y-137807688D01*
X116480974Y-137979958D01*
X116713000Y-137858817D01*
X116713000Y-136652000D01*
X116967000Y-136652000D01*
X116967000Y-137858817D01*
X117199026Y-137979958D01*
X117614947Y-137807688D01*
X118046821Y-137413490D01*
X118110000Y-137278687D01*
X118173179Y-137413490D01*
X118605053Y-137807688D01*
X119020974Y-137979958D01*
X119253000Y-137858817D01*
X119253000Y-136652000D01*
X116967000Y-136652000D01*
X116713000Y-136652000D01*
X114427000Y-136652000D01*
X114173000Y-136652000D01*
X111887000Y-136652000D01*
X111887000Y-136672000D01*
X111633000Y-136672000D01*
X111633000Y-136652000D01*
X111613000Y-136652000D01*
X111613000Y-136398000D01*
X111633000Y-136398000D01*
X111633000Y-136378000D01*
X111887000Y-136378000D01*
X111887000Y-136398000D01*
X114173000Y-136398000D01*
X114173000Y-136378000D01*
X114427000Y-136378000D01*
X114427000Y-136398000D01*
X116713000Y-136398000D01*
X116713000Y-136378000D01*
X116967000Y-136378000D01*
X116967000Y-136398000D01*
X119253000Y-136398000D01*
X119253000Y-136378000D01*
X119507000Y-136378000D01*
X119507000Y-136398000D01*
X121793000Y-136398000D01*
X121793000Y-136378000D01*
X122047000Y-136378000D01*
X122047000Y-136398000D01*
X122067000Y-136398000D01*
X122067000Y-136652000D01*
X122047000Y-136652000D01*
X122047000Y-136672000D01*
X121793000Y-136672000D01*
X121793000Y-136652000D01*
X119507000Y-136652000D01*
X119507000Y-137858817D01*
X119739026Y-137979958D01*
X120154947Y-137807688D01*
X120586821Y-137413490D01*
X120650000Y-137278687D01*
X120713179Y-137413490D01*
X121145053Y-137807688D01*
X121560974Y-137979958D01*
X121792998Y-137858818D01*
X121792998Y-137940423D01*
X116751058Y-142982362D01*
X116559215Y-143269477D01*
X116551213Y-143309708D01*
X116491847Y-143608152D01*
X116491848Y-143608157D01*
X116491848Y-146029300D01*
X112584774Y-146029300D01*
X112380455Y-145944459D01*
X111928924Y-145944065D01*
X111722640Y-146029300D01*
X105961979Y-146029300D01*
X97559911Y-137627231D01*
X97579670Y-137614029D01*
X97795664Y-137290772D01*
X97853179Y-137413490D01*
X98285053Y-137807688D01*
X98700974Y-137979958D01*
X98933000Y-137858817D01*
X98933000Y-136652000D01*
X98913000Y-136652000D01*
X98913000Y-136398000D01*
X98933000Y-136398000D01*
X98933000Y-136378000D01*
X99187000Y-136378000D01*
X99187000Y-136398000D01*
G36*
X101727000Y-136398000D02*
X104013000Y-136398000D01*
X104013000Y-136378000D01*
X104267000Y-136378000D01*
X104267000Y-136398000D01*
X104287000Y-136398000D01*
X104287000Y-136652000D01*
X104267000Y-136652000D01*
X104267000Y-137858817D01*
X104499026Y-137979958D01*
X104914947Y-137807688D01*
X105009961Y-137720963D01*
X109403998Y-142115000D01*
X106574202Y-142115000D01*
X102298538Y-137839336D01*
X102374947Y-137807688D01*
X102806821Y-137413490D01*
X102870000Y-137278687D01*
X102933179Y-137413490D01*
X103365053Y-137807688D01*
X103780974Y-137979958D01*
X104013000Y-137858817D01*
X104013000Y-136652000D01*
X101727000Y-136652000D01*
X101727000Y-136672000D01*
X101473000Y-136672000D01*
X101473000Y-136652000D01*
X101453000Y-136652000D01*
X101453000Y-136398000D01*
X101473000Y-136398000D01*
X101473000Y-136378000D01*
X101727000Y-136378000D01*
X101727000Y-136398000D01*
X101727000Y-136398000D01*
G37*
X101727000Y-136398000D02*
X104013000Y-136398000D01*
X104013000Y-136378000D01*
X104267000Y-136378000D01*
X104267000Y-136398000D01*
X104287000Y-136398000D01*
X104287000Y-136652000D01*
X104267000Y-136652000D01*
X104267000Y-137858817D01*
X104499026Y-137979958D01*
X104914947Y-137807688D01*
X105009961Y-137720963D01*
X109403998Y-142115000D01*
X106574202Y-142115000D01*
X102298538Y-137839336D01*
X102374947Y-137807688D01*
X102806821Y-137413490D01*
X102870000Y-137278687D01*
X102933179Y-137413490D01*
X103365053Y-137807688D01*
X103780974Y-137979958D01*
X104013000Y-137858817D01*
X104013000Y-136652000D01*
X101727000Y-136652000D01*
X101727000Y-136672000D01*
X101473000Y-136672000D01*
X101473000Y-136652000D01*
X101453000Y-136652000D01*
X101453000Y-136398000D01*
X101473000Y-136398000D01*
X101473000Y-136378000D01*
X101727000Y-136378000D01*
X101727000Y-136398000D01*
G36*
X106807000Y-136398000D02*
X106827000Y-136398000D01*
X106827000Y-136652000D01*
X106807000Y-136652000D01*
X106807000Y-136672000D01*
X106553000Y-136672000D01*
X106553000Y-136652000D01*
X106533000Y-136652000D01*
X106533000Y-136398000D01*
X106553000Y-136398000D01*
X106553000Y-136378000D01*
X106807000Y-136378000D01*
X106807000Y-136398000D01*
X106807000Y-136398000D01*
G37*
X106807000Y-136398000D02*
X106827000Y-136398000D01*
X106827000Y-136652000D01*
X106807000Y-136652000D01*
X106807000Y-136672000D01*
X106553000Y-136672000D01*
X106553000Y-136652000D01*
X106533000Y-136652000D01*
X106533000Y-136398000D01*
X106553000Y-136398000D01*
X106553000Y-136378000D01*
X106807000Y-136378000D01*
X106807000Y-136398000D01*
G36*
X76327000Y-134493000D02*
X76347000Y-134493000D01*
X76347000Y-134747000D01*
X76327000Y-134747000D01*
X76327000Y-134767000D01*
X76073000Y-134767000D01*
X76073000Y-134747000D01*
X76053000Y-134747000D01*
X76053000Y-134493000D01*
X76073000Y-134493000D01*
X76073000Y-134473000D01*
X76327000Y-134473000D01*
X76327000Y-134493000D01*
X76327000Y-134493000D01*
G37*
X76327000Y-134493000D02*
X76347000Y-134493000D01*
X76347000Y-134747000D01*
X76327000Y-134747000D01*
X76327000Y-134767000D01*
X76073000Y-134767000D01*
X76073000Y-134747000D01*
X76053000Y-134747000D01*
X76053000Y-134493000D01*
X76073000Y-134493000D01*
X76073000Y-134473000D01*
X76327000Y-134473000D01*
X76327000Y-134493000D01*
G36*
X107657824Y-81157000D02*
X102983273Y-81157000D01*
X103054968Y-81004027D01*
X102934469Y-80772000D01*
X101727000Y-80772000D01*
X101727000Y-80792000D01*
X101473000Y-80792000D01*
X101473000Y-80772000D01*
X101453000Y-80772000D01*
X101453000Y-80518000D01*
X101473000Y-80518000D01*
X101473000Y-80498000D01*
X101727000Y-80498000D01*
X101727000Y-80518000D01*
X102934469Y-80518000D01*
X103054968Y-80285973D01*
X103016362Y-80203601D01*
X107829399Y-80203601D01*
X108148940Y-80140040D01*
X108419833Y-79959035D01*
X111297827Y-77081041D01*
X111476775Y-77081197D01*
X111894086Y-76908767D01*
X112213645Y-76589765D01*
X112386803Y-76172756D01*
X112387197Y-75721225D01*
X112214767Y-75303914D01*
X112137000Y-75226011D01*
X112137000Y-74661580D01*
X114925787Y-71872792D01*
X114925790Y-71872790D01*
X115117633Y-71585675D01*
X115134476Y-71501000D01*
X117313825Y-71501000D01*
X107657824Y-81157000D01*
X107657824Y-81157000D01*
G37*
X107657824Y-81157000D02*
X102983273Y-81157000D01*
X103054968Y-81004027D01*
X102934469Y-80772000D01*
X101727000Y-80772000D01*
X101727000Y-80792000D01*
X101473000Y-80792000D01*
X101473000Y-80772000D01*
X101453000Y-80772000D01*
X101453000Y-80518000D01*
X101473000Y-80518000D01*
X101473000Y-80498000D01*
X101727000Y-80498000D01*
X101727000Y-80518000D01*
X102934469Y-80518000D01*
X103054968Y-80285973D01*
X103016362Y-80203601D01*
X107829399Y-80203601D01*
X108148940Y-80140040D01*
X108419833Y-79959035D01*
X111297827Y-77081041D01*
X111476775Y-77081197D01*
X111894086Y-76908767D01*
X112213645Y-76589765D01*
X112386803Y-76172756D01*
X112387197Y-75721225D01*
X112214767Y-75303914D01*
X112137000Y-75226011D01*
X112137000Y-74661580D01*
X114925787Y-71872792D01*
X114925790Y-71872790D01*
X115117633Y-71585675D01*
X115134476Y-71501000D01*
X117313825Y-71501000D01*
X107657824Y-81157000D01*
G36*
X94107000Y-80518000D02*
X96393000Y-80518000D01*
X96393000Y-80498000D01*
X96647000Y-80498000D01*
X96647000Y-80518000D01*
X96667000Y-80518000D01*
X96667000Y-80772000D01*
X96647000Y-80772000D01*
X96647000Y-80792000D01*
X96393000Y-80792000D01*
X96393000Y-80772000D01*
X94107000Y-80772000D01*
X94107000Y-80792000D01*
X93853000Y-80792000D01*
X93853000Y-80772000D01*
X93833000Y-80772000D01*
X93833000Y-80518000D01*
X93853000Y-80518000D01*
X93853000Y-80498000D01*
X94107000Y-80498000D01*
X94107000Y-80518000D01*
X94107000Y-80518000D01*
G37*
X94107000Y-80518000D02*
X96393000Y-80518000D01*
X96393000Y-80498000D01*
X96647000Y-80498000D01*
X96647000Y-80518000D01*
X96667000Y-80518000D01*
X96667000Y-80772000D01*
X96647000Y-80772000D01*
X96647000Y-80792000D01*
X96393000Y-80792000D01*
X96393000Y-80772000D01*
X94107000Y-80772000D01*
X94107000Y-80792000D01*
X93853000Y-80792000D01*
X93853000Y-80772000D01*
X93833000Y-80772000D01*
X93833000Y-80518000D01*
X93853000Y-80518000D01*
X93853000Y-80498000D01*
X94107000Y-80498000D01*
X94107000Y-80518000D01*
G36*
X110626210Y-73669210D02*
X110434367Y-73956325D01*
X110434367Y-73956326D01*
X110366999Y-74295000D01*
X110367000Y-74295005D01*
X110367000Y-75225724D01*
X110290355Y-75302235D01*
X110117197Y-75719244D01*
X110117039Y-75900093D01*
X107483531Y-78533601D01*
X103111040Y-78533601D01*
X103111040Y-77241400D01*
X103066762Y-77006083D01*
X102927690Y-76789959D01*
X102733163Y-76657045D01*
X102891954Y-76479320D01*
X103085184Y-75926913D01*
X102940924Y-75692000D01*
X101727000Y-75692000D01*
X101727000Y-75712000D01*
X101473000Y-75712000D01*
X101473000Y-75692000D01*
X101453000Y-75692000D01*
X101453000Y-75438000D01*
X101473000Y-75438000D01*
X101473000Y-74078783D01*
X101727000Y-74078783D01*
X101727000Y-75438000D01*
X102940924Y-75438000D01*
X103085184Y-75203087D01*
X102891954Y-74650680D01*
X102502036Y-74214268D01*
X101974791Y-73960291D01*
X101959026Y-73957642D01*
X101727000Y-74078783D01*
X101473000Y-74078783D01*
X101240974Y-73957642D01*
X101225209Y-73960291D01*
X100697964Y-74214268D01*
X100326461Y-74630069D01*
X100119670Y-74320585D01*
X99633489Y-73995729D01*
X99060000Y-73881655D01*
X98486511Y-73995729D01*
X98000330Y-74320585D01*
X97793539Y-74630069D01*
X97422036Y-74214268D01*
X96894791Y-73960291D01*
X96879026Y-73957642D01*
X96647000Y-74078783D01*
X96647000Y-75438000D01*
X96667000Y-75438000D01*
X96667000Y-75692000D01*
X96647000Y-75692000D01*
X96647000Y-75712000D01*
X96393000Y-75712000D01*
X96393000Y-75692000D01*
X94107000Y-75692000D01*
X94107000Y-75712000D01*
X93853000Y-75712000D01*
X93853000Y-75692000D01*
X93833000Y-75692000D01*
X93833000Y-75438000D01*
X93853000Y-75438000D01*
X93853000Y-75418000D01*
X94107000Y-75418000D01*
X94107000Y-75438000D01*
X96393000Y-75438000D01*
X96393000Y-74078783D01*
X96160974Y-73957642D01*
X96145209Y-73960291D01*
X95617964Y-74214268D01*
X95250000Y-74626108D01*
X94882036Y-74214268D01*
X94354791Y-73960291D01*
X94339026Y-73957642D01*
X94107002Y-74078782D01*
X94107002Y-73926466D01*
X95951468Y-72082000D01*
X107941811Y-72082000D01*
X108068235Y-72208645D01*
X108485244Y-72381803D01*
X108936775Y-72382197D01*
X109354086Y-72209767D01*
X109673645Y-71890765D01*
X109835490Y-71501000D01*
X112794421Y-71501000D01*
X110626210Y-73669210D01*
X110626210Y-73669210D01*
G37*
X110626210Y-73669210D02*
X110434367Y-73956325D01*
X110434367Y-73956326D01*
X110366999Y-74295000D01*
X110367000Y-74295005D01*
X110367000Y-75225724D01*
X110290355Y-75302235D01*
X110117197Y-75719244D01*
X110117039Y-75900093D01*
X107483531Y-78533601D01*
X103111040Y-78533601D01*
X103111040Y-77241400D01*
X103066762Y-77006083D01*
X102927690Y-76789959D01*
X102733163Y-76657045D01*
X102891954Y-76479320D01*
X103085184Y-75926913D01*
X102940924Y-75692000D01*
X101727000Y-75692000D01*
X101727000Y-75712000D01*
X101473000Y-75712000D01*
X101473000Y-75692000D01*
X101453000Y-75692000D01*
X101453000Y-75438000D01*
X101473000Y-75438000D01*
X101473000Y-74078783D01*
X101727000Y-74078783D01*
X101727000Y-75438000D01*
X102940924Y-75438000D01*
X103085184Y-75203087D01*
X102891954Y-74650680D01*
X102502036Y-74214268D01*
X101974791Y-73960291D01*
X101959026Y-73957642D01*
X101727000Y-74078783D01*
X101473000Y-74078783D01*
X101240974Y-73957642D01*
X101225209Y-73960291D01*
X100697964Y-74214268D01*
X100326461Y-74630069D01*
X100119670Y-74320585D01*
X99633489Y-73995729D01*
X99060000Y-73881655D01*
X98486511Y-73995729D01*
X98000330Y-74320585D01*
X97793539Y-74630069D01*
X97422036Y-74214268D01*
X96894791Y-73960291D01*
X96879026Y-73957642D01*
X96647000Y-74078783D01*
X96647000Y-75438000D01*
X96667000Y-75438000D01*
X96667000Y-75692000D01*
X96647000Y-75692000D01*
X96647000Y-75712000D01*
X96393000Y-75712000D01*
X96393000Y-75692000D01*
X94107000Y-75692000D01*
X94107000Y-75712000D01*
X93853000Y-75712000D01*
X93853000Y-75692000D01*
X93833000Y-75692000D01*
X93833000Y-75438000D01*
X93853000Y-75438000D01*
X93853000Y-75418000D01*
X94107000Y-75418000D01*
X94107000Y-75438000D01*
X96393000Y-75438000D01*
X96393000Y-74078783D01*
X96160974Y-73957642D01*
X96145209Y-73960291D01*
X95617964Y-74214268D01*
X95250000Y-74626108D01*
X94882036Y-74214268D01*
X94354791Y-73960291D01*
X94339026Y-73957642D01*
X94107002Y-74078782D01*
X94107002Y-73926466D01*
X95951468Y-72082000D01*
X107941811Y-72082000D01*
X108068235Y-72208645D01*
X108485244Y-72381803D01*
X108936775Y-72382197D01*
X109354086Y-72209767D01*
X109673645Y-71890765D01*
X109835490Y-71501000D01*
X112794421Y-71501000D01*
X110626210Y-73669210D01*
M02*
