M48
;DRILL file {KiCad (2015-08-16 BZR 6097)-product} date Monday 17. August 2015 13.30.25
;FORMAT={-:-/ absolute / metric / decimal}
FMAT,2
METRIC,TZ
T1C0.300
T2C0.400
T3C0.650
T4C1.016
T5C1.200
T6C1.830
T7C3.500
%
G90
G05
M71
T1
X77.724Y-144.018
X78.088Y-124.072
X78.665Y-142.92
X79.121Y-143.891
X79.287Y-115.817
X79.695Y-149.655
X80.782Y-124.446
X89.154Y-144.653
X101.456Y-43.837
X112.395Y-80.01
X126.928Y-39.787
X140.335Y-139.192
X141.732Y-140.081
X142.367Y-140.589
T2
X62.103Y-42.545
X62.357Y-49.403
X63.112Y-139.689
X63.307Y-94.167
X63.307Y-98.06
X63.343Y-128.322
X63.345Y-124.474
X63.349Y-132.099
X63.35Y-78.759
X63.353Y-86.382
X63.358Y-74.896
X63.358Y-112.658
X63.358Y-116.633
X63.358Y-120.608
X63.365Y-82.585
X63.386Y-135.946
X63.389Y-90.229
X63.431Y-108.756
X63.611Y-100.992
X65.382Y-106.672
X72.429Y-103.499
X80.818Y-160.451
X81.661Y-143.51
X82.296Y-140.97
X82.296Y-146.558
X82.931Y-141.732
X84.242Y-120.982
X84.488Y-146.05
X84.709Y-87.757
X84.84Y-151.78
X85.834Y-148.129
X86.607Y-116.7
X86.995Y-142.713
X90.775Y-158.05
X91.694Y-91.948
X92.219Y-119.06
X92.71Y-144.119
X93.98Y-84.479
X96.266Y-96.52
X96.52Y-130.409
X96.837Y-94.227
X99.826Y-130.384
X100.385Y-84.479
X100.829Y-94.2
X104.142Y-84.352
X105.664Y-51.308
X106.68Y-130.228
X107.95Y-84.328
X108.712Y-71.247
X111.252Y-75.946
X112.141Y-142.875
X112.141Y-157.226
X112.154Y-147.079
X113.157Y-142.24
X113.673Y-145.934
X113.919Y-152.781
X114.3Y-141.605
X116.246Y-129.974
X116.84Y-148.463
X119.507Y-144.526
X120.65Y-167.64
X120.987Y-124.784
X121.943Y-122.726
X122.602Y-130.352
X124.259Y-94.395
X124.46Y-167.64
X125.374Y-127.571
X128.27Y-167.64
X130.837Y-73.335
X132.08Y-167.64
X132.245Y-94.862
X132.266Y-102.594
X132.293Y-98.757
X135.89Y-143.637
X136.906Y-167.64
X139.224Y-143.5
X139.827Y-144.145
X140.716Y-167.64
X140.97Y-139.7
X144.526Y-167.64
X149.479Y-73.279
X156.21Y-146.307
X160.454Y-146.275
X161.544Y-41.529
X163.83Y-166.878
X164.429Y-146.275
X165.1Y-50.419
X166.632Y-88.612
X166.658Y-80.828
X166.658Y-84.803
X166.663Y-92.453
X168.404Y-146.275
X168.656Y-156.337
X171.45Y-146.305
X172.466Y-156.21
X172.568Y-100.333
X173.922Y-122.304
T3
X65.Y-162.63
X65.4Y-164.98
X65.8Y-161.48
X66.2Y-163.83
X66.6Y-162.63
X67.Y-164.98
X67.4Y-161.48
X67.8Y-163.83
X68.2Y-162.63
X68.6Y-164.98
X69.Y-161.48
X69.4Y-163.83
X69.8Y-162.63
X70.2Y-164.98
X70.6Y-161.48
X71.Y-163.83
X71.4Y-162.63
X71.8Y-164.98
X72.2Y-161.48
X72.6Y-163.83
X73.Y-162.63
X73.4Y-164.98
X73.8Y-161.48
X74.2Y-163.83
X74.6Y-162.63
X75.Y-164.98
X75.4Y-161.48
X75.8Y-163.83
X76.2Y-162.63
X76.6Y-164.98
X77.Y-161.48
X77.4Y-163.83
X77.8Y-162.63
X78.2Y-164.98
X78.6Y-161.48
X79.Y-163.83
X79.4Y-162.63
X79.8Y-164.98
X80.2Y-161.48
X80.6Y-163.83
X81.Y-162.63
X81.4Y-164.98
X81.8Y-161.48
X82.2Y-163.83
X82.6Y-162.63
X83.Y-164.98
X83.4Y-161.48
X83.8Y-163.83
X84.2Y-162.63
X84.6Y-164.98
X85.Y-161.48
X85.4Y-163.83
X85.8Y-162.63
X86.2Y-164.98
X86.6Y-161.48
X87.Y-163.83
X87.4Y-162.63
X87.8Y-164.98
X88.2Y-161.48
X88.6Y-163.83
X89.Y-162.63
X89.4Y-164.98
X89.8Y-161.48
X90.2Y-163.83
X90.6Y-162.63
X91.Y-164.98
X91.4Y-161.48
X91.8Y-163.83
T4
X76.2Y-81.28
X76.2Y-83.82
X76.2Y-86.36
X76.2Y-88.9
X76.2Y-91.44
X76.2Y-93.98
X76.2Y-96.52
X76.2Y-99.06
X76.2Y-101.6
X76.2Y-104.14
X76.2Y-106.68
X76.2Y-109.22
X76.2Y-111.76
X76.2Y-114.3
X76.2Y-116.84
X76.2Y-119.38
X76.2Y-121.92
X76.2Y-124.46
X76.2Y-127.
X76.2Y-129.54
X76.2Y-132.08
X76.2Y-134.62
X86.36Y-133.985
X86.36Y-136.525
X88.9Y-75.565
X88.9Y-78.105
X88.9Y-80.645
X88.9Y-133.985
X88.9Y-136.525
X91.44Y-75.565
X91.44Y-78.105
X91.44Y-80.645
X91.44Y-133.985
X91.44Y-136.525
X93.98Y-75.565
X93.98Y-78.105
X93.98Y-80.645
X93.98Y-133.985
X93.98Y-136.525
X96.52Y-75.565
X96.52Y-78.105
X96.52Y-80.645
X96.52Y-133.985
X96.52Y-136.525
X99.06Y-75.565
X99.06Y-78.105
X99.06Y-80.645
X99.06Y-133.985
X99.06Y-136.525
X101.6Y-75.565
X101.6Y-78.105
X101.6Y-80.645
X101.6Y-133.985
X101.6Y-136.525
X104.14Y-133.985
X104.14Y-136.525
X106.68Y-133.985
X106.68Y-136.525
X109.22Y-133.985
X109.22Y-136.525
X111.76Y-133.985
X111.76Y-136.525
X114.3Y-133.985
X114.3Y-136.525
X116.84Y-133.985
X116.84Y-136.525
X119.38Y-78.74
X119.38Y-81.28
X119.38Y-133.985
X119.38Y-136.525
X120.65Y-160.02
X121.92Y-78.74
X121.92Y-81.28
X121.92Y-133.985
X121.92Y-136.525
X123.19Y-160.02
X124.46Y-78.74
X124.46Y-81.28
X124.46Y-133.985
X124.46Y-136.525
X125.73Y-160.02
X127.Y-78.74
X127.Y-81.28
X127.Y-133.985
X127.Y-136.525
X128.27Y-160.02
X129.54Y-78.74
X129.54Y-81.28
X129.54Y-133.985
X129.54Y-136.525
X130.81Y-160.02
X132.08Y-78.74
X132.08Y-81.28
X132.08Y-133.985
X132.08Y-136.525
X133.35Y-160.02
X134.62Y-78.74
X134.62Y-81.28
X134.62Y-133.985
X134.62Y-136.525
X135.89Y-160.02
X137.16Y-78.74
X137.16Y-81.28
X137.16Y-133.985
X137.16Y-136.525
X141.605Y-86.36
X141.605Y-88.9
X141.605Y-91.44
X141.605Y-93.98
X141.605Y-100.33
X141.605Y-102.87
X141.605Y-105.41
X141.605Y-107.95
X141.605Y-110.49
X141.605Y-113.03
X141.605Y-115.57
X141.605Y-118.11
X141.605Y-120.65
X141.605Y-123.19
X141.605Y-125.73
X144.145Y-86.36
X144.145Y-88.9
X144.145Y-91.44
X144.145Y-93.98
X144.145Y-100.33
X144.145Y-102.87
X144.145Y-105.41
X144.145Y-107.95
X144.145Y-110.49
X144.145Y-113.03
X144.145Y-115.57
X144.145Y-118.11
X144.145Y-120.65
X144.145Y-123.19
X144.145Y-125.73
T5
X62.23Y-163.83
X94.58Y-163.83
T6
X57.46Y-166.45
X99.36Y-166.45
T7
X52.451Y-30.48
X52.451Y-66.675
X52.451Y-164.465
X100.711Y-66.675
X171.196Y-30.48
X171.196Y-66.675
X171.831Y-165.1
T0
M30
